{"glyphs":{"0":{"ha":442,"x_min":20,"x_max":422,"o":"m 227 1166 l 227 1164 q 235 1166 232 1166 q 300 1145 273 1166 l 300 1142 q 227 1126 296 1142 l 227 1123 q 311 1139 253 1126 q 349 1090 347 1108 q 316 882 349 1083 l 316 879 l 319 879 q 351 1074 340 998 l 359 1074 q 381 979 381 1008 l 357 979 l 357 977 q 384 966 384 975 l 384 903 q 387 892 384 897 q 384 890 387 890 l 387 876 l 387 865 q 384 854 387 859 l 389 838 q 387 795 387 810 l 387 754 q 384 751 387 751 l 387 746 l 387 713 q 384 705 387 705 l 387 692 l 387 640 l 389 635 q 373 629 380 629 l 373 627 q 400 610 392 627 q 422 589 400 606 q 403 570 422 585 q 370 578 393 570 l 370 572 q 397 562 397 569 q 387 534 391 562 l 389 521 l 389 477 q 387 475 389 475 l 389 469 l 389 458 q 365 415 389 433 l 362 415 l 362 401 l 378 401 l 381 418 l 387 418 q 384 377 384 391 l 384 298 l 378 290 q 384 285 384 290 q 381 258 381 261 q 384 250 381 255 q 368 176 380 176 l 365 176 l 365 174 q 376 168 376 174 l 376 165 q 368 157 376 161 l 354 163 l 354 160 l 365 152 l 373 152 q 365 141 369 141 q 359 149 365 149 q 354 144 359 144 q 338 155 351 144 l 338 146 l 327 152 q 330 160 330 157 l 343 157 l 343 160 q 338 171 338 167 l 330 171 l 330 165 l 324 165 l 324 176 l 330 176 l 330 182 l 324 179 l 321 179 q 311 182 315 179 q 302 179 305 179 l 297 187 q 302 206 302 198 q 294 190 294 206 l 292 190 q 267 225 267 207 l 270 225 l 275 222 l 275 225 q 270 231 275 231 l 267 231 l 267 225 l 264 225 l 248 247 q 283 271 248 264 q 305 323 305 295 l 305 345 q 308 347 305 347 q 305 350 308 350 l 308 369 l 308 442 q 313 448 309 448 l 327 445 l 308 458 l 308 496 q 316 502 308 502 l 316 505 q 297 553 307 505 q 270 578 292 562 q 278 600 273 600 l 319 589 l 321 589 l 321 591 l 283 602 l 283 605 q 316 646 306 646 l 321 646 l 321 651 l 316 648 l 302 654 q 308 722 308 705 l 313 722 l 332 708 l 332 716 q 308 732 326 716 l 308 754 q 305 768 308 763 l 308 784 l 308 800 q 305 811 308 806 q 308 822 308 816 l 313 819 l 316 819 l 316 822 q 311 825 311 822 q 316 860 316 857 l 316 863 l 313 863 l 313 854 l 308 854 l 308 876 q 270 917 296 906 q 259 920 259 917 l 254 917 l 199 917 l 186 920 l 221 1120 l 224 1120 l 221 1134 q 224 1142 224 1139 l 221 1142 q 164 1115 191 1115 q 102 1104 130 1104 l 102 1107 q 227 1166 140 1166 m 213 1120 q 216 1118 213 1118 q 178 914 183 930 q 148 901 168 914 l 134 901 l 134 898 l 145 895 q 137 865 141 865 q 140 863 137 863 q 115 822 140 836 l 115 819 l 118 819 l 134 830 q 137 811 134 811 l 134 798 l 134 776 q 132 735 134 759 q 134 716 134 724 q 123 681 134 693 l 123 678 l 126 678 l 132 681 l 134 675 l 134 670 q 110 654 134 666 l 107 654 q 83 659 100 654 q 140 637 83 655 q 170 589 140 619 q 142 551 170 584 q 137 534 142 534 l 140 529 l 140 515 q 134 510 140 510 l 137 505 l 137 464 l 134 448 l 137 442 q 134 439 137 439 q 137 431 134 437 q 132 396 135 396 l 134 391 l 134 385 l 126 372 l 126 369 l 129 369 l 129 374 q 134 369 134 374 l 134 366 q 161 266 134 266 q 178 258 172 258 l 178 260 q 194 252 194 257 l 194 250 l 191 250 l 183 255 l 183 250 l 191 239 q 180 236 186 236 l 183 231 q 178 222 178 231 q 172 233 172 222 l 159 233 l 159 231 l 164 222 l 156 222 l 156 220 q 167 212 156 216 l 164 206 l 164 195 l 180 184 q 178 182 178 184 l 183 182 l 183 187 l 191 187 q 180 171 191 171 l 180 168 q 197 160 184 168 q 191 122 193 157 l 191 119 l 194 119 q 208 176 201 176 q 218 163 215 163 q 221 171 221 168 l 227 171 l 227 165 l 229 165 l 229 171 q 227 174 227 171 l 232 174 l 229 179 l 229 190 l 235 190 q 232 187 235 187 q 235 176 235 182 l 240 179 l 248 179 l 248 171 l 243 171 l 243 168 q 254 160 254 168 l 259 163 l 262 163 l 259 157 l 264 155 l 267 155 l 264 160 l 264 165 l 267 171 l 262 171 l 262 176 l 275 176 l 281 179 l 281 171 l 286 171 l 286 176 l 292 176 l 292 174 l 286 165 q 294 157 290 165 l 292 152 l 300 152 l 300 138 l 297 138 l 283 141 q 281 138 283 138 l 281 146 l 289 146 l 289 149 q 281 152 286 149 q 278 149 281 149 q 273 160 273 156 l 270 160 l 270 138 l 273 133 q 270 130 270 133 l 275 130 l 273 125 l 273 111 q 267 100 267 111 l 273 100 l 273 95 l 267 95 q 275 84 271 84 l 281 84 l 281 90 l 289 90 q 302 68 302 73 l 305 68 l 305 81 l 311 81 q 319 71 312 71 q 321 73 319 73 l 316 84 q 330 90 325 90 q 335 73 335 83 l 340 76 l 343 76 l 343 73 l 340 68 l 335 71 q 330 62 330 71 l 330 54 q 259 46 279 51 q 248 49 254 49 q 235 46 239 49 l 218 49 q 189 43 202 43 l 189 41 l 232 35 q 256 38 247 38 q 275 33 264 33 q 297 35 295 35 q 300 33 297 33 q 305 41 300 41 l 313 41 l 313 38 q 273 11 295 17 q 267 16 273 16 q 224 0 253 0 l 202 0 q 178 14 178 5 q 197 100 188 100 q 199 103 199 100 q 191 111 191 103 l 186 111 l 186 103 q 170 81 186 81 l 161 81 l 161 79 q 170 76 164 79 q 180 79 174 79 q 183 76 180 76 q 167 62 183 62 l 167 60 q 178 54 178 60 q 172 14 178 47 l 170 14 q 137 33 158 14 l 137 38 l 151 35 l 156 35 q 161 41 161 35 l 148 43 l 129 43 q 104 73 116 52 l 137 76 l 142 76 l 142 81 l 102 81 q 77 130 96 83 q 102 136 87 136 q 132 133 113 136 q 153 136 142 136 l 153 138 l 145 149 l 132 146 q 104 168 104 155 q 88 209 92 209 l 88 203 q 102 149 102 166 q 72 144 98 146 l 72 155 l 83 165 l 77 165 q 69 163 72 163 q 56 312 56 222 q 58 315 56 315 l 56 328 l 56 334 q 58 355 56 345 q 56 377 56 366 l 56 382 q 61 388 56 388 q 56 404 56 397 l 56 439 q 58 491 56 461 q 56 502 56 496 l 58 507 q 56 518 56 512 l 56 524 l 58 529 q 45 562 54 529 l 20 589 l 20 594 q 53 643 46 620 q 50 646 53 646 q 56 711 56 670 l 56 911 q 58 914 56 914 q 56 922 56 920 q 96 1093 56 1023 l 213 1120 m 254 1112 q 256 1090 256 1109 l 259 1090 l 259 1115 l 254 1112 m 297 1101 q 300 1093 300 1096 l 302 1093 l 302 1101 l 297 1101 m 275 1099 l 275 1096 l 286 1096 l 286 1099 l 275 1099 m 153 1082 q 151 1066 151 1068 l 151 1063 l 153 1063 l 156 1077 l 156 1082 l 153 1082 m 254 1072 l 256 1066 l 254 1050 l 259 1047 l 259 1074 l 254 1072 m 180 1063 l 180 1061 l 186 1061 l 186 1063 l 180 1063 m 213 1058 l 213 1055 l 218 1055 l 218 1058 l 213 1058 m 270 1050 l 270 1047 q 278 1044 273 1047 l 281 1044 l 281 1047 q 273 1050 278 1047 l 270 1050 m 75 1028 l 75 1025 q 83 1017 75 1021 l 85 1017 l 85 1020 q 75 1028 85 1024 m 297 1025 l 297 1023 l 316 1023 l 316 1025 l 297 1025 m 275 1020 l 275 1015 q 281 1020 281 1015 l 275 1020 m 159 1017 l 156 998 q 161 1006 161 998 l 161 1017 l 159 1017 m 83 1015 l 83 1004 l 85 1004 l 85 1015 l 83 1015 m 132 998 q 80 865 107 922 l 80 857 l 83 857 q 115 879 83 871 l 115 887 q 121 903 115 895 q 115 933 115 914 q 137 998 115 937 l 132 998 m 232 993 q 229 985 232 990 l 235 982 q 237 985 235 985 q 235 993 235 990 l 232 993 m 259 944 l 259 939 q 264 944 264 939 l 259 944 m 313 871 l 313 868 l 319 868 l 319 871 l 313 871 m 354 863 l 354 860 l 365 857 l 365 863 l 354 863 m 368 844 l 368 841 l 370 841 q 381 849 381 845 l 378 849 q 368 844 372 844 m 64 713 l 64 694 l 66 694 l 69 711 l 64 713 m 80 705 q 88 697 80 701 l 91 697 q 83 705 91 701 l 80 705 m 311 675 q 316 670 311 670 l 319 675 l 311 675 m 321 675 l 321 670 l 324 670 q 332 673 330 673 l 332 675 l 321 675 m 343 670 q 351 662 343 666 q 349 670 349 667 l 343 670 m 75 662 q 80 656 75 656 l 80 662 l 75 662 m 129 621 q 123 578 123 581 l 123 572 l 126 572 l 134 621 l 129 621 m 85 586 l 85 583 l 94 583 l 94 586 l 85 586 m 346 545 l 346 543 l 351 543 l 351 545 l 346 545 m 335 537 q 321 524 335 534 q 340 532 335 532 l 340 537 l 335 537 m 107 515 q 113 510 108 510 l 118 510 q 113 515 118 515 l 107 515 m 349 494 l 349 486 l 351 486 l 351 494 l 349 494 m 365 491 l 365 488 l 370 488 l 370 491 l 365 491 m 373 488 l 373 486 l 378 486 l 378 488 l 373 488 m 91 404 l 91 399 l 123 391 l 126 391 l 126 393 q 91 404 123 393 m 330 401 q 327 393 330 399 l 332 393 q 335 401 332 396 l 330 401 m 88 391 l 85 372 l 85 366 l 88 366 l 91 385 l 91 391 l 88 391 m 118 366 l 118 358 l 121 358 l 121 366 l 118 366 m 338 345 q 335 328 335 330 l 335 317 l 338 317 l 340 342 l 340 345 l 338 345 m 94 309 l 94 307 l 96 307 q 104 323 102 307 q 94 309 101 323 m 330 309 l 338 309 l 338 315 l 335 315 q 330 309 330 314 m 69 277 q 66 263 69 268 l 72 263 l 72 277 l 69 277 m 359 277 l 359 271 l 362 271 l 362 277 l 359 277 m 145 260 l 145 258 q 151 252 146 252 l 156 252 l 156 258 q 145 260 150 258 m 161 260 l 161 255 l 164 255 l 164 260 l 161 260 m 292 260 q 297 255 292 255 l 297 260 l 292 260 m 164 244 l 167 244 q 172 250 172 244 l 170 250 q 164 244 164 249 m 292 250 l 292 244 l 294 244 l 294 250 l 292 250 m 208 247 q 210 244 208 244 q 205 217 208 237 l 199 217 l 199 225 q 208 247 199 245 m 218 247 q 245 225 233 247 q 232 209 245 209 l 235 203 l 235 201 q 232 203 232 201 l 227 201 l 224 201 l 224 206 l 216 201 q 210 209 210 201 q 218 247 210 247 m 259 239 q 264 233 260 233 q 270 239 270 233 l 270 244 q 259 239 263 239 m 327 239 l 324 222 l 324 217 l 330 217 q 362 241 332 241 l 362 244 l 357 244 q 327 239 327 242 m 283 231 l 283 220 q 297 209 288 220 l 297 212 q 286 231 286 224 l 283 231 m 297 228 l 297 220 l 302 220 q 300 228 300 225 l 297 228 m 259 225 q 264 220 264 224 q 259 214 264 214 q 254 220 254 214 q 259 225 254 225 m 118 214 l 118 212 l 123 212 l 123 214 l 118 214 m 170 217 l 175 217 l 175 212 l 170 212 l 170 217 m 129 209 l 129 203 l 132 203 l 132 209 l 129 209 m 148 209 l 151 203 l 151 201 l 145 201 l 145 206 l 140 206 l 142 201 q 134 195 142 195 l 134 190 q 140 182 140 190 l 142 182 q 159 195 153 195 l 156 201 l 159 206 l 148 209 m 248 209 l 254 209 q 259 203 259 208 l 259 201 l 248 201 l 248 209 m 305 203 q 311 198 306 198 l 311 203 l 305 203 m 267 203 l 273 203 q 278 198 278 203 q 275 195 275 198 q 267 198 270 198 l 267 203 m 278 193 l 281 187 q 278 179 278 182 q 264 182 275 182 q 259 176 264 176 l 259 184 q 278 193 259 191 m 248 187 l 254 187 l 254 182 l 248 182 l 248 187 m 349 184 l 349 179 l 357 179 l 357 182 q 349 184 354 182 m 208 182 l 213 182 l 213 179 l 208 179 l 208 182 m 316 176 l 319 176 l 319 171 l 313 171 l 313 160 q 330 149 319 149 l 327 144 l 327 138 q 335 133 327 133 l 340 136 q 365 125 365 130 l 365 114 q 340 103 365 107 l 340 100 q 354 98 345 98 l 354 90 l 351 90 q 330 100 344 90 l 330 109 l 327 122 l 330 122 q 294 165 330 131 l 294 168 q 316 176 296 176 m 194 174 l 194 171 q 189 165 194 165 l 189 168 q 194 174 189 174 m 148 168 l 145 163 l 159 155 q 167 165 163 155 q 164 168 164 165 l 159 165 l 153 165 l 148 168 m 172 168 l 172 165 q 175 157 175 160 q 172 155 172 157 l 175 155 l 178 160 l 178 163 q 172 168 178 168 m 346 160 l 346 155 l 351 152 l 354 152 l 354 155 q 349 160 349 155 l 346 160 m 227 149 l 227 146 l 232 146 l 232 149 l 227 149 m 305 146 l 308 146 q 316 136 316 146 q 313 127 313 130 l 311 127 q 300 133 304 133 q 305 146 305 140 m 254 125 l 254 117 l 256 117 q 262 122 262 117 l 262 125 l 254 125 m 264 119 l 264 117 l 270 117 l 270 119 l 264 119 m 302 122 l 305 122 q 311 117 311 121 l 311 98 l 305 98 q 300 103 300 98 l 300 106 l 305 106 l 305 109 q 297 114 305 114 l 297 117 q 302 122 298 122 m 275 111 q 281 106 281 111 l 281 103 l 275 103 l 275 111 m 262 98 q 259 87 262 92 l 264 87 l 264 98 l 262 98 m 197 84 l 197 81 l 213 81 q 221 84 218 84 l 221 90 l 218 90 q 197 84 213 84 m 262 79 l 262 76 l 240 76 l 240 73 l 281 73 q 283 81 281 76 l 281 81 l 275 79 l 262 79 m 283 76 l 283 71 l 289 71 l 289 76 l 283 76 m 137 71 l 140 54 l 145 54 q 164 62 145 62 l 164 65 q 140 71 145 65 l 137 71 m 311 71 l 313 65 l 311 60 l 324 60 l 324 65 q 311 71 317 65 m 294 68 l 294 62 l 297 62 l 297 68 l 294 68 m 283 30 l 283 24 q 289 30 289 24 l 283 30 z "},"1":{"ha":277,"x_min":20,"x_max":256,"o":"m 118 1169 q 145 1166 142 1166 l 164 1169 q 178 1150 178 1165 l 178 1120 q 175 1077 178 1105 q 178 1074 175 1074 l 175 1055 l 175 955 q 178 909 175 941 l 175 909 l 178 903 q 175 892 178 897 q 180 836 180 845 l 178 822 q 180 781 180 798 l 180 757 q 178 754 180 754 l 180 749 q 178 746 180 746 l 180 727 l 180 697 q 178 694 180 694 l 180 689 l 180 659 q 205 602 180 602 q 221 586 221 589 l 221 581 q 189 553 189 563 q 180 526 180 540 l 180 301 q 213 252 180 270 l 216 252 l 232 255 l 237 255 q 248 244 241 255 l 243 241 l 202 241 l 189 239 l 189 241 q 180 239 183 239 q 161 241 172 239 q 121 239 145 239 l 121 236 q 151 231 145 233 q 189 233 174 233 l 235 233 l 248 231 q 251 233 248 233 l 254 228 l 254 157 l 245 157 q 218 160 233 157 q 191 152 191 157 q 254 146 205 146 q 256 144 254 144 l 254 111 l 254 98 q 248 92 254 92 l 237 92 q 232 100 232 92 q 235 109 235 106 q 232 111 232 109 q 224 109 229 111 q 202 111 222 109 l 183 106 l 183 103 l 186 98 l 178 92 l 164 100 q 148 90 153 90 l 134 98 q 118 95 132 98 l 113 98 q 99 92 104 92 q 96 95 99 95 l 96 87 q 123 79 96 81 q 129 84 124 84 l 134 84 q 140 76 140 84 l 145 76 q 151 87 145 80 l 164 84 q 175 87 170 84 q 186 84 180 84 l 199 87 l 210 84 q 232 87 221 87 q 256 79 232 82 l 256 76 q 243 68 256 68 l 243 65 l 254 65 l 254 57 q 227 49 254 49 q 240 38 229 38 q 254 43 249 43 l 256 38 l 256 33 q 254 30 256 30 l 256 24 l 256 22 q 221 11 256 13 l 221 14 q 197 8 216 11 q 153 22 153 12 l 153 24 l 167 24 l 167 27 q 132 30 133 30 q 113 24 132 24 l 113 22 l 118 22 l 118 16 q 66 0 76 0 l 47 0 q 26 11 26 7 l 26 41 q 37 46 37 41 l 37 49 q 26 54 26 49 l 26 65 q 28 76 26 71 q 26 84 26 81 q 50 95 50 92 q 23 109 23 95 l 23 138 q 56 152 23 144 l 56 157 l 50 157 l 31 155 q 28 157 31 157 q 26 155 28 155 q 20 198 23 159 l 23 203 l 20 217 q 23 244 20 220 q 20 252 20 250 q 94 290 75 252 l 99 288 l 102 288 q 107 293 107 288 l 94 293 l 94 312 l 110 312 l 110 317 l 94 320 q 99 450 99 368 q 58 575 99 575 q 47 586 54 575 l 47 589 q 80 610 50 595 q 91 640 91 625 l 91 654 q 96 716 91 703 l 94 722 q 96 765 96 749 q 94 768 96 768 l 96 781 l 96 841 q 50 898 96 898 l 50 903 l 47 903 l 39 898 l 28 898 q 23 903 23 898 q 20 955 23 925 l 23 960 q 20 968 23 963 q 23 1012 23 996 l 23 1042 q 26 1044 23 1044 q 23 1053 23 1050 q 26 1107 23 1067 l 23 1112 q 26 1123 26 1117 l 26 1142 q 31 1147 26 1147 l 58 1147 q 115 1169 94 1147 l 118 1169 m 96 597 l 96 589 l 102 589 l 102 597 l 96 597 m 132 586 l 132 583 l 137 583 l 137 586 l 132 586 m 186 575 l 186 567 l 189 567 l 189 575 l 186 575 m 94 572 l 94 567 l 99 567 l 99 572 l 94 572 m 91 559 l 91 556 l 96 556 l 96 559 l 91 559 m 118 293 q 121 274 121 282 l 123 274 q 137 293 123 282 l 118 293 m 96 274 l 96 269 l 102 269 l 102 274 l 96 274 m 96 255 l 96 247 q 102 252 102 247 l 96 255 m 137 179 l 142 176 l 156 176 l 156 179 q 145 184 152 179 l 142 184 q 137 179 137 184 m 180 179 l 180 176 l 194 174 l 202 174 q 191 182 202 176 q 180 179 186 179 m 96 179 l 96 171 q 102 176 102 171 l 96 179 m 213 179 l 213 174 l 221 174 l 221 179 l 213 179 m 75 157 l 75 155 l 85 155 l 85 160 l 83 160 q 75 157 77 157 m 99 155 l 96 149 l 96 144 q 156 155 156 146 q 126 149 132 152 q 99 155 114 155 m 45 136 q 50 130 45 130 l 69 133 l 85 130 l 85 136 l 83 136 q 53 138 71 136 q 45 136 47 136 m 96 119 l 96 117 l 102 117 l 102 119 l 96 119 m 245 111 l 245 106 l 248 106 l 248 111 l 245 111 m 58 92 l 64 90 l 85 90 l 85 98 l 64 98 q 58 92 58 97 m 197 100 l 205 100 l 218 98 l 218 92 l 216 92 l 197 95 l 197 100 m 134 65 q 142 60 134 60 q 199 62 190 62 l 202 68 l 202 71 q 197 73 197 71 q 134 65 161 71 m 96 60 q 110 52 96 54 l 115 60 l 115 62 q 110 68 115 68 l 104 68 q 96 60 100 68 m 197 43 l 197 41 l 199 41 q 224 49 204 41 l 224 52 q 213 54 218 52 q 197 43 197 49 m 145 46 l 134 46 l 134 41 l 137 41 q 178 43 151 41 l 191 41 l 194 41 l 194 43 q 170 49 176 46 q 145 46 155 46 m 96 38 l 110 38 l 110 43 l 102 43 q 96 38 96 43 m 180 24 l 183 24 q 194 27 188 27 l 191 33 q 180 24 180 28 m 205 27 q 213 24 213 27 q 229 33 229 28 l 210 33 q 205 27 205 32 m 96 22 l 96 19 l 102 19 q 107 24 107 19 l 102 27 q 96 22 96 26 m 83 22 l 83 16 l 85 16 l 85 22 l 83 22 z "},"2":{"ha":391,"x_min":20,"x_max":370,"o":"m 202 1166 l 205 1166 q 208 1164 208 1166 q 210 1166 210 1164 q 327 1082 271 1166 q 365 944 354 1032 q 362 941 365 941 q 370 846 368 857 q 332 694 355 731 q 330 697 332 697 l 321 686 l 327 678 q 292 605 327 670 q 275 567 278 586 l 275 559 q 286 526 286 529 q 273 518 286 520 l 273 521 q 164 401 233 521 q 102 236 110 304 l 102 217 q 107 212 102 212 q 175 255 146 255 q 221 252 212 252 q 289 391 289 252 q 286 393 289 393 q 297 420 286 420 q 359 423 310 420 q 365 407 365 414 l 365 220 q 362 209 365 214 q 365 198 365 204 l 365 195 l 349 195 l 335 193 l 335 187 l 340 187 l 359 190 l 365 182 l 365 179 q 354 174 354 179 l 354 171 q 362 165 362 171 l 362 163 q 357 114 362 127 q 335 117 355 114 q 302 114 321 117 q 259 117 275 117 q 224 114 258 117 l 224 117 l 218 114 l 191 114 q 156 106 185 114 l 156 103 q 161 100 161 103 l 194 103 l 218 103 q 267 98 254 103 l 281 109 l 283 109 q 357 95 283 104 l 357 92 q 313 65 357 65 l 297 65 q 289 68 294 65 q 281 65 283 65 l 281 62 q 292 52 281 60 l 319 54 l 338 54 l 338 46 q 324 30 324 36 q 300 22 312 22 l 294 24 l 289 22 q 243 30 276 22 l 199 30 q 170 27 188 30 q 140 38 153 38 l 129 38 q 80 30 124 32 q 64 35 71 35 l 53 27 q 42 46 42 32 q 47 52 43 52 q 58 49 54 52 q 80 57 80 52 q 61 60 61 57 l 56 57 l 42 57 q 37 73 37 57 q 42 79 42 73 l 42 81 l 39 81 l 34 79 l 31 84 l 31 87 l 34 87 q 42 84 39 84 q 47 90 43 90 q 77 79 62 82 l 88 84 q 113 79 106 79 l 156 79 q 194 81 177 79 q 210 79 208 79 q 316 81 270 81 l 330 81 l 349 84 l 349 87 l 330 90 l 170 90 q 126 92 154 90 q 113 90 121 90 l 113 95 l 129 95 q 148 106 142 106 q 134 114 148 112 q 132 111 132 114 q 61 117 125 114 l 58 111 q 64 106 59 106 l 91 106 q 107 98 107 104 l 107 95 l 94 98 l 69 98 l 53 95 q 37 100 44 100 l 31 98 q 23 149 28 104 q 28 155 28 149 l 34 152 l 53 152 l 69 155 q 80 152 74 152 q 91 160 91 156 l 58 165 l 45 163 q 37 165 39 165 q 26 163 32 163 l 23 168 l 23 174 q 50 317 23 273 q 72 320 61 320 q 50 328 72 326 l 50 331 q 134 499 75 403 q 170 581 170 567 q 156 613 170 597 l 156 618 l 159 624 q 170 618 170 622 q 229 651 192 619 l 240 651 l 240 665 l 235 673 q 245 681 245 677 q 243 689 243 686 q 278 825 278 736 q 281 833 281 825 q 227 909 263 909 q 194 917 227 916 q 104 852 104 917 q 102 849 102 852 q 104 846 102 846 q 99 719 99 795 l 91 713 l 28 713 q 20 730 25 713 l 23 743 l 23 865 q 20 876 23 871 q 23 887 23 881 l 23 903 l 20 917 l 23 917 q 20 920 23 920 l 23 933 l 23 949 q 69 1099 23 1011 q 202 1166 117 1166 m 221 1061 l 227 1061 l 227 1066 q 221 1061 221 1065 m 66 955 l 66 952 l 72 952 l 72 960 q 66 955 66 960 m 26 944 q 31 939 26 939 l 34 939 l 34 944 l 26 944 m 45 884 l 45 879 q 50 884 50 879 l 45 884 m 69 871 q 75 860 75 864 l 77 860 l 77 863 q 75 871 75 868 l 69 871 m 305 358 l 321 358 l 321 363 l 311 363 q 305 358 305 363 m 77 298 l 77 296 l 88 296 l 88 298 l 77 298 m 39 271 l 39 269 l 47 269 l 47 271 l 39 271 m 58 255 l 66 255 q 75 269 66 260 l 69 271 l 66 271 q 58 255 58 269 m 202 236 l 202 231 q 216 214 212 214 l 224 231 l 205 236 l 202 236 m 283 228 l 289 228 l 289 233 q 283 228 283 233 m 297 233 l 297 231 l 308 228 q 300 233 308 233 l 297 233 m 123 217 q 145 209 137 209 q 153 214 153 212 l 167 212 q 175 214 170 212 q 186 212 180 212 l 191 212 l 191 214 q 156 228 191 226 q 123 217 123 224 m 278 212 l 278 209 q 297 206 286 209 q 305 209 302 209 q 297 214 305 214 l 278 212 m 327 214 l 327 209 l 340 209 q 346 214 346 209 l 327 214 m 273 187 l 292 184 l 308 184 q 313 190 313 184 l 313 193 l 300 195 l 294 195 q 273 187 275 195 m 235 184 q 254 179 245 179 q 270 190 270 184 q 248 193 259 190 q 235 184 235 189 m 77 179 q 85 176 85 179 q 107 179 96 179 q 91 187 107 184 q 77 179 77 184 m 197 187 l 197 182 q 224 174 197 174 q 232 176 229 176 l 232 184 l 227 184 q 216 182 220 184 q 199 187 207 187 l 197 187 m 42 184 l 42 179 l 56 179 l 56 184 l 42 184 m 319 176 q 343 168 319 171 l 346 174 q 330 179 330 176 q 319 176 325 176 m 235 163 l 235 160 l 240 160 l 240 163 l 235 163 m 256 160 l 256 157 q 267 152 267 157 q 283 155 271 155 q 264 163 283 160 q 256 160 259 160 m 115 160 l 115 157 q 151 152 137 152 q 159 155 156 155 l 159 157 l 145 160 l 115 160 m 197 160 q 202 155 197 155 l 213 155 q 218 160 218 155 l 197 160 m 161 155 l 161 144 q 175 155 170 155 l 175 157 l 170 157 q 161 155 164 155 m 313 152 q 319 146 314 146 q 324 152 324 146 l 313 152 m 34 138 l 28 130 l 47 127 q 94 133 68 133 l 94 136 l 64 136 l 64 138 l 58 136 q 34 138 43 138 m 115 138 l 115 133 q 134 125 125 133 q 142 127 140 127 l 142 130 q 123 138 134 130 l 115 138 m 343 136 l 343 133 l 349 133 l 349 136 l 343 136 m 39 117 l 39 111 l 50 109 l 50 111 q 45 117 50 117 l 39 117 m 134 60 l 134 57 l 153 57 q 189 60 171 57 l 199 57 l 227 60 l 245 57 q 267 65 267 60 l 254 68 q 232 65 235 65 q 216 68 230 65 l 199 65 q 183 68 197 65 l 134 60 m 85 57 q 91 52 86 52 l 94 52 l 110 54 q 118 52 115 52 l 121 57 l 115 60 l 104 60 l 85 57 m 283 38 l 283 33 q 292 30 286 33 q 300 33 297 33 q 294 38 300 38 l 283 38 m 259 19 l 294 14 l 294 8 q 270 3 277 3 l 213 3 q 205 11 209 3 l 205 14 l 243 14 q 259 19 250 14 m 80 16 q 91 14 85 14 l 96 14 q 107 16 102 14 q 121 8 121 13 q 113 0 121 4 l 83 0 q 72 3 77 0 q 61 0 67 0 l 58 5 l 58 8 q 80 16 58 14 z "},"3":{"ha":412,"x_min":20,"x_max":392,"o":"m 183 1158 l 189 1158 q 321 1066 268 1158 q 338 1017 338 1021 l 338 1012 l 324 1015 l 324 1012 q 327 1001 327 1007 q 340 1004 330 1004 q 346 971 346 974 q 343 966 346 966 l 346 947 l 346 925 q 351 857 346 887 q 349 830 349 843 q 351 800 351 819 l 349 800 l 349 795 l 354 798 l 357 798 q 389 765 357 791 q 343 705 359 745 q 349 700 344 700 q 305 591 349 654 q 297 586 297 591 l 297 583 q 354 442 354 538 q 392 401 363 427 q 378 399 387 399 l 381 393 l 381 388 q 349 350 368 388 q 351 345 349 345 l 349 312 l 349 252 q 340 244 349 248 l 330 244 q 289 241 316 244 l 289 239 q 308 190 308 239 l 305 190 q 289 187 293 190 q 259 190 271 190 l 218 190 q 213 184 213 189 q 189 190 189 186 q 145 176 145 181 q 151 171 151 176 l 161 176 q 170 174 164 176 l 311 184 q 324 149 324 158 l 321 138 q 332 119 329 138 q 300 68 321 68 q 278 65 281 65 l 278 60 l 300 60 l 305 57 q 281 30 291 30 q 273 33 275 33 q 267 27 273 27 q 205 30 217 30 l 191 27 l 191 30 l 186 27 l 175 27 q 153 24 164 27 q 132 27 143 27 l 129 27 l 110 24 q 47 109 63 66 q 75 119 75 115 q 66 122 69 122 q 45 119 47 119 q 31 163 39 125 l 34 163 q 47 160 43 163 q 85 171 85 163 l 85 174 l 77 174 q 69 176 69 174 q 28 171 35 171 q 23 301 23 208 l 23 334 l 20 350 q 26 385 22 361 l 23 396 q 26 450 26 427 l 26 453 q 34 461 26 457 l 53 458 l 72 461 q 80 458 77 458 q 94 461 85 461 l 99 453 l 99 328 q 148 252 111 252 q 175 247 175 250 l 180 250 l 183 250 l 199 247 q 208 250 205 250 l 208 247 q 256 282 230 252 l 289 282 q 297 263 291 263 l 297 266 q 292 279 297 279 l 294 285 q 286 293 294 289 q 281 288 286 288 q 254 293 269 288 l 256 298 l 256 350 q 218 401 256 376 q 245 420 230 414 q 281 298 259 361 l 286 298 l 286 307 l 281 315 q 283 317 281 317 l 267 388 q 251 434 256 403 q 259 472 256 441 q 218 537 259 519 q 197 627 210 589 l 197 632 q 259 675 249 632 q 256 678 259 678 l 259 697 l 259 708 q 224 770 259 745 q 262 827 262 799 l 262 852 q 197 903 262 892 q 110 871 127 903 q 99 770 99 848 l 102 765 q 96 732 99 760 q 99 700 99 713 l 91 694 l 31 694 q 23 705 27 694 q 26 716 23 711 q 23 757 26 723 q 26 849 23 770 q 23 879 23 873 l 26 884 q 23 901 26 886 q 47 1050 28 1039 q 72 1047 64 1047 l 75 1063 l 66 1069 l 53 1069 l 53 1072 q 66 1090 55 1090 l 64 1096 q 110 1137 81 1126 q 118 1134 115 1134 l 140 1153 q 183 1158 151 1158 m 259 1093 l 259 1090 q 289 1055 267 1074 q 259 1093 277 1080 m 123 1080 q 129 1074 124 1074 l 132 1074 l 132 1080 l 123 1080 m 113 1077 q 115 1066 115 1072 l 118 1066 q 123 1072 123 1066 l 123 1074 l 113 1077 m 96 1039 q 75 1031 96 1031 l 75 1017 l 77 1017 l 85 1023 l 94 1023 l 99 1020 l 102 1025 l 99 1031 q 102 1039 102 1036 l 96 1039 m 275 958 q 283 949 275 954 l 286 949 q 278 958 286 954 l 275 958 m 156 930 l 156 925 l 159 925 l 159 930 l 156 930 m 75 920 l 75 911 l 77 906 q 85 909 83 909 l 85 922 q 75 920 81 920 m 254 895 q 270 922 260 895 l 267 922 q 254 895 260 922 m 172 914 l 172 909 q 178 914 178 909 l 172 914 m 75 884 l 72 879 l 72 873 q 91 871 80 873 q 75 884 86 881 m 278 876 l 278 873 l 292 871 l 294 871 l 294 873 l 281 876 l 278 876 m 39 871 l 39 865 l 45 865 q 39 871 45 871 m 31 844 l 31 838 l 34 838 l 34 844 l 31 844 m 292 803 l 292 798 l 294 798 l 294 803 l 292 803 m 286 760 q 302 708 296 708 l 302 713 l 292 762 l 286 760 m 159 632 l 161 632 q 164 629 164 632 l 170 632 l 180 632 q 210 537 192 632 l 208 537 q 170 540 184 540 l 156 540 q 151 545 151 540 l 151 559 q 153 570 151 565 l 151 575 q 153 578 151 578 l 151 597 l 151 624 q 159 632 151 628 m 251 545 l 251 540 q 256 515 251 536 l 259 515 l 259 521 q 254 545 259 525 l 251 545 m 305 285 l 340 285 q 346 290 346 285 q 338 293 340 293 l 332 290 q 321 293 328 293 q 305 285 305 290 m 58 241 l 58 236 l 72 233 l 83 233 q 88 239 88 233 q 66 244 84 239 q 58 241 61 241 m 319 239 q 349 231 349 236 l 349 203 l 346 198 q 349 195 349 198 q 324 190 343 193 q 308 231 308 221 l 308 236 q 319 239 319 236 m 205 222 l 205 212 l 208 212 l 208 222 l 205 222 m 254 201 l 254 195 l 267 198 l 267 201 l 254 201 m 330 184 l 343 184 l 343 176 q 340 174 343 174 q 343 165 343 168 q 335 149 340 149 q 324 182 324 167 l 330 184 m 113 163 l 113 160 l 123 160 l 123 163 q 118 168 123 168 q 113 163 113 168 m 292 149 l 292 144 l 297 144 q 302 149 302 144 l 292 149 m 134 144 l 115 144 l 115 138 q 159 133 151 133 q 202 141 186 141 l 202 144 l 156 144 q 145 146 150 144 q 134 144 140 144 m 210 130 l 216 127 q 235 141 227 127 l 248 141 q 251 138 251 141 q 262 141 256 141 l 262 144 q 224 146 241 144 q 210 130 210 142 m 264 146 l 264 144 l 273 144 l 273 146 l 264 146 m 251 133 l 251 127 l 278 127 l 278 130 l 251 133 m 300 130 l 300 127 l 311 127 l 311 130 l 300 130 m 88 117 l 88 111 l 96 111 q 123 100 123 107 l 123 95 l 137 95 q 183 109 137 109 l 202 109 q 208 114 208 109 l 202 117 l 191 117 q 170 119 180 117 l 156 117 l 132 119 q 107 117 117 117 q 99 119 102 119 q 88 117 94 117 m 213 114 l 213 111 l 243 111 l 243 114 q 235 117 240 114 q 213 114 220 114 m 72 100 l 72 98 l 88 98 q 91 90 88 95 q 99 92 96 92 q 80 103 99 97 q 72 100 75 100 m 186 95 l 186 92 l 191 84 q 183 79 191 79 q 156 81 180 79 l 151 73 l 189 73 q 197 57 194 73 q 191 52 191 56 l 205 49 l 205 52 q 202 62 202 56 l 202 73 l 218 73 l 218 79 q 189 95 201 79 l 186 95 m 232 81 l 232 79 q 254 76 239 79 l 254 81 l 232 81 m 213 54 l 218 54 q 232 57 227 54 q 256 54 247 54 q 273 62 271 54 l 267 62 q 213 54 213 62 m 153 57 l 153 54 l 170 54 l 170 60 l 167 60 l 153 57 m 110 43 l 110 41 l 156 41 l 156 43 q 118 46 122 46 q 110 43 113 43 m 218 19 q 229 16 223 16 l 254 16 l 254 11 q 213 3 229 3 l 191 3 q 180 0 185 3 q 140 8 174 3 l 140 14 l 142 14 q 164 16 149 14 q 172 14 167 16 q 218 19 213 17 z "},"4":{"ha":453,"x_min":20,"x_max":433,"o":"m 316 1164 l 327 1164 q 332 1158 332 1163 l 332 1126 q 330 1123 332 1123 l 332 1118 l 332 1093 l 330 1093 q 302 1153 322 1097 l 316 1164 m 267 1161 l 273 1161 q 327 1066 287 1161 l 332 1061 l 330 1042 l 330 939 q 305 925 329 933 l 302 920 l 305 920 q 327 922 320 922 q 332 865 332 908 l 332 792 q 327 779 332 779 q 332 765 332 770 q 330 746 332 757 q 332 711 332 728 q 330 675 332 699 q 332 667 332 670 l 330 662 q 370 591 330 614 l 370 586 q 332 521 332 555 q 340 480 335 487 l 354 483 l 357 483 l 357 480 l 354 475 l 370 475 q 378 483 370 479 l 397 480 l 425 480 q 433 456 431 480 l 430 456 l 433 450 l 427 439 q 365 456 406 450 q 433 431 365 448 l 433 399 q 427 393 433 393 l 406 393 q 335 380 335 393 l 335 361 q 327 298 335 298 q 302 293 302 298 l 308 293 q 316 296 311 293 q 338 271 338 296 q 370 247 342 257 l 403 250 l 406 244 l 406 155 q 408 130 406 145 q 406 111 406 127 q 384 117 389 117 l 384 114 l 408 100 l 408 81 q 403 76 408 76 q 400 90 400 81 l 397 90 q 373 73 385 73 q 408 62 373 66 l 408 38 q 403 33 408 33 l 400 38 q 403 41 403 38 l 395 46 l 384 46 l 376 41 l 378 27 l 378 24 q 349 11 378 18 l 346 11 q 340 24 340 11 l 319 24 q 297 35 307 35 q 264 22 279 22 l 232 22 q 189 30 189 22 l 189 60 l 191 65 l 218 62 l 224 62 q 248 65 233 62 q 259 62 253 62 l 259 68 l 264 68 q 267 65 267 68 q 278 68 272 68 q 270 76 278 72 l 256 76 l 256 81 l 254 81 q 248 71 254 71 l 245 71 q 224 76 243 71 l 216 76 q 194 71 197 71 q 189 76 189 71 l 189 79 l 191 79 l 197 76 l 197 79 l 191 87 l 191 90 q 213 92 202 92 l 213 95 q 186 106 186 97 l 186 133 q 189 136 186 136 l 186 141 l 186 241 q 221 255 186 245 q 256 288 235 260 q 267 293 267 288 l 267 296 q 254 301 254 296 l 254 347 l 256 353 q 332 336 269 347 q 262 361 326 343 q 254 372 262 365 l 254 391 l 262 391 l 262 396 q 205 391 245 396 l 199 393 q 189 391 195 391 l 183 391 q 180 393 180 391 l 175 391 l 164 391 q 151 393 155 391 l 134 391 l 123 391 q 121 393 121 391 l 115 391 l 91 391 l 75 393 q 66 391 69 391 l 61 393 l 50 391 q 23 415 23 391 l 23 423 q 28 464 26 461 q 23 469 23 464 l 23 475 q 26 477 23 477 l 23 483 q 50 507 23 507 q 85 513 75 513 l 99 513 q 104 507 104 512 l 104 499 l 99 491 l 99 486 q 113 477 99 481 q 137 480 127 480 l 151 480 q 153 477 153 480 l 159 480 q 194 477 176 480 q 256 491 256 477 q 259 496 256 496 q 248 556 254 510 q 213 586 213 583 l 213 589 q 254 640 248 610 l 256 654 l 256 689 l 259 705 q 256 722 256 709 q 259 730 256 724 l 256 746 l 256 754 l 259 754 l 267 749 l 267 754 q 256 765 261 754 l 256 811 q 254 906 256 842 l 248 909 l 245 909 q 205 798 210 798 q 202 817 205 806 q 197 811 197 816 q 205 789 205 798 q 183 727 194 768 l 180 727 q 170 746 174 727 l 167 746 l 167 738 q 175 708 175 717 q 153 632 153 653 q 175 591 157 609 l 175 589 q 142 570 172 581 q 132 572 138 572 l 129 572 l 129 570 l 134 570 l 134 564 q 107 545 123 545 l 107 540 l 113 540 q 104 518 113 532 l 91 521 l 80 521 q 31 513 58 521 l 28 518 q 37 556 37 532 l 34 570 q 37 572 37 570 q 20 594 31 572 l 20 597 q 47 608 20 602 q 69 629 49 608 l 75 627 l 77 627 l 77 629 q 69 635 69 629 l 129 781 q 172 784 144 781 l 172 789 l 167 789 q 134 800 134 789 l 172 901 q 208 1001 198 1001 q 235 955 226 962 l 235 960 q 210 1012 229 974 q 262 1158 235 1091 l 267 1161 m 251 917 l 251 911 l 256 911 q 251 917 256 917 m 305 841 l 305 838 l 311 838 l 311 841 l 305 841 m 289 836 l 289 830 q 297 817 292 817 l 297 819 q 292 836 292 828 l 289 836 m 313 779 l 313 768 l 319 768 l 319 773 q 313 779 319 779 m 118 711 l 115 692 l 115 689 l 118 689 q 121 705 118 691 l 121 711 l 118 711 m 104 635 q 115 608 115 609 l 121 608 l 121 610 q 107 635 111 635 l 104 635 m 264 597 l 264 586 l 267 586 l 267 597 l 264 597 m 297 575 l 297 572 q 327 567 316 567 l 332 567 l 332 570 q 300 575 305 575 l 297 575 m 270 529 l 308 529 l 308 534 l 275 534 q 270 529 270 534 m 159 464 l 159 461 l 172 458 l 175 458 l 175 464 l 159 464 m 115 450 l 115 445 q 137 456 137 450 l 134 456 l 115 450 m 218 450 l 218 445 q 240 456 240 452 l 237 456 l 218 450 m 91 453 l 91 450 l 107 437 l 107 439 q 91 453 107 443 m 297 410 l 297 401 l 300 401 l 300 410 l 297 410 m 346 410 l 346 407 l 351 407 l 351 410 l 346 410 m 278 396 l 278 393 q 311 391 302 393 l 313 396 l 278 396 m 275 369 l 275 366 l 283 366 l 283 369 l 275 369 m 278 296 q 283 290 279 290 l 289 290 l 289 296 l 278 296 m 283 228 l 283 225 q 321 193 283 223 l 324 193 l 324 195 q 286 228 317 208 l 283 228 m 349 193 l 349 190 l 365 190 l 365 193 l 349 193 m 286 165 l 286 160 l 292 160 l 292 165 l 286 165 m 289 152 l 289 149 q 297 144 289 144 q 305 146 302 146 q 300 152 305 152 l 289 152 m 273 130 l 262 133 q 254 130 256 130 l 254 127 q 267 119 258 127 l 281 122 q 283 119 281 119 q 292 127 283 123 q 300 125 300 127 q 340 136 340 130 l 340 138 l 327 136 l 302 136 q 292 138 296 136 l 273 130 m 359 136 q 365 130 360 130 l 368 130 l 368 136 l 359 136 m 378 136 l 378 130 l 389 130 q 384 136 389 136 l 378 136 m 191 133 l 191 127 l 199 127 q 194 133 199 133 l 191 133 m 227 130 l 227 127 l 245 127 l 245 130 l 227 130 m 262 100 l 262 95 q 264 98 264 95 l 292 95 l 297 95 q 281 103 297 100 q 262 100 270 100 m 305 103 l 305 100 l 311 100 l 311 103 l 305 103 m 351 73 q 302 65 302 73 l 302 62 q 313 60 309 62 q 370 68 335 65 l 370 73 q 362 81 370 77 l 351 73 m 199 52 l 199 49 l 205 49 l 205 52 l 199 52 m 259 41 q 251 43 254 43 q 232 35 232 41 l 235 35 q 305 43 256 35 l 305 46 l 294 49 q 259 41 279 49 m 308 46 l 308 43 l 313 43 l 313 46 l 308 46 m 210 41 l 210 35 l 216 35 q 210 41 216 41 m 392 27 l 395 27 q 397 24 397 27 l 403 27 l 408 27 l 408 24 q 400 16 408 20 l 389 16 q 384 22 384 16 l 392 27 m 191 8 l 229 8 l 229 3 q 199 0 205 0 q 191 3 194 3 l 191 8 m 400 8 l 403 8 l 403 3 l 395 3 q 400 8 395 8 z "},"5":{"ha":410,"x_min":20,"x_max":389,"o":"m 302 1158 q 313 1153 313 1156 l 319 1156 l 343 1156 l 351 1150 q 349 1077 349 1100 l 349 1001 q 283 987 349 996 q 278 985 283 985 q 224 987 248 987 l 213 987 q 172 996 203 996 q 113 985 132 985 l 85 985 q 64 971 85 981 q 47 960 64 969 l 45 960 q 39 966 39 960 q 42 1012 42 998 l 47 1012 q 53 1004 47 1004 q 45 1036 45 1035 l 45 1063 q 53 1069 45 1069 q 47 1085 53 1074 q 58 1156 52 1156 q 110 1120 73 1156 q 172 1150 157 1150 q 186 1109 178 1143 l 189 1109 l 189 1112 q 183 1153 183 1147 q 191 1156 186 1153 q 194 1153 194 1156 l 208 1156 l 281 1156 l 281 1145 l 283 1145 q 302 1158 283 1158 m 213 1147 l 213 1145 l 218 1145 l 218 1147 l 213 1147 m 313 1145 q 311 1131 313 1136 l 316 1131 q 319 1145 316 1140 l 313 1145 m 240 1131 l 245 1131 l 245 1137 q 240 1131 240 1136 m 319 1120 l 324 1120 l 324 1126 q 319 1120 319 1125 m 180 1090 l 175 1093 l 175 1090 l 180 1082 q 178 1074 178 1077 l 180 1074 q 264 1093 210 1093 l 264 1096 q 224 1099 241 1096 l 180 1090 m 319 1099 l 316 1080 l 316 1063 l 321 1063 l 321 1080 q 324 1090 321 1086 q 321 1099 321 1096 l 319 1099 m 140 1080 l 140 1077 l 153 1077 l 153 1082 q 140 1080 149 1080 m 77 1055 l 77 1053 l 91 1053 l 91 1055 l 77 1055 m 197 1055 l 197 1044 l 199 1044 l 199 1055 l 197 1055 m 270 1047 q 305 1034 270 1040 l 311 1034 l 311 1036 l 270 1047 m 321 1042 l 321 1039 q 324 1031 324 1034 l 330 1031 l 330 1034 q 327 1042 327 1039 l 321 1042 m 66 1034 l 66 1028 q 77 998 66 1023 l 80 998 l 80 1004 q 69 1034 80 1008 l 66 1034 m 346 982 q 349 974 349 977 q 346 911 346 924 q 332 906 337 906 l 332 909 q 335 920 335 913 l 335 930 l 332 930 q 330 909 332 928 l 313 909 q 302 906 307 909 q 289 909 298 909 q 267 906 282 909 l 251 909 l 245 906 q 237 909 240 909 q 235 906 237 906 q 232 917 232 911 l 229 917 q 191 903 229 907 l 191 906 l 186 903 l 178 903 q 118 868 118 900 l 115 868 q 118 860 115 865 q 115 819 115 833 l 110 819 q 64 914 86 884 l 64 911 q 113 803 75 880 l 110 787 l 113 781 q 110 757 110 766 l 110 749 q 115 743 111 743 l 123 743 q 129 751 123 751 l 137 751 q 167 684 146 704 l 170 684 q 134 757 146 747 q 227 789 170 789 q 259 741 259 789 l 264 741 q 259 776 264 764 l 264 779 q 300 749 298 755 l 300 746 l 294 746 l 294 743 q 338 681 319 743 q 311 673 319 673 l 311 665 l 313 665 l 321 670 l 324 670 q 330 665 330 669 l 305 643 q 294 627 294 643 q 297 624 297 627 q 311 637 300 624 q 330 654 319 637 l 340 659 q 357 464 348 634 q 373 431 357 459 l 373 429 q 365 423 365 429 l 370 423 l 384 426 l 389 418 l 389 412 q 351 366 371 397 l 354 347 l 354 328 q 351 317 354 322 q 354 315 351 315 l 351 301 l 351 296 l 354 279 q 340 255 352 264 q 354 247 354 252 q 340 184 354 184 q 300 231 300 201 q 289 255 297 231 l 286 255 l 286 250 q 321 184 305 184 q 349 171 327 184 q 332 133 346 142 q 340 125 336 133 q 321 95 336 95 l 321 92 l 327 84 q 316 71 320 71 q 305 73 311 73 l 305 65 l 313 65 l 313 60 q 308 54 313 54 l 270 54 q 259 52 264 54 q 232 57 247 57 l 232 52 l 251 49 l 262 49 q 275 24 262 45 l 278 19 q 245 0 278 9 q 202 3 230 0 l 183 0 q 132 3 157 3 q 88 33 111 3 l 88 35 l 91 35 q 94 33 94 35 q 115 43 115 37 q 99 52 109 43 l 72 52 q 61 62 68 52 q 91 71 61 68 l 96 79 q 88 81 91 81 l 75 79 l 72 84 l 58 81 l 56 81 q 45 100 45 86 l 58 100 l 58 103 q 34 125 34 103 l 31 138 q 39 141 37 141 l 39 144 q 23 187 23 155 l 26 206 q 23 225 23 217 l 28 228 l 28 225 q 42 231 42 228 q 85 220 85 226 l 80 206 l 85 206 q 104 233 85 220 l 104 239 q 96 241 96 239 q 56 233 83 233 l 31 233 l 26 231 l 23 236 l 23 271 q 20 285 23 280 l 23 301 l 23 336 l 20 350 q 39 355 26 355 l 39 358 q 20 369 20 358 l 23 388 l 23 442 q 42 453 28 453 l 47 453 q 88 388 69 453 q 96 374 90 388 l 96 363 l 91 355 q 102 309 99 355 q 118 263 109 279 q 107 260 109 260 l 107 258 q 199 233 192 233 l 199 239 q 183 241 197 239 l 183 247 l 191 247 q 267 296 250 247 l 267 307 l 294 301 l 294 304 q 270 320 270 317 l 270 323 q 273 342 270 331 q 229 412 273 393 q 227 415 227 412 l 227 418 q 273 491 273 452 q 270 502 270 496 l 289 510 q 305 480 302 480 l 305 483 q 294 515 294 514 q 300 521 300 515 l 300 532 l 289 532 l 270 518 l 267 518 q 235 575 256 575 q 210 589 210 580 l 202 583 l 189 583 q 178 586 182 583 q 170 583 172 583 l 170 586 q 107 559 130 586 l 102 559 q 107 553 102 553 q 96 537 102 537 l 80 537 q 66 534 71 537 l 50 537 l 34 537 q 20 567 27 537 q 23 591 20 576 q 20 605 20 596 q 58 613 31 613 l 58 616 q 53 621 58 621 l 42 621 l 23 616 q 20 618 23 618 l 26 681 l 23 686 q 31 800 28 686 l 34 800 q 31 803 34 803 q 42 863 38 859 q 37 868 37 863 l 37 925 q 85 947 37 947 q 316 979 147 947 q 346 982 340 982 m 64 836 l 64 827 l 69 825 l 69 827 q 66 836 66 833 l 64 836 m 39 817 q 58 806 44 806 l 61 806 l 61 808 q 39 817 43 817 m 69 806 l 69 800 l 72 800 l 72 806 l 69 806 m 218 773 l 218 762 l 224 765 q 221 773 221 770 l 218 773 m 50 757 l 50 754 l 77 751 l 94 751 q 88 757 94 757 l 50 757 m 218 751 l 218 749 l 224 749 q 227 757 224 751 l 224 757 q 218 751 218 756 m 191 749 l 191 746 l 199 746 l 199 749 l 191 749 m 194 741 l 194 735 q 202 724 198 724 l 202 727 q 194 741 199 741 m 107 732 l 107 727 l 110 727 q 126 735 124 727 l 121 735 l 107 732 m 305 730 l 305 684 l 308 684 q 311 724 311 711 l 311 730 l 305 730 m 205 711 q 202 703 205 708 l 205 703 q 210 708 210 703 l 210 711 l 205 711 m 210 703 l 210 700 q 237 629 210 687 l 243 629 q 210 703 218 703 m 88 602 q 102 583 102 602 l 107 586 q 99 605 99 600 q 107 608 104 608 l 107 613 l 104 613 q 88 602 88 606 m 254 602 l 254 597 l 256 597 l 256 602 l 254 602 m 256 594 l 256 591 q 259 583 259 586 l 262 583 l 262 591 l 256 594 m 37 567 l 37 564 l 47 564 l 47 570 q 37 567 43 567 m 267 567 l 267 564 q 270 556 270 559 l 273 556 l 273 564 l 267 567 m 308 472 l 308 469 q 340 385 308 463 l 340 380 l 354 382 l 354 385 q 319 456 344 385 q 311 472 313 456 l 308 472 m 72 453 l 91 453 q 96 448 96 452 l 96 423 l 99 391 l 96 391 q 72 450 72 433 l 72 453 m 343 426 l 343 423 l 349 423 l 349 426 l 343 426 m 376 412 l 376 410 l 384 410 l 384 412 l 376 412 m 53 266 l 53 260 l 77 252 l 77 258 l 53 266 m 316 255 l 316 250 l 324 250 l 324 255 l 316 255 m 96 250 l 96 244 l 99 244 l 99 250 l 96 250 m 308 228 l 308 225 l 330 225 l 330 228 q 324 231 324 228 q 308 228 320 228 m 167 228 l 167 222 q 172 220 172 222 q 194 222 175 222 l 194 225 l 167 228 m 205 228 l 205 222 l 229 222 l 229 225 l 216 228 l 205 228 m 243 225 l 243 222 l 251 222 l 251 225 l 243 225 m 194 212 q 216 201 194 205 l 216 195 l 197 195 q 153 193 181 195 q 142 195 149 195 q 132 193 138 193 l 132 187 q 142 184 138 187 l 167 187 q 205 184 201 184 q 243 190 212 184 q 270 187 257 187 l 281 187 q 294 157 281 170 l 294 160 q 283 187 294 167 q 302 195 302 191 l 300 195 q 243 193 264 193 l 237 193 q 194 212 237 201 m 42 136 l 42 125 q 56 119 49 125 l 66 130 l 66 133 l 53 136 l 42 136 m 294 136 l 292 130 l 292 127 l 294 127 q 300 133 300 127 l 294 136 m 88 133 l 88 127 l 96 127 l 96 133 l 88 133 m 205 125 l 202 125 q 191 130 195 130 q 175 125 182 125 l 164 127 l 161 122 l 172 117 q 183 119 177 119 q 189 114 189 119 l 189 84 q 194 90 194 84 l 194 117 q 199 122 195 122 q 202 119 202 122 l 208 122 l 213 122 q 221 111 221 122 l 232 111 l 243 122 l 256 122 l 251 111 l 283 114 l 302 114 q 308 119 308 114 l 294 122 l 286 122 l 273 119 l 273 125 q 281 130 281 125 l 281 133 l 278 133 l 254 130 q 245 133 251 130 q 205 125 210 130 m 99 119 q 104 114 100 114 q 110 119 110 114 q 104 125 110 125 q 99 119 99 124 m 69 106 l 69 100 l 83 100 l 83 103 q 77 109 83 109 q 69 106 72 106 m 292 98 q 297 92 292 92 q 302 98 302 92 l 302 100 l 300 100 q 292 98 294 98 m 245 90 q 254 87 248 90 q 283 95 283 89 l 278 98 l 254 98 q 245 90 250 98 m 218 92 q 224 87 219 87 l 229 87 q 235 92 235 87 q 227 95 227 92 q 218 92 221 92 m 251 79 l 251 73 q 256 68 252 68 q 264 71 262 71 q 251 79 264 77 m 216 52 l 221 49 q 229 52 227 52 q 224 57 229 57 l 221 57 q 216 52 216 56 m 302 49 l 302 43 q 283 24 302 39 q 278 41 278 33 l 278 46 l 302 49 m 243 30 l 256 27 l 256 35 l 248 35 q 243 30 243 35 m 175 19 l 167 19 l 167 16 q 172 11 168 11 l 175 11 q 210 16 193 16 l 208 22 l 175 19 m 218 22 l 218 19 l 245 16 l 245 22 l 218 22 z "},"6":{"ha":410,"x_min":20,"x_max":389,"o":"m 213 1166 q 224 1164 218 1164 q 232 1166 227 1164 q 270 1153 270 1159 q 262 1126 262 1127 q 278 1118 278 1122 l 278 1093 q 275 1090 278 1090 l 278 1085 l 278 1082 q 251 1036 278 1073 q 237 1023 246 1023 l 237 1009 q 245 1004 245 1009 q 243 982 245 997 q 251 949 245 955 q 235 914 239 914 l 210 914 q 151 882 178 914 q 91 1012 133 909 l 88 1012 q 148 857 88 1005 q 137 817 142 817 l 140 811 l 140 798 q 137 795 140 795 l 140 789 l 140 787 q 137 784 140 784 q 140 781 137 781 l 137 770 q 140 697 140 716 q 137 689 140 694 q 140 686 137 686 q 137 678 140 684 q 140 648 140 660 l 140 643 l 145 643 q 251 692 182 692 l 262 686 l 259 681 l 259 627 l 262 627 l 264 659 l 264 681 q 270 686 265 686 q 362 605 338 659 q 389 499 376 571 q 387 461 387 476 q 389 458 387 458 l 387 445 l 387 301 q 384 298 387 298 l 387 293 l 387 288 l 384 288 l 365 298 l 362 298 q 387 279 363 294 q 376 187 385 187 q 338 182 348 182 l 300 184 q 281 176 281 182 l 281 171 l 286 171 q 308 176 289 171 q 378 168 329 168 q 381 160 381 163 q 365 114 370 121 l 370 111 q 354 84 360 85 q 332 90 349 84 l 283 81 q 262 90 281 81 q 251 87 257 87 l 248 87 l 248 117 l 245 136 l 243 136 q 229 127 243 127 l 229 122 q 240 117 240 122 l 240 92 q 235 87 240 87 q 227 95 235 91 l 205 95 l 208 81 l 213 84 l 224 84 l 243 71 q 240 68 243 68 q 243 46 243 58 q 251 76 248 46 l 256 76 q 311 68 311 76 q 305 33 309 33 l 300 30 q 159 68 240 30 q 123 79 129 79 l 123 84 l 142 81 l 151 81 q 191 90 167 81 l 191 92 l 186 92 q 107 95 177 92 l 88 92 q 61 201 61 159 l 64 201 l 61 206 l 61 241 q 75 266 61 266 q 91 263 77 266 q 107 269 102 269 l 107 271 q 99 274 99 271 l 80 271 l 61 271 q 58 279 61 274 l 61 307 q 58 309 61 309 l 61 323 l 61 336 q 58 345 61 345 l 61 358 l 61 439 q 64 450 61 446 q 61 461 61 455 q 64 491 61 473 q 61 521 61 506 q 75 524 66 524 l 75 526 q 53 543 57 526 q 20 581 53 557 q 58 632 58 615 q 56 640 58 635 q 61 665 58 665 l 58 678 l 58 757 q 61 795 58 772 l 58 800 q 61 803 58 803 l 58 817 l 58 819 q 61 841 58 831 q 58 863 58 852 q 61 865 58 865 l 56 879 q 58 895 56 881 q 56 922 58 899 q 58 930 56 925 l 56 941 q 123 1131 56 1062 l 129 1131 l 134 1128 q 153 1150 138 1150 l 189 1145 l 189 1150 q 167 1153 170 1153 l 167 1158 q 213 1166 199 1161 m 319 1126 q 378 958 378 1059 q 354 952 374 955 l 354 949 l 378 949 l 384 895 l 378 892 q 365 909 365 905 l 359 909 l 359 903 q 384 871 384 895 q 387 827 387 859 l 387 822 l 376 811 q 387 806 387 811 l 387 779 l 381 770 q 387 765 387 770 l 387 741 q 373 703 387 703 q 351 708 356 708 q 343 705 346 705 l 343 708 l 338 705 l 321 705 q 313 713 317 705 l 313 765 q 311 776 313 771 q 313 779 311 779 q 289 898 313 875 q 245 914 273 906 q 286 944 245 944 q 340 898 286 939 l 343 898 q 316 922 343 901 q 278 960 278 957 q 275 974 278 974 l 278 987 l 278 1017 l 289 1042 q 281 1044 286 1042 l 283 1072 q 281 1080 283 1074 q 311 1112 281 1088 q 319 1126 313 1126 m 175 1077 l 175 1074 q 180 1069 176 1069 l 180 1072 q 175 1077 180 1077 m 327 1069 q 324 1053 327 1057 q 327 1042 327 1048 l 330 1042 l 332 1055 l 332 1063 q 327 1069 332 1069 m 118 993 l 142 998 l 142 1001 l 134 1001 q 118 993 118 1000 m 330 960 l 332 960 q 351 971 351 967 l 349 971 q 330 960 330 968 m 305 960 l 305 958 l 313 958 q 324 960 318 960 l 324 963 l 316 963 q 305 960 311 960 m 64 925 l 64 922 q 75 898 69 898 l 75 909 q 64 925 67 925 m 123 800 l 123 798 l 134 798 l 134 800 l 123 800 m 69 716 q 75 711 70 711 l 75 716 l 69 716 m 183 662 l 183 659 q 191 637 191 641 l 194 637 l 194 640 q 183 662 189 662 m 197 618 l 197 610 q 213 572 205 572 l 213 578 q 199 618 213 591 l 197 618 m 224 589 l 224 581 q 240 532 224 568 l 243 532 l 243 540 q 224 589 229 589 m 104 567 l 104 562 l 107 562 l 107 567 l 104 567 m 88 556 l 88 551 l 91 551 l 91 556 l 88 556 m 96 556 l 96 551 q 194 488 109 551 l 197 488 l 197 480 q 145 418 161 480 q 148 415 145 415 q 142 347 142 381 q 145 293 145 307 q 142 290 142 293 q 161 269 149 290 l 194 252 l 205 255 q 235 252 229 252 l 248 255 q 259 190 254 245 q 229 176 249 179 l 229 174 q 305 144 273 144 q 273 160 305 149 l 270 165 l 270 171 q 273 174 270 174 l 270 179 l 270 187 l 262 258 q 308 326 308 286 q 305 331 308 331 l 308 350 l 308 415 q 227 486 308 479 q 170 521 216 486 q 96 556 125 556 m 376 521 l 376 515 l 378 515 l 378 521 l 376 521 m 102 494 l 102 488 l 104 488 l 104 494 l 102 494 m 338 477 l 346 477 q 351 483 351 477 l 343 483 q 338 477 338 482 m 294 475 l 294 469 l 297 469 l 297 475 l 294 475 m 96 472 q 104 464 96 468 l 104 467 q 99 472 104 472 l 96 472 m 370 453 l 368 439 l 368 431 l 370 431 l 373 445 l 373 453 l 370 453 m 75 420 l 75 418 l 102 418 l 102 420 q 85 423 85 420 q 75 420 81 420 m 118 293 l 118 290 l 132 290 l 132 293 l 118 293 m 324 277 l 324 263 l 327 263 l 327 277 l 324 277 m 156 258 l 156 250 l 159 250 l 159 258 l 156 258 m 69 236 l 69 231 l 83 228 l 85 228 q 88 236 85 231 l 83 239 l 69 236 m 113 236 l 113 233 l 118 233 l 118 236 l 113 236 m 102 217 l 102 212 q 151 187 141 196 l 151 149 l 153 130 l 156 130 l 159 149 l 159 182 l 161 187 l 186 182 l 186 187 q 102 217 140 209 m 99 182 q 134 176 115 176 q 142 179 140 179 q 113 193 142 182 q 99 182 100 187 m 69 182 l 69 179 l 75 179 l 75 182 l 69 182 m 129 160 l 129 157 l 134 157 l 134 160 l 129 160 m 311 149 l 311 125 q 316 119 311 119 l 316 155 q 311 149 311 154 m 213 146 l 213 144 l 218 144 q 235 152 233 144 l 218 152 q 213 146 213 151 m 183 146 l 183 141 q 213 133 204 133 l 216 133 q 183 146 216 138 m 256 127 l 256 125 l 259 125 q 273 127 264 127 l 273 130 l 264 130 q 256 127 259 127 m 104 127 l 102 122 l 102 117 l 104 117 l 132 114 q 148 119 132 119 l 148 125 l 140 125 q 129 122 134 125 q 104 127 123 125 m 175 125 l 175 122 l 189 119 l 194 119 q 199 125 199 119 l 194 127 l 189 127 l 175 125 m 297 127 l 297 125 l 302 125 l 302 127 l 297 127 m 161 122 l 161 119 l 170 119 l 170 125 q 161 122 164 122 m 330 109 l 351 109 l 351 111 q 346 117 351 117 q 330 109 330 114 m 96 81 q 132 71 127 71 l 132 65 l 129 65 q 113 68 127 65 q 102 65 108 65 l 96 73 l 96 81 m 319 73 l 349 73 l 349 68 q 327 46 342 54 q 319 33 327 33 q 313 38 313 33 l 313 68 q 319 73 314 73 m 156 60 q 183 52 175 52 l 183 46 l 178 46 q 134 49 162 46 q 115 43 123 43 l 113 49 q 156 60 113 58 m 205 43 q 224 35 218 35 l 224 30 l 218 30 q 243 22 218 25 q 254 24 248 24 q 264 22 260 24 q 275 24 269 24 l 278 24 q 283 19 283 24 l 283 16 l 256 14 q 194 19 194 17 q 183 16 189 16 l 175 16 l 175 19 l 178 24 l 161 24 l 164 19 l 164 16 l 159 16 q 129 35 144 16 l 129 38 q 205 43 165 38 m 180 8 l 235 8 q 240 3 240 7 l 235 0 l 216 0 q 213 3 213 0 l 208 0 q 199 3 202 3 l 194 0 q 180 3 189 3 l 180 8 m 251 8 l 267 8 l 267 3 l 248 0 l 245 5 l 251 8 z "},"7":{"ha":382,"x_min":20,"x_max":362,"o":"m 292 1166 l 305 1164 q 316 1166 307 1164 q 346 1131 346 1166 q 359 1047 359 1084 q 357 1044 357 1047 q 335 1063 335 1044 l 335 1066 l 330 1066 l 330 1047 q 362 1036 338 1047 l 359 1023 l 359 1001 q 362 990 359 995 l 359 985 q 362 982 359 982 l 354 917 l 357 911 q 343 868 351 868 q 346 860 343 865 q 294 648 346 833 l 289 646 l 286 646 q 237 673 277 646 l 235 673 l 235 670 q 297 618 297 629 q 321 586 305 603 l 321 583 q 281 521 281 553 q 264 456 271 456 q 267 448 264 453 q 259 372 259 395 l 256 366 q 240 374 240 366 l 235 374 l 235 369 q 256 358 238 369 q 254 312 254 326 l 254 293 q 267 250 254 283 q 259 201 264 220 q 262 193 262 195 q 259 187 262 187 l 262 160 l 262 133 q 267 38 262 108 l 262 35 l 213 35 l 197 38 q 183 35 192 35 l 164 35 q 159 30 159 35 q 172 24 172 30 l 172 22 q 113 0 157 0 l 110 5 l 110 8 l 118 19 q 107 35 107 19 q 118 68 114 68 l 118 71 q 113 76 118 76 l 115 95 l 115 130 q 121 136 116 136 q 137 130 130 130 l 137 136 q 115 146 122 136 q 118 149 115 149 q 115 152 118 152 q 142 274 125 274 q 161 366 153 289 l 164 366 q 172 363 170 363 q 183 372 183 368 q 161 377 161 372 q 186 510 167 422 l 186 543 q 167 583 186 561 l 167 586 q 227 684 227 633 q 235 711 235 698 l 262 711 l 262 713 q 240 719 254 713 q 283 909 283 876 l 283 920 q 289 925 284 925 l 286 930 l 286 944 l 289 958 l 283 960 l 275 960 q 199 909 275 938 q 115 833 155 909 q 99 789 108 789 l 99 787 q 104 762 99 780 q 85 741 85 755 q 102 719 102 741 l 96 716 l 99 711 l 99 708 q 69 700 99 703 l 69 703 l 64 700 q 20 705 41 700 q 28 814 26 801 q 26 822 26 819 q 34 841 26 841 l 34 849 l 28 849 l 31 868 l 28 873 q 31 882 31 879 q 28 887 31 887 q 42 1099 28 893 q 39 1107 39 1104 q 45 1118 41 1118 q 42 1126 42 1123 q 47 1142 42 1131 q 64 1137 56 1137 l 75 1139 l 194 1101 l 197 1101 l 197 1104 q 47 1153 53 1153 l 47 1156 q 53 1161 48 1161 l 56 1161 q 96 1145 75 1161 l 102 1145 q 118 1153 113 1153 q 121 1150 118 1150 q 172 1164 121 1162 q 262 1137 194 1164 l 270 1137 q 283 1164 276 1137 q 292 1166 286 1164 m 281 1120 l 281 1118 q 297 1115 293 1118 l 297 1120 l 281 1120 m 202 1101 l 202 1099 q 210 1096 205 1099 l 213 1096 l 213 1099 q 205 1101 210 1099 l 202 1101 m 115 1099 l 113 1085 l 113 1074 q 118 1080 118 1074 l 118 1099 l 115 1099 m 327 1077 l 332 1074 q 349 1090 332 1076 l 343 1090 q 327 1077 327 1081 m 262 1080 l 262 1074 l 321 1053 l 321 1058 l 262 1080 m 110 1072 l 107 1066 l 113 1063 l 110 1050 l 110 1023 l 104 1015 l 104 1009 l 110 1009 q 115 1023 110 1016 l 115 1066 q 110 1072 115 1072 m 56 1009 l 56 1001 l 58 1001 l 58 1009 l 56 1009 m 107 998 l 107 996 q 113 990 108 990 l 113 993 q 107 998 113 998 m 107 985 l 107 939 l 110 939 q 113 985 110 953 l 107 985 m 153 977 l 153 974 l 161 974 l 161 977 l 153 977 m 104 930 l 104 925 q 110 930 110 925 l 104 930 m 104 922 l 104 909 l 107 909 l 107 922 l 104 922 m 75 895 l 75 868 l 77 868 l 80 884 q 77 895 77 889 l 75 895 m 102 879 q 107 873 102 873 l 110 879 l 102 879 m 286 879 l 286 860 l 289 860 l 289 879 l 286 879 m 91 814 l 91 798 l 96 795 l 96 798 l 94 814 l 91 814 m 267 732 l 267 727 q 273 732 273 727 l 267 732 m 227 540 l 213 540 l 208 543 l 208 537 q 218 534 214 537 q 251 556 231 534 l 256 556 l 254 562 l 227 540 m 245 483 l 245 480 l 251 480 l 251 483 l 245 483 m 197 437 l 197 434 l 218 434 l 218 437 l 205 439 q 197 437 199 437 m 251 426 q 243 412 251 421 l 245 412 q 254 415 251 415 l 254 426 l 251 426 m 175 361 l 175 353 q 186 301 175 342 l 189 301 l 189 304 q 178 361 189 309 l 175 361 m 175 236 l 175 233 q 186 214 175 219 l 194 214 q 199 220 199 214 l 199 228 q 189 239 199 232 l 175 236 m 153 201 l 151 195 l 164 193 l 213 193 l 227 195 l 227 198 q 218 201 224 198 l 202 198 q 153 201 176 201 m 151 179 l 151 176 l 156 176 l 156 179 l 151 179 m 216 171 l 216 168 l 229 165 l 237 165 l 237 168 l 218 171 l 216 171 m 140 133 l 140 127 l 180 117 q 140 133 180 121 m 191 114 l 191 111 l 199 111 l 199 114 l 191 114 m 197 87 l 197 84 q 202 79 197 79 q 218 87 216 79 l 218 90 l 210 90 l 197 87 m 232 87 l 232 84 l 237 84 l 237 87 l 232 87 m 210 62 l 210 57 q 232 52 218 57 l 237 52 l 237 54 q 210 62 232 54 m 115 49 l 115 46 l 121 46 l 121 49 l 115 49 m 140 41 l 140 30 l 142 30 l 142 41 l 140 41 m 134 24 l 129 16 l 134 14 l 151 14 q 156 19 156 14 q 134 24 139 24 m 205 24 q 248 22 220 24 l 254 24 q 273 14 273 20 q 264 0 269 0 l 259 0 l 240 3 l 240 5 l 243 11 q 205 22 206 11 l 205 24 z "},"8":{"ha":453,"x_min":20,"x_max":433,"o":"m 191 1161 l 213 1161 q 254 1139 254 1161 q 256 1131 256 1134 l 259 1131 l 259 1137 q 254 1153 254 1145 l 254 1156 q 349 1082 302 1147 l 368 1025 q 381 947 375 1006 l 381 928 l 384 914 q 362 884 372 904 q 346 890 351 890 l 343 890 l 343 887 q 387 863 387 875 q 416 768 387 784 q 430 760 430 766 l 430 754 q 387 675 387 730 q 346 597 368 597 q 330 575 346 593 l 330 572 q 381 505 354 551 q 408 396 395 396 q 433 377 415 396 q 392 317 392 354 l 392 282 q 387 209 392 235 q 389 206 387 206 q 373 149 389 149 q 346 146 360 149 l 346 144 q 381 138 374 144 q 349 73 367 73 l 351 68 l 351 62 q 267 3 321 14 q 248 0 252 3 q 245 3 245 0 l 232 0 q 221 3 226 0 q 218 0 218 3 q 126 46 176 0 q 96 100 96 78 l 113 109 l 129 106 l 129 111 q 121 114 121 111 l 88 109 q 72 165 73 134 l 75 165 q 85 163 79 163 l 113 163 q 123 160 119 163 l 194 168 q 205 165 200 168 q 235 168 223 168 l 256 168 l 256 174 l 251 174 q 189 176 225 174 l 175 174 l 170 176 q 140 171 145 173 l 123 174 l 115 174 q 69 171 101 174 q 64 193 64 181 q 56 358 64 310 q 61 363 61 358 q 26 399 44 363 l 26 401 q 69 505 54 401 q 77 507 75 507 q 72 513 77 513 q 121 586 72 534 q 102 675 111 586 l 96 678 l 96 673 q 102 637 96 665 q 91 635 97 635 l 91 632 q 107 602 107 632 l 102 602 q 69 670 69 641 l 72 670 l 72 673 q 56 724 58 673 q 20 765 43 748 l 20 768 q 56 819 56 794 l 56 884 q 53 933 56 907 q 61 1004 56 974 l 66 1004 l 66 1001 q 64 998 66 998 q 69 966 69 977 l 72 966 l 75 979 l 75 990 l 72 1004 l 75 1004 l 72 1009 l 72 1039 q 83 1061 72 1048 q 80 1069 80 1066 q 83 1072 83 1069 q 148 1055 148 1060 q 156 1012 148 1044 l 161 1012 l 161 1055 l 164 1061 q 237 1042 177 1055 q 283 993 277 994 l 286 993 q 245 1047 270 1017 l 259 1061 l 251 1061 l 240 1053 q 235 1061 235 1053 l 229 1058 q 197 1069 197 1063 q 189 1066 194 1069 q 153 1093 153 1066 q 148 1112 148 1107 l 145 1112 l 145 1088 l 148 1074 l 142 1072 q 88 1082 96 1080 q 153 1147 113 1129 l 164 1139 l 164 1145 l 159 1145 l 159 1153 q 178 1158 170 1153 q 186 1156 183 1156 q 191 1161 186 1161 m 281 1126 l 278 1107 l 278 1104 q 286 1126 283 1104 l 281 1126 m 267 1107 l 267 1101 l 273 1101 l 273 1107 l 267 1107 m 327 1036 l 327 1034 q 362 1028 335 1034 q 335 1036 362 1034 l 327 1036 m 197 1009 l 199 1004 q 197 1001 199 1001 q 208 947 197 987 q 205 944 205 947 l 129 971 l 123 971 q 208 930 128 963 l 208 914 q 178 903 208 910 q 134 830 134 873 q 175 770 134 788 l 178 765 q 134 692 134 726 q 170 637 146 637 q 221 621 186 621 q 227 600 221 617 l 229 600 l 229 621 l 286 635 l 289 635 l 286 640 q 308 697 308 666 l 308 713 q 264 765 308 732 q 300 798 300 792 q 308 822 308 815 q 278 898 308 876 l 278 906 l 281 911 q 327 892 292 903 l 332 892 l 332 895 q 273 930 273 914 l 262 925 q 213 960 213 936 l 202 1017 q 197 1009 197 1017 m 305 1004 q 340 903 305 999 l 346 903 q 311 1004 327 967 l 305 1004 m 69 960 l 69 887 q 66 884 69 884 q 72 865 72 871 l 69 865 l 72 860 l 72 857 l 69 852 l 64 854 l 58 854 l 72 844 l 72 814 l 77 814 l 77 879 q 72 960 77 918 l 69 960 m 256 958 l 256 955 l 264 955 l 264 958 l 256 958 m 218 930 q 262 917 241 920 q 267 922 262 922 q 273 917 273 922 l 273 906 l 270 901 q 251 909 251 906 q 248 906 248 909 q 213 914 218 909 q 218 930 215 930 m 381 901 l 384 901 l 384 879 l 376 879 q 370 884 370 879 l 370 887 q 381 901 378 901 m 104 879 l 104 876 l 115 873 q 107 879 115 879 l 104 879 m 123 857 q 129 852 124 852 q 134 865 129 857 l 132 865 q 123 857 127 865 m 365 841 l 365 836 l 368 836 l 368 841 l 365 841 m 94 819 l 94 814 l 113 814 l 113 817 l 94 819 m 102 806 l 102 798 l 104 798 l 104 806 l 102 806 m 300 787 l 302 787 l 313 800 l 313 806 q 300 787 309 806 m 80 684 l 80 681 l 107 703 l 107 708 q 80 684 81 688 m 267 613 q 262 608 267 608 l 262 600 l 264 600 q 270 610 264 604 l 270 613 l 267 613 m 311 605 l 311 602 l 313 589 l 316 589 l 316 597 q 313 605 313 602 l 311 605 m 254 594 q 248 581 254 589 l 251 581 q 259 591 255 581 l 254 594 m 194 589 q 213 537 194 583 q 191 529 191 534 q 183 532 189 529 q 153 529 165 529 l 142 529 q 137 524 137 528 l 159 524 l 172 526 l 172 524 q 137 475 147 498 q 113 488 116 486 l 110 488 q 137 467 110 486 l 137 453 q 172 391 137 413 l 172 388 q 153 372 172 383 l 148 374 q 134 326 134 348 q 235 250 134 250 q 270 258 251 250 q 275 241 275 249 l 281 241 l 278 247 l 278 263 q 313 331 313 291 q 297 372 313 340 l 300 372 l 313 366 l 313 369 q 273 396 273 393 l 273 399 q 313 461 298 399 q 221 537 313 526 l 199 589 l 194 589 m 229 556 l 229 553 l 243 553 q 237 559 243 559 q 229 556 232 556 m 278 548 l 278 545 q 281 537 281 540 l 283 537 l 283 540 q 281 548 281 545 l 278 548 m 340 507 q 327 464 330 478 q 343 505 333 464 l 343 507 l 340 507 m 94 499 l 94 494 q 104 488 98 494 l 104 494 q 94 499 100 494 m 83 483 q 64 456 83 479 l 64 453 q 85 480 71 456 l 85 483 l 83 483 m 359 456 l 357 431 l 357 429 l 359 429 l 362 445 l 362 456 l 359 456 m 384 418 l 384 404 l 387 404 l 387 418 l 384 418 m 66 401 l 66 396 l 77 396 l 77 401 l 66 401 m 148 382 l 148 380 l 156 380 l 156 382 l 148 382 m 389 380 l 389 377 l 395 377 l 395 380 l 389 380 m 132 374 l 132 369 l 134 369 q 140 374 140 369 l 132 374 m 387 372 q 381 353 381 355 l 387 353 q 389 369 387 355 l 389 372 l 387 372 m 335 355 l 335 350 l 378 328 l 378 331 l 338 355 l 335 355 m 316 317 l 316 315 l 321 315 l 321 317 l 316 317 m 94 263 l 94 260 q 104 250 94 256 l 104 252 q 99 263 99 259 l 94 263 m 335 239 l 335 233 l 343 233 q 338 239 343 239 l 335 239 m 305 203 l 305 198 l 308 198 l 308 203 l 305 203 m 151 201 l 151 184 q 156 190 156 184 q 153 201 153 195 l 151 201 m 153 182 l 153 176 l 156 176 l 156 182 l 153 182 m 229 155 q 235 149 230 149 l 251 149 l 251 152 q 229 155 249 152 m 270 152 q 283 144 270 146 l 283 149 l 270 152 m 96 144 l 96 141 l 107 141 l 107 144 l 96 144 m 216 122 l 216 119 l 221 119 l 221 122 l 216 122 m 172 111 q 161 114 168 114 l 140 114 q 134 109 134 113 l 134 106 l 161 106 q 164 103 164 106 l 170 106 l 175 106 l 186 98 q 189 106 186 106 q 305 109 293 109 l 305 114 l 292 117 q 278 111 278 116 l 264 114 l 218 114 q 213 119 213 114 q 172 111 205 115 m 324 119 l 324 109 q 330 87 330 92 l 332 87 l 332 92 q 327 119 327 113 l 324 119 m 262 95 l 259 90 l 267 90 q 262 95 267 95 m 330 84 l 332 79 l 327 71 l 338 65 q 340 73 338 68 q 335 84 335 73 l 330 84 m 302 73 q 308 68 303 68 l 319 68 l 319 73 q 313 76 313 73 q 302 73 309 73 m 251 71 l 251 68 l 300 68 l 300 73 l 264 73 l 251 71 m 338 60 l 338 54 l 340 54 l 340 60 l 338 60 m 202 30 l 202 22 l 218 19 l 218 16 l 216 11 l 218 11 q 235 24 235 20 q 210 33 235 29 q 202 30 205 30 m 183 24 l 183 19 q 189 24 189 19 l 183 24 m 240 16 q 245 11 241 11 l 256 11 l 256 16 q 251 19 251 16 q 240 16 246 16 m 199 16 l 199 14 q 205 8 200 8 l 208 8 q 213 14 213 8 l 208 16 l 199 16 m 259 11 l 259 8 l 273 8 l 273 11 l 259 11 z "},"9":{"ha":418,"x_min":20,"x_max":397,"o":"m 172 1166 q 305 1104 273 1166 q 327 1069 309 1104 l 327 1055 q 202 1036 213 1036 l 202 1031 q 229 993 222 1031 l 235 993 q 270 1042 253 1042 l 330 1053 q 343 1006 338 1042 q 340 1004 340 1006 q 359 833 352 1004 l 357 822 q 359 811 359 817 q 357 789 359 804 q 359 743 359 768 q 354 722 359 732 q 332 727 344 727 q 357 711 357 714 l 357 651 l 359 651 l 359 635 q 351 621 351 635 q 354 613 354 616 l 357 613 l 357 627 l 362 627 q 397 589 362 614 q 357 534 365 565 l 359 515 l 359 456 q 354 434 354 437 l 359 434 l 359 374 q 354 369 359 369 l 351 369 q 335 391 351 374 l 338 396 l 338 401 l 335 401 l 335 393 l 332 393 q 316 412 316 404 l 311 412 q 359 350 359 358 l 359 296 l 357 279 l 359 274 l 357 258 l 359 244 l 357 244 q 359 241 357 241 l 357 228 l 357 220 q 346 149 357 149 l 327 152 l 313 149 l 313 141 q 319 138 319 141 q 340 144 329 144 l 343 144 q 349 136 349 144 q 338 109 347 109 l 340 103 q 332 95 340 99 l 324 95 q 259 127 278 121 q 281 111 259 125 q 278 103 278 106 l 289 103 l 289 109 l 292 109 q 311 95 311 99 l 311 92 l 308 92 q 245 95 295 92 l 232 92 l 229 98 q 240 109 233 98 l 237 109 q 216 90 220 100 l 216 87 q 251 81 222 87 l 251 76 l 170 76 l 170 71 q 235 68 172 71 l 267 81 q 319 84 293 84 l 330 84 l 330 81 q 297 38 317 52 l 254 38 l 254 33 l 278 33 q 286 24 282 33 q 237 3 249 12 l 224 3 l 205 5 q 199 0 205 0 l 197 0 q 164 8 174 0 q 159 3 159 7 q 132 14 135 14 l 132 19 l 137 19 l 134 24 l 137 30 l 137 35 l 134 35 q 129 24 134 24 l 123 24 l 123 27 l 126 33 q 94 49 94 33 q 72 73 82 53 l 72 79 l 96 79 l 96 95 l 85 84 l 69 84 q 28 212 36 134 l 31 212 q 26 247 26 224 l 26 255 q 28 258 26 258 l 26 263 l 26 279 q 28 293 26 288 l 26 309 l 26 355 q 31 361 26 361 q 107 285 31 357 l 107 288 l 26 369 q 28 391 26 372 l 26 407 q 34 467 29 463 l 61 464 l 96 464 q 102 458 102 463 l 102 439 q 104 393 102 425 l 99 391 l 85 391 l 85 385 l 104 385 l 104 366 q 102 363 104 363 l 104 358 q 102 355 104 355 l 107 336 l 104 331 q 118 282 107 313 l 110 288 l 110 285 q 191 206 116 275 l 191 212 q 170 233 185 212 l 170 236 l 197 236 l 197 241 l 167 241 q 140 263 154 241 l 142 263 q 213 252 167 255 q 273 315 273 274 l 278 382 l 275 388 q 278 391 275 391 l 275 404 l 275 412 l 281 420 q 275 426 281 426 q 278 439 278 431 l 281 439 l 297 426 l 297 429 l 278 450 l 278 513 q 273 518 278 518 l 270 518 l 243 496 l 232 496 q 210 521 232 503 l 208 521 q 232 496 225 496 q 197 483 232 488 l 164 483 q 121 502 121 486 l 121 513 q 115 507 115 512 q 118 499 118 502 l 113 496 q 85 524 85 507 q 94 526 91 526 l 94 532 l 80 521 q 28 624 41 559 q 23 665 23 650 l 23 684 q 26 735 23 705 q 23 743 23 741 q 26 746 23 746 l 23 760 l 23 822 q 28 827 24 827 q 64 814 57 814 l 66 814 l 66 817 q 23 836 23 830 l 23 854 q 26 863 23 863 l 23 876 l 23 890 q 20 928 23 911 q 39 1006 24 1006 l 45 1006 l 45 1012 l 39 1009 l 37 1009 q 31 1017 31 1009 q 39 1053 39 1033 l 45 1053 l 45 1047 l 50 1047 q 45 1063 50 1052 q 77 1118 51 1084 l 80 1118 l 80 1112 l 83 1112 q 99 1139 83 1133 q 159 1164 131 1164 q 164 1158 159 1158 q 172 1166 164 1162 m 164 1156 l 164 1150 l 167 1150 l 167 1156 l 164 1156 m 224 1139 l 224 1134 l 227 1134 l 227 1139 l 224 1139 m 235 1123 q 240 1118 235 1118 l 240 1123 l 235 1123 m 134 1107 l 132 1088 l 132 1050 q 129 1039 132 1044 q 132 1036 129 1036 l 129 1023 l 129 960 l 132 960 l 134 987 l 134 1023 q 137 1034 134 1029 q 134 1036 137 1036 l 137 1050 l 137 1107 l 134 1107 m 178 1093 l 178 1090 l 183 1090 l 183 1093 l 178 1093 m 104 1047 l 104 1044 l 118 1044 l 118 1050 q 104 1047 113 1047 m 64 1044 l 64 1042 l 69 1042 l 69 1044 l 64 1044 m 50 1012 l 50 1009 l 56 1009 l 56 1012 l 50 1012 m 178 993 l 178 987 l 180 987 l 180 993 l 178 993 m 172 979 q 178 974 173 974 l 180 974 q 175 979 180 979 l 172 979 m 243 971 l 243 968 l 251 944 l 256 944 l 256 947 q 245 971 245 964 l 243 971 m 69 966 l 69 958 l 72 958 l 72 966 l 69 966 m 283 958 l 283 955 q 297 952 292 955 l 297 958 l 283 958 m 66 955 l 66 928 l 69 928 q 72 955 69 945 l 66 955 m 153 955 l 153 949 l 159 949 l 159 955 l 153 955 m 302 955 l 302 952 l 308 952 l 308 955 l 302 955 m 159 947 l 159 939 l 164 939 l 164 941 q 159 947 164 947 m 262 928 l 262 925 q 275 890 262 923 l 278 890 l 278 895 q 264 928 264 922 l 262 928 m 107 806 l 110 795 l 107 789 q 142 692 107 712 q 189 684 178 684 q 267 727 238 684 q 273 781 273 759 q 270 784 273 784 l 275 841 q 259 887 273 865 l 270 887 q 186 914 233 914 q 126 887 131 901 q 107 806 107 869 m 289 868 l 289 865 l 292 865 q 311 871 305 871 l 311 873 l 302 873 q 289 868 294 868 m 319 863 l 319 860 l 327 860 l 327 863 l 319 863 m 294 854 l 294 852 l 305 822 l 308 822 l 308 827 l 297 854 l 294 854 m 56 806 q 50 749 53 795 l 50 741 l 53 741 l 58 803 l 58 806 l 56 806 m 289 803 l 289 800 l 294 800 l 294 803 l 289 803 m 316 798 q 343 749 338 750 l 343 751 q 319 798 322 798 l 316 798 m 39 711 l 39 708 q 61 684 39 701 l 61 686 q 39 711 45 710 m 273 705 q 316 689 273 698 l 319 689 l 319 692 q 273 705 278 705 m 121 678 l 121 673 l 126 673 q 121 678 126 678 m 121 667 q 118 654 121 654 q 121 629 121 652 l 123 629 l 123 667 l 121 667 m 275 656 l 273 640 l 278 640 l 278 656 l 275 656 m 286 643 q 302 635 289 635 q 286 643 302 640 m 121 627 l 121 618 l 123 618 l 123 627 l 121 627 m 275 616 l 275 610 l 278 610 l 278 616 l 275 616 m 351 608 l 351 602 l 357 602 q 351 608 357 608 m 118 600 l 118 570 l 121 570 q 123 600 121 581 l 118 600 m 151 583 q 197 532 151 582 l 197 534 q 153 583 197 542 l 151 583 m 53 575 l 53 572 l 96 572 l 110 575 l 110 578 l 72 578 l 53 575 m 351 570 l 351 562 l 354 562 l 354 570 l 351 570 m 91 564 l 85 543 l 85 540 l 88 540 q 94 562 94 557 l 94 564 l 91 564 m 302 553 l 302 551 l 308 551 l 308 553 l 302 553 m 202 529 l 202 524 l 208 524 q 202 529 208 529 m 321 477 q 316 472 321 472 l 316 467 l 321 467 q 327 477 321 471 l 321 477 m 83 437 q 77 410 80 416 l 83 410 l 85 434 l 85 437 l 83 437 m 28 412 l 28 410 l 45 410 l 45 412 l 28 412 m 72 388 l 72 385 l 77 385 l 77 388 l 72 388 m 319 366 l 319 350 l 321 350 l 321 366 l 319 366 m 308 347 l 308 342 l 311 342 l 311 347 l 308 347 m 289 309 l 292 309 q 308 331 294 309 l 308 334 q 289 309 289 322 m 346 296 l 346 290 l 349 290 l 349 296 l 346 296 m 340 282 l 286 220 l 289 220 q 343 282 338 266 l 340 282 m 264 266 l 262 255 l 262 252 l 264 252 l 267 263 l 267 266 l 264 266 m 47 241 q 66 228 47 238 l 66 231 q 47 241 66 236 m 205 241 l 205 239 l 213 239 l 213 241 l 205 241 m 110 233 q 91 225 110 225 l 91 228 l 85 225 l 75 225 l 75 231 l 69 231 q 85 203 85 219 l 88 203 l 99 212 q 102 209 99 209 q 115 233 102 219 l 110 233 m 343 225 l 343 201 l 346 201 q 349 225 346 215 l 343 225 m 237 214 q 221 198 237 198 q 197 206 216 198 l 197 203 q 229 174 205 184 l 229 176 q 224 182 224 176 q 243 214 233 194 l 237 214 m 283 201 l 283 195 l 286 195 q 313 193 310 193 l 316 198 q 283 201 298 198 m 132 195 l 132 193 l 159 179 l 159 182 q 132 195 159 186 m 343 193 l 343 174 l 346 174 l 346 193 l 343 193 m 77 184 l 75 179 l 83 179 q 77 184 83 184 m 47 179 l 47 176 l 53 176 l 53 179 l 47 179 m 180 168 q 186 163 181 163 l 186 168 l 180 168 m 202 157 l 202 155 l 210 155 l 210 160 q 202 157 205 157 m 251 146 q 256 141 252 141 l 273 141 l 300 138 l 300 146 l 251 146 m 56 136 l 56 130 q 61 136 61 130 l 56 136 m 102 133 l 102 130 l 107 130 l 107 133 l 102 133 m 61 122 l 61 119 l 66 119 l 66 122 l 61 122 m 178 109 l 175 103 l 175 98 l 178 98 q 180 109 178 104 l 178 109 m 123 106 l 123 100 q 129 106 129 100 l 123 106 m 142 90 l 142 87 l 153 87 l 153 95 q 142 90 146 90 m 191 90 l 191 87 l 202 84 l 205 90 l 191 90 m 159 87 l 159 84 l 172 84 l 172 87 l 159 87 m 113 84 l 113 79 l 132 79 l 132 84 l 113 84 m 156 65 l 156 60 l 159 60 l 159 65 l 156 65 m 286 60 l 286 54 l 294 54 l 294 60 l 286 60 m 107 54 l 104 49 l 107 49 q 115 52 113 52 l 115 54 l 107 54 m 148 52 l 148 49 q 159 43 152 49 l 167 43 q 178 54 171 43 l 172 54 l 148 52 m 191 54 l 191 52 q 199 49 199 52 q 202 52 202 49 l 216 49 l 218 49 l 218 54 l 191 54 m 172 30 l 178 30 l 178 35 q 172 30 172 35 m 175 27 l 175 24 q 180 19 176 19 q 189 22 186 22 l 189 27 l 175 27 z "}," ":{"ha":345,"x_min":0,"x_max":0,"o":""},"!":{"ha":279,"x_min":20,"x_max":263,"o":"m 107 665 l 107 666 q 75 728 107 711 q 61 739 62 734 l 61 745 q 102 796 102 766 q 104 818 102 815 l 102 837 l 104 865 q 56 917 100 917 l 31 917 l 26 920 q 20 1099 23 1038 q 23 1169 23 1115 q 37 1177 23 1175 q 137 1142 98 1177 l 140 1142 q 189 1166 145 1142 q 224 1175 220 1175 q 256 1164 256 1172 l 256 1134 q 254 1123 256 1128 q 256 1112 256 1118 l 254 1107 q 256 1099 256 1101 q 254 1090 256 1090 q 256 1069 256 1072 q 259 920 259 955 q 210 909 253 915 q 183 866 185 909 l 183 818 l 180 804 l 186 804 l 186 799 q 232 739 186 759 l 232 734 l 202 712 q 186 677 186 696 l 186 665 l 107 665 m 88 1093 l 88 1088 l 91 1088 l 91 1093 l 88 1093 m 232 947 l 232 941 l 237 941 l 237 947 l 232 947 m 80 745 l 80 739 q 88 736 83 739 l 91 750 q 80 745 84 745 m 190 694 l 190 692 l 184 692 l 187 679 l 187 631 q 214 588 189 588 q 263 577 257 582 q 260 428 263 542 q 258 406 260 425 q 260 398 260 406 q 258 390 260 395 l 260 385 q 258 374 260 378 q 260 363 260 369 l 260 333 q 228 322 260 325 q 193 330 224 322 q 144 355 149 355 l 141 355 q 41 319 102 319 q 27 328 27 321 q 24 398 27 382 q 30 577 27 458 l 35 580 l 60 580 q 109 631 104 580 l 106 660 l 109 679 q 106 694 106 681 l 190 694 m 95 404 l 95 409 l 92 409 l 92 404 l 95 404 m 241 550 l 241 555 l 236 555 l 236 550 l 241 550 m 142 309 q 161 285 157 298 l 164 285 l 164 282 l 161 277 q 197 250 172 277 q 221 244 221 248 l 227 247 l 229 247 q 232 244 232 247 l 237 247 l 240 247 q 248 187 248 247 l 245 187 l 248 182 q 240 174 248 178 q 88 168 215 174 l 85 163 l 91 160 q 202 163 161 163 l 205 163 l 205 157 l 210 157 l 210 163 l 227 163 q 232 146 227 146 q 235 149 232 149 l 232 163 l 232 165 l 243 165 q 248 160 248 165 q 237 157 243 157 l 237 155 q 248 125 248 155 l 243 125 q 235 138 243 138 q 232 136 235 136 q 248 100 240 109 l 248 57 q 243 52 248 52 l 218 54 l 216 49 q 235 43 227 49 q 245 46 239 46 q 251 41 251 45 l 251 30 q 243 22 251 28 l 210 24 l 191 24 q 186 19 186 24 l 186 16 q 224 11 215 11 l 243 11 q 248 5 248 10 l 240 0 l 232 0 q 229 3 229 0 l 224 0 l 221 0 q 159 19 172 0 l 142 33 l 134 33 l 123 24 l 118 24 q 110 41 118 39 l 110 27 l 113 22 q 110 19 110 22 l 104 22 q 88 16 94 16 l 88 11 l 94 11 l 94 5 l 75 0 l 69 0 l 69 5 l 66 5 l 58 0 l 34 0 q 23 52 27 0 l 28 54 l 23 65 l 26 71 l 23 76 q 26 79 23 79 l 23 98 l 23 106 q 37 114 23 113 l 37 117 q 23 122 23 117 l 23 144 l 20 157 q 37 165 37 163 l 50 163 l 58 163 l 72 165 l 72 168 l 69 174 l 50 171 l 26 171 q 20 176 20 171 l 20 179 q 23 182 20 182 l 20 187 l 20 247 q 26 252 21 252 l 31 252 q 104 277 74 252 q 140 274 138 274 l 156 277 l 156 279 q 107 288 107 279 q 142 309 125 309 m 197 241 l 197 236 l 199 236 l 199 241 l 197 241 m 205 225 l 205 217 q 210 222 210 217 l 205 225 m 23 212 q 31 209 31 212 q 64 217 64 212 q 56 220 58 220 l 50 217 q 39 220 45 220 q 23 212 23 217 m 75 214 l 80 212 l 107 212 q 113 217 113 212 l 107 220 l 102 220 q 91 217 96 220 q 80 220 86 220 q 75 214 75 219 m 137 217 l 137 214 l 142 214 l 142 217 l 137 217 m 205 214 l 205 212 l 213 212 l 213 214 l 205 214 m 123 209 l 123 198 l 129 198 l 129 201 q 126 209 126 206 l 123 209 m 213 203 l 213 201 l 221 190 q 229 193 227 193 l 229 195 q 218 203 218 195 l 213 203 m 94 195 l 94 193 l 110 193 l 110 195 l 94 195 m 118 195 q 123 190 119 190 l 126 195 l 118 195 m 137 195 l 137 193 l 151 193 l 151 195 l 137 195 m 202 195 l 202 193 l 210 193 l 210 195 l 202 195 m 94 152 l 91 146 l 91 144 q 96 138 92 138 l 99 138 q 104 144 104 138 l 104 149 l 94 152 m 170 146 l 170 141 q 189 133 170 136 l 194 136 l 210 136 l 210 144 q 202 146 202 144 l 197 144 q 172 146 182 146 l 170 146 m 39 117 q 45 111 40 111 l 66 111 q 77 109 73 111 l 83 111 l 88 109 q 96 111 94 111 l 96 114 q 50 119 64 119 q 39 117 45 117 m 205 84 l 205 79 l 208 79 l 208 84 l 205 84 m 77 76 l 75 76 l 58 79 q 39 68 39 73 l 39 65 l 53 68 l 58 68 l 85 65 l 91 73 l 91 81 l 85 81 l 77 76 m 140 81 l 140 73 l 151 73 l 151 81 l 140 81 m 113 73 l 113 71 l 115 71 l 129 73 l 129 79 l 118 79 q 113 73 113 78 m 145 43 l 148 43 q 159 46 159 43 l 178 43 l 202 43 q 208 49 208 43 l 208 52 q 194 57 203 52 q 145 43 145 48 m 45 52 l 45 43 q 56 30 52 30 l 56 33 q 45 52 52 52 m 137 52 q 142 46 138 46 l 142 52 l 137 52 m 113 49 q 118 43 113 43 l 118 49 l 113 49 m 64 24 l 64 11 l 69 11 l 66 24 l 64 24 z "},"\"":{"ha":587,"x_min":20,"x_max":545,"o":"m 142 1179 q 161 1154 157 1167 l 164 1154 l 164 1152 l 161 1146 q 197 1119 172 1146 q 221 1114 221 1118 l 227 1116 l 229 1116 q 232 1114 232 1116 l 237 1116 l 240 1116 q 248 1057 248 1116 l 245 1057 l 248 1051 q 240 1043 248 1047 q 88 1038 215 1043 l 85 1032 l 91 1029 q 202 1032 161 1032 l 205 1032 l 205 1027 l 210 1027 l 210 1032 l 227 1032 q 232 1016 227 1016 q 235 1019 232 1019 l 232 1032 l 232 1035 l 243 1035 q 248 1029 248 1034 q 237 1027 243 1027 l 237 1024 q 248 994 248 1024 l 243 994 q 235 1008 243 1008 q 232 1005 235 1005 q 248 970 240 979 l 248 926 q 243 921 248 921 l 218 924 l 216 918 q 235 913 227 918 q 245 916 239 916 q 251 910 251 915 l 251 899 q 243 891 251 897 l 210 894 l 191 894 q 186 888 186 893 l 186 886 q 224 880 215 880 l 243 880 q 248 875 248 880 l 240 869 l 232 869 q 229 872 229 869 l 224 869 l 221 869 q 159 888 172 869 l 142 902 l 134 902 l 123 894 l 118 894 q 110 910 118 908 l 110 897 l 113 891 q 110 888 110 891 l 104 891 q 88 886 94 886 l 88 880 l 94 880 l 94 875 l 75 869 l 69 869 l 69 875 l 66 875 l 58 869 l 34 869 q 23 921 27 869 l 28 924 l 23 935 l 26 940 l 23 945 q 26 948 23 948 l 23 967 l 23 975 q 37 983 23 983 l 37 986 q 23 991 23 986 l 23 1013 l 20 1027 q 37 1035 37 1033 l 50 1032 l 58 1032 l 72 1035 l 72 1038 l 69 1043 l 50 1040 l 26 1040 q 20 1046 20 1040 l 20 1048 q 23 1051 20 1051 l 20 1057 l 20 1116 q 26 1122 21 1122 l 31 1122 q 104 1146 74 1122 q 140 1143 138 1143 l 156 1146 l 156 1149 q 107 1157 107 1149 q 142 1179 125 1179 m 197 1111 l 197 1105 l 199 1105 l 199 1111 l 197 1111 m 205 1095 l 205 1086 q 210 1092 210 1086 l 205 1095 m 23 1081 q 31 1078 31 1081 q 64 1086 64 1081 q 56 1089 58 1089 l 50 1086 q 39 1089 45 1089 q 23 1081 23 1086 m 75 1084 l 80 1081 l 107 1081 q 113 1086 113 1081 l 107 1089 l 102 1089 q 91 1086 96 1089 q 80 1089 86 1089 q 75 1084 75 1088 m 137 1086 l 137 1084 l 142 1084 l 142 1086 l 137 1086 m 205 1084 l 205 1081 l 213 1081 l 213 1084 l 205 1084 m 123 1078 l 123 1067 l 129 1067 l 129 1070 q 126 1078 126 1076 l 123 1078 m 213 1073 l 213 1070 l 221 1059 q 229 1062 227 1062 l 229 1065 q 218 1073 218 1065 l 213 1073 m 94 1065 l 94 1062 l 110 1062 l 110 1065 l 94 1065 m 118 1065 q 123 1059 119 1059 l 126 1065 l 118 1065 m 137 1065 l 137 1062 l 151 1062 l 151 1065 l 137 1065 m 202 1065 l 202 1062 l 210 1062 l 210 1065 l 202 1065 m 94 1021 l 91 1016 l 91 1013 q 96 1008 92 1008 l 99 1008 q 104 1013 104 1008 l 104 1019 l 94 1021 m 170 1016 l 170 1010 q 189 1002 170 1006 l 194 1005 l 210 1005 l 210 1013 q 202 1016 202 1013 l 197 1013 q 172 1016 182 1016 l 170 1016 m 39 986 q 45 981 40 981 l 66 981 q 77 978 73 981 l 83 981 l 88 978 q 96 981 94 981 l 96 983 q 50 989 64 989 q 39 986 45 986 m 205 954 l 205 948 l 208 948 l 208 954 l 205 954 m 77 945 l 75 945 l 58 948 q 39 937 39 942 l 39 935 l 53 937 l 58 937 l 85 935 l 91 943 l 91 951 l 85 951 l 77 945 m 140 951 l 140 943 l 151 943 l 151 951 l 140 951 m 113 943 l 113 940 l 115 940 l 129 943 l 129 948 l 118 948 q 113 943 113 947 m 145 913 l 148 913 q 159 916 159 913 l 178 913 l 202 913 q 208 918 208 913 l 208 921 q 194 926 203 921 q 145 913 145 918 m 45 921 l 45 913 q 56 899 52 899 l 56 902 q 45 921 52 921 m 137 921 q 142 916 138 916 l 142 921 l 137 921 m 113 918 q 118 913 113 913 l 118 918 l 113 918 m 64 894 l 64 880 l 69 880 l 66 894 l 64 894 m 436 1179 q 455 1154 451 1167 l 458 1154 l 458 1152 l 455 1146 q 490 1119 466 1146 q 515 1114 515 1118 l 520 1116 l 523 1116 q 526 1114 526 1116 l 531 1116 l 534 1116 q 542 1057 542 1116 l 539 1057 l 542 1051 q 534 1043 542 1047 q 382 1038 509 1043 l 379 1032 l 385 1029 q 496 1032 455 1032 l 498 1032 l 498 1027 l 504 1027 l 504 1032 l 520 1032 q 526 1016 520 1016 q 528 1019 526 1019 l 526 1032 l 526 1035 l 536 1035 q 542 1029 542 1034 q 531 1027 537 1027 l 531 1024 q 542 994 542 1024 l 536 994 q 528 1008 536 1008 q 526 1005 528 1005 q 542 970 534 979 l 542 926 q 536 921 542 921 l 512 924 l 509 918 q 528 913 520 918 q 539 916 533 916 q 545 910 545 915 l 545 899 q 536 891 545 897 l 504 894 l 485 894 q 479 888 479 893 l 479 886 q 517 880 509 880 l 536 880 q 542 875 542 880 l 534 869 l 526 869 q 523 872 523 869 l 517 869 l 515 869 q 452 888 465 869 l 436 902 l 428 902 l 417 894 l 412 894 q 404 910 412 908 l 404 897 l 406 891 q 404 888 404 891 l 398 891 q 382 886 387 886 l 382 880 l 387 880 l 387 875 l 368 869 l 363 869 l 363 875 l 360 875 l 352 869 l 328 869 q 317 921 321 869 l 322 924 l 317 935 l 319 940 l 317 945 q 319 948 317 948 l 317 967 l 317 975 q 330 983 317 983 l 330 986 q 317 991 317 986 l 317 1013 l 314 1027 q 330 1035 330 1033 l 344 1032 l 352 1032 l 366 1035 l 366 1038 l 363 1043 l 344 1040 l 319 1040 q 314 1046 314 1040 l 314 1048 q 317 1051 314 1051 l 314 1057 l 314 1116 q 319 1122 315 1122 l 325 1122 q 398 1146 368 1122 q 433 1143 432 1143 l 450 1146 l 450 1149 q 401 1157 401 1149 q 436 1179 419 1179 m 490 1111 l 490 1105 l 493 1105 l 493 1111 l 490 1111 m 498 1095 l 498 1086 q 504 1092 504 1086 l 498 1095 m 317 1081 q 325 1078 325 1081 q 357 1086 357 1081 q 349 1089 352 1089 l 344 1086 q 333 1089 339 1089 q 317 1081 317 1086 m 368 1084 l 374 1081 l 401 1081 q 406 1086 406 1081 l 401 1089 l 395 1089 q 385 1086 389 1089 q 374 1089 380 1089 q 368 1084 368 1088 m 431 1086 l 431 1084 l 436 1084 l 436 1086 l 431 1086 m 498 1084 l 498 1081 l 507 1081 l 507 1084 l 498 1084 m 417 1078 l 417 1067 l 422 1067 l 422 1070 q 420 1078 420 1076 l 417 1078 m 507 1073 l 507 1070 l 515 1059 q 523 1062 520 1062 l 523 1065 q 512 1073 512 1065 l 507 1073 m 387 1065 l 387 1062 l 404 1062 l 404 1065 l 387 1065 m 412 1065 q 417 1059 412 1059 l 420 1065 l 412 1065 m 431 1065 l 431 1062 l 444 1062 l 444 1065 l 431 1065 m 496 1065 l 496 1062 l 504 1062 l 504 1065 l 496 1065 m 387 1021 l 385 1016 l 385 1013 q 390 1008 385 1008 l 393 1008 q 398 1013 398 1008 l 398 1019 l 387 1021 m 463 1016 l 463 1010 q 482 1002 463 1006 l 488 1005 l 504 1005 l 504 1013 q 496 1016 496 1013 l 490 1013 q 466 1016 475 1016 l 463 1016 m 333 986 q 338 981 334 981 l 360 981 q 371 978 366 981 l 376 981 l 382 978 q 390 981 387 981 l 390 983 q 344 989 358 989 q 333 986 339 986 m 498 954 l 498 948 l 501 948 l 501 954 l 498 954 m 371 945 l 368 945 l 352 948 q 333 937 333 942 l 333 935 l 347 937 l 352 937 l 379 935 l 385 943 l 385 951 l 379 951 l 371 945 m 433 951 l 433 943 l 444 943 l 444 951 l 433 951 m 406 943 l 406 940 l 409 940 l 422 943 l 422 948 l 412 948 q 406 943 406 947 m 439 913 l 441 913 q 452 916 452 913 l 471 913 l 496 913 q 501 918 501 913 l 501 921 q 488 926 496 921 q 439 913 439 918 m 338 921 l 338 913 q 349 899 346 899 l 349 902 q 338 921 346 921 m 431 921 q 436 916 431 916 l 436 921 l 431 921 m 406 918 q 412 913 407 913 l 412 918 l 406 918 m 357 894 l 357 880 l 363 880 l 360 894 l 357 894 z "},"#":{"ha":906,"x_min":0,"x_max":0,"o":""},"$":{"ha":407,"x_min":20,"x_max":387,"o":"m 183 1153 l 227 1153 q 275 1128 233 1146 l 275 1118 l 281 1118 l 278 1123 q 283 1128 279 1128 q 349 1047 336 1084 q 381 914 381 991 q 387 882 384 914 q 378 863 384 871 q 387 857 387 863 l 387 841 q 384 779 387 815 l 387 762 l 384 762 q 387 760 384 760 l 384 741 q 387 716 384 731 q 376 703 384 703 q 330 719 337 703 l 327 719 l 335 700 q 338 703 338 700 q 384 692 384 700 l 378 689 l 340 689 q 311 697 311 689 l 311 738 q 305 811 311 785 q 332 819 329 819 l 332 822 l 327 822 q 305 817 310 817 q 259 873 292 854 q 227 890 235 882 q 224 860 227 870 q 232 852 228 860 l 232 827 q 229 817 232 821 l 232 811 l 229 806 q 232 795 229 800 q 229 765 229 777 l 229 757 q 208 749 229 751 l 208 746 q 229 741 229 746 l 229 724 q 227 722 229 722 l 229 716 q 232 640 232 661 l 229 640 q 251 616 229 629 l 270 616 l 270 610 l 278 610 l 278 616 q 283 610 283 615 l 283 608 q 278 586 278 589 l 278 575 q 316 502 278 554 q 354 415 354 439 l 343 418 l 340 418 l 340 415 q 354 410 347 415 l 357 410 l 357 415 q 387 317 369 415 q 368 298 385 298 l 368 296 q 387 288 387 293 l 387 222 q 384 220 387 220 l 387 214 q 370 127 378 152 l 365 127 l 365 133 l 359 133 q 340 106 359 122 l 338 100 q 359 98 353 98 l 359 92 q 343 65 351 83 q 332 62 337 65 l 335 57 q 321 43 330 43 l 316 46 q 305 43 311 43 l 302 43 q 297 49 297 43 q 300 57 297 52 q 294 76 300 62 l 302 81 l 321 81 l 321 76 l 305 73 l 305 71 l 321 71 q 327 76 327 71 q 324 79 324 76 l 330 81 l 343 81 l 343 84 q 335 95 335 91 l 321 92 q 311 98 321 98 l 311 109 l 316 117 l 316 122 l 300 122 q 297 125 297 122 q 267 119 293 122 l 256 122 l 251 119 q 232 122 240 122 q 224 119 227 119 l 224 117 q 254 111 235 117 q 262 114 259 114 q 267 109 262 109 l 283 109 l 292 114 l 297 114 q 302 109 302 113 l 300 103 l 300 95 l 283 92 l 251 92 l 251 90 l 254 84 l 267 87 l 273 87 q 292 68 292 75 q 294 54 294 63 q 281 30 290 54 l 283 16 q 227 0 261 6 l 210 0 q 186 3 201 0 q 167 0 182 0 q 140 11 151 11 l 140 16 q 156 22 156 16 l 118 22 q 42 114 62 66 l 42 122 l 47 122 l 47 127 q 31 144 31 127 q 42 152 42 148 q 20 236 20 152 l 20 271 q 23 282 20 277 q 20 290 20 288 l 23 290 l 20 296 l 20 323 q 23 326 20 326 l 20 331 l 23 336 q 20 347 20 341 q 37 355 31 355 q 53 339 41 355 l 53 342 l 50 347 l 50 355 q 20 385 45 355 q 23 426 23 412 l 23 445 q 45 453 25 453 l 50 453 l 69 450 l 69 448 q 66 437 69 441 l 66 434 l 69 434 q 77 450 72 450 l 96 450 q 102 445 102 450 q 99 442 102 442 l 102 429 l 102 388 q 123 277 102 294 q 113 269 113 273 l 113 266 q 129 271 117 266 q 172 258 150 258 q 183 293 180 293 q 208 307 202 307 l 208 312 q 178 298 182 298 l 178 328 l 180 345 q 178 347 180 347 q 180 363 178 349 q 178 393 180 375 l 180 420 l 178 431 q 180 445 180 436 l 178 450 l 180 456 q 178 467 178 460 l 180 472 l 178 477 q 180 499 180 492 q 156 548 174 548 l 123 556 q 115 553 118 553 q 113 562 113 559 q 118 583 113 583 l 115 589 q 118 600 115 595 q 107 629 113 610 q 110 632 110 629 q 47 730 96 632 l 47 741 l 72 741 l 72 746 l 47 746 q 23 836 35 763 l 26 836 l 23 841 l 23 844 q 26 846 23 846 l 23 852 q 26 854 23 854 l 20 879 q 23 882 20 882 l 20 895 l 20 917 q 99 1093 35 1086 q 110 1109 110 1107 l 107 1109 q 80 1093 90 1093 l 80 1096 q 170 1145 101 1125 q 183 1153 174 1145 m 205 1104 q 202 1096 205 1096 q 208 1072 205 1091 l 210 1072 l 210 1082 q 208 1104 210 1085 l 205 1104 m 281 1093 l 281 1085 l 286 1082 l 286 1085 q 283 1093 283 1090 l 281 1093 m 254 1080 l 254 1074 l 259 1074 l 259 1080 l 254 1080 m 270 1077 l 270 1072 l 273 1072 l 273 1077 l 270 1077 m 302 1077 l 302 1072 l 305 1072 l 305 1077 l 302 1077 m 107 1069 l 107 1039 l 104 1034 l 110 1031 l 113 1031 l 110 1036 l 110 1044 l 113 1061 q 110 1069 110 1066 l 107 1069 m 123 1066 l 123 1063 l 142 1058 l 151 1058 l 151 1061 q 129 1066 144 1061 l 123 1066 m 189 1058 l 189 1055 l 194 1055 l 194 1058 l 189 1058 m 254 1058 l 254 1047 l 256 1047 l 256 1058 l 254 1058 m 210 1053 l 210 1050 q 221 1047 216 1050 q 240 1050 232 1050 l 240 1053 l 210 1053 m 302 1044 l 302 1034 l 305 1034 l 305 1044 l 302 1044 m 72 1036 l 72 1023 l 77 1023 q 75 1036 75 1027 l 72 1036 m 110 1028 q 115 1023 111 1023 l 115 1028 l 110 1028 m 172 1020 l 178 1020 l 178 1025 q 172 1020 172 1025 m 115 1020 l 115 1015 q 121 1001 121 1008 l 126 1001 q 115 1020 120 1020 m 330 1006 l 330 1004 q 349 1017 349 1014 l 346 1017 q 330 1006 330 1011 m 270 1006 l 270 993 q 294 996 280 996 l 294 998 q 270 1006 279 1000 m 229 1001 l 229 998 l 243 998 l 243 1001 l 229 1001 m 245 1001 l 245 998 l 251 998 l 251 1001 l 245 1001 m 262 993 q 254 979 262 988 l 254 977 q 267 990 257 977 l 267 993 l 262 993 m 351 968 l 351 966 l 354 966 q 365 979 359 967 l 362 979 q 351 968 358 979 m 300 952 l 300 949 l 302 949 q 319 963 302 954 l 319 971 q 300 952 315 971 m 227 947 l 227 944 l 229 944 q 256 958 248 958 l 256 963 l 254 963 q 227 947 227 950 m 61 949 l 61 944 l 64 944 l 64 949 l 61 949 m 216 941 l 218 941 q 224 947 224 941 l 221 947 q 216 941 216 946 m 210 944 l 210 939 l 213 939 l 213 944 l 210 944 m 229 941 l 229 933 l 232 933 l 232 941 l 229 941 m 197 936 q 202 930 197 930 l 202 936 l 197 936 m 189 928 l 194 928 l 194 933 q 189 928 189 932 m 319 930 q 316 920 319 924 l 321 920 l 321 930 l 319 930 m 88 928 l 88 920 l 91 920 l 91 928 l 88 928 m 264 906 l 264 901 q 278 914 276 907 q 264 906 268 906 m 313 914 l 313 909 l 316 909 l 316 914 l 313 914 m 123 898 l 126 898 l 134 903 l 140 901 l 145 909 q 123 898 123 905 m 224 909 l 224 903 l 227 903 l 227 909 l 224 909 m 224 901 q 227 892 227 895 l 229 892 l 229 901 l 224 901 m 107 890 l 110 890 q 121 898 121 894 l 118 898 q 107 890 107 894 m 194 890 l 194 887 l 199 887 q 208 892 199 892 l 208 898 q 194 890 199 890 m 311 895 l 311 892 l 327 892 l 327 898 l 311 895 m 56 892 l 56 879 l 58 879 l 58 892 l 56 892 m 123 857 q 121 808 121 819 q 145 741 126 785 l 142 735 q 172 708 150 735 l 175 708 q 178 749 178 735 l 178 781 q 175 808 178 794 q 178 833 178 819 l 178 836 q 167 887 178 887 q 126 857 150 887 l 123 857 m 327 882 l 327 876 l 330 876 l 330 882 l 327 882 m 72 879 l 72 873 l 75 873 l 75 879 l 72 879 m 213 863 l 213 860 l 221 860 l 221 863 l 213 863 m 313 857 l 313 854 l 338 854 l 338 860 l 332 860 l 313 857 m 80 825 q 85 781 80 812 l 88 781 l 88 792 q 83 822 83 821 q 85 825 85 822 l 80 825 m 351 781 l 351 779 l 354 779 q 365 781 359 781 l 365 784 l 359 784 q 351 781 354 781 m 186 762 l 186 751 q 189 722 189 728 l 194 722 l 194 724 q 189 762 194 730 l 186 762 m 313 754 q 321 746 313 750 l 321 749 q 316 754 321 754 l 313 754 m 338 751 l 340 727 l 343 727 l 343 751 l 338 751 m 132 746 l 132 743 l 137 743 l 137 746 l 132 746 m 132 741 l 132 735 l 137 735 q 132 741 137 741 m 83 711 l 83 705 l 85 705 l 85 711 l 83 711 m 85 694 l 85 681 l 91 678 l 88 694 l 85 694 m 186 648 l 186 643 l 189 643 l 189 648 l 186 648 m 140 635 l 140 632 l 151 632 l 151 635 l 140 635 m 183 635 l 183 621 l 189 618 l 186 635 l 183 635 m 197 629 l 197 627 q 213 624 199 627 l 218 624 l 218 627 q 202 629 204 629 l 197 629 m 237 610 q 251 505 243 589 l 256 505 q 248 553 254 531 q 251 556 248 556 q 243 613 245 582 l 237 610 m 183 602 l 183 600 l 194 600 l 194 602 l 183 602 m 148 570 l 129 570 l 129 564 l 151 564 q 159 572 151 572 l 159 578 l 148 570 m 118 564 l 118 559 l 123 559 l 123 564 l 118 564 m 180 556 q 191 548 180 552 l 194 548 l 194 551 q 183 556 190 551 l 180 556 m 208 548 l 208 545 q 213 540 208 540 l 216 545 l 210 548 l 208 548 m 208 529 l 208 526 q 221 521 212 526 l 227 521 l 227 524 q 210 529 219 524 l 208 529 m 254 502 l 254 494 l 256 494 l 256 502 l 254 502 m 292 499 q 294 486 294 494 l 297 486 l 297 499 l 292 499 m 281 475 l 281 469 l 302 469 l 302 475 l 297 472 l 292 475 q 283 472 286 472 q 281 475 283 475 m 308 475 l 311 458 l 316 458 q 313 475 313 463 l 308 475 m 235 458 q 232 448 235 448 l 235 434 l 235 415 q 229 410 235 410 l 232 404 l 232 331 q 216 317 224 317 l 216 315 l 224 315 q 232 323 224 319 q 235 320 232 320 l 232 315 l 232 277 l 235 263 l 245 263 q 283 326 283 285 q 275 369 283 357 l 275 377 q 251 434 261 416 l 251 442 q 240 458 240 448 l 235 458 m 321 458 q 319 450 321 456 l 319 448 l 321 448 q 324 456 321 450 l 324 458 l 321 458 m 189 456 l 189 453 l 197 453 l 197 456 l 189 456 m 199 453 l 199 450 l 224 445 l 227 445 l 227 448 q 202 453 222 448 l 199 453 m 259 448 l 259 434 q 286 429 271 434 l 286 434 q 262 448 262 434 l 259 448 m 289 431 q 294 426 290 426 l 300 426 q 294 431 300 431 l 289 431 m 302 429 l 302 423 q 338 415 314 423 l 338 420 q 302 429 309 429 m 218 423 l 218 412 l 221 399 l 224 399 l 224 410 l 221 423 l 218 423 m 88 418 l 75 355 q 94 418 82 355 l 88 418 m 199 415 l 199 412 l 205 412 l 205 415 l 199 415 m 351 407 l 351 399 l 357 399 l 357 401 q 351 407 357 407 m 273 399 l 273 396 l 283 393 l 289 393 l 289 396 q 275 399 280 396 l 273 399 m 300 393 l 300 388 l 302 388 l 302 393 l 300 393 m 338 382 l 338 380 q 349 377 344 380 l 349 382 l 338 382 m 351 380 l 351 374 l 357 374 l 357 380 l 351 380 m 56 353 l 56 350 q 83 342 57 350 l 85 347 q 58 353 79 350 l 56 353 m 368 342 q 370 312 370 318 l 373 312 q 376 320 373 315 q 373 350 373 335 q 368 342 368 350 m 88 347 l 88 342 l 94 342 q 88 347 94 347 m 308 312 l 308 309 q 316 307 311 309 l 316 312 l 308 312 m 319 309 l 319 307 l 324 307 l 324 309 l 319 309 m 281 298 l 281 296 l 292 293 l 297 293 l 297 296 l 283 298 l 281 298 m 26 293 q 34 252 34 264 l 39 255 q 31 296 34 262 l 26 293 m 332 282 l 330 277 q 338 279 335 279 l 338 282 l 332 282 m 340 282 l 340 277 l 351 277 l 351 279 q 340 282 342 282 m 357 282 l 357 277 l 365 277 l 365 279 q 357 282 362 279 m 53 277 l 53 271 l 85 274 l 99 274 q 94 279 99 279 l 80 279 l 53 277 m 102 277 l 102 271 q 104 263 104 266 q 110 269 110 263 q 104 277 104 269 l 102 277 m 61 260 l 72 244 q 75 266 72 263 l 66 266 q 61 260 61 265 m 94 255 l 94 252 q 110 250 96 252 l 110 255 l 94 255 m 376 252 l 376 241 q 378 233 378 236 l 381 233 l 381 236 l 378 252 l 376 252 m 349 250 l 349 244 l 370 244 q 365 250 370 250 l 349 250 m 64 239 l 64 228 l 66 214 l 69 214 l 69 222 l 66 239 l 64 239 m 153 233 l 153 225 l 156 225 l 156 233 l 153 233 m 110 231 q 113 212 113 220 l 115 212 l 115 222 q 113 231 113 228 l 110 231 m 302 228 q 311 209 302 221 q 302 203 311 203 q 289 212 289 209 l 283 209 l 281 209 q 264 222 264 209 l 262 222 q 256 212 262 212 l 245 212 q 216 203 216 212 q 232 201 230 201 q 262 203 256 203 q 267 198 262 198 q 273 203 268 203 q 275 201 275 203 l 281 203 l 297 195 l 332 201 l 332 206 q 316 212 316 206 q 319 214 316 214 q 308 228 313 227 l 302 228 m 378 228 l 378 225 l 384 225 l 384 228 l 378 228 m 102 206 l 102 203 q 118 201 116 201 l 118 206 l 102 206 m 245 190 l 245 184 l 248 184 l 248 190 l 245 190 m 129 184 l 129 182 l 170 182 l 170 184 q 159 187 163 184 q 129 184 144 184 m 83 171 l 83 165 l 85 165 l 85 171 l 83 171 m 94 160 l 94 157 l 104 157 l 110 160 q 121 157 115 157 l 123 157 q 129 163 129 157 l 113 163 l 94 160 m 153 163 l 153 160 l 167 157 l 180 157 l 194 160 l 194 163 l 153 163 m 208 160 l 208 157 l 216 157 l 216 160 l 208 160 m 99 155 l 99 146 q 102 130 102 132 l 96 127 l 75 127 q 72 130 72 127 q 64 127 66 127 l 64 122 l 99 122 q 104 117 104 121 q 96 106 100 106 l 83 106 l 77 109 l 77 103 q 107 79 92 103 l 110 79 q 115 84 111 84 q 110 114 110 103 q 126 125 126 120 q 102 149 102 132 l 102 155 l 99 155 m 229 155 l 229 152 q 259 146 237 152 q 235 155 259 153 l 229 155 m 235 133 l 235 130 l 243 130 l 243 133 l 235 133 m 129 127 l 129 122 l 142 119 l 148 119 q 145 130 145 124 l 142 130 l 129 127 m 357 119 l 359 119 q 365 114 365 119 l 365 111 q 359 106 365 106 l 351 106 l 351 109 q 357 119 357 115 m 321 106 l 321 100 q 327 106 327 100 l 321 106 m 72 76 q 77 71 73 71 l 94 71 q 85 79 94 75 l 72 76 m 180 79 l 180 76 l 191 76 l 191 79 l 180 79 m 213 73 q 210 62 213 67 l 178 65 l 164 65 q 110 62 146 65 l 110 60 l 113 54 l 140 57 q 145 54 145 57 l 159 57 l 167 57 q 218 54 189 57 q 235 60 227 60 q 229 65 235 65 q 218 62 224 62 q 216 73 216 67 l 213 73 m 267 41 l 267 38 l 278 38 l 278 41 l 267 41 m 300 35 l 311 35 l 311 30 l 300 27 l 300 35 m 129 30 l 129 27 l 142 27 l 142 30 l 129 30 z "},"%":{"ha":892,"x_min":20,"x_max":848,"o":"m 631 1177 q 713 1142 692 1177 l 716 1142 q 777 1166 722 1142 q 817 1175 812 1175 q 844 1164 848 1172 l 828 1134 q 820 1123 825 1128 q 817 1112 821 1118 l 812 1107 q 810 1099 812 1101 q 803 1090 806 1090 q 795 1069 796 1072 q 720 920 739 955 q 666 909 712 915 q 608 849 641 909 l 593 819 q 586 811 591 817 q 583 800 586 806 l 574 784 q 566 773 571 778 q 563 762 566 768 l 556 749 q 552 746 555 746 l 552 741 l 539 716 q 526 694 534 705 q 517 673 523 684 l 511 662 l 502 648 l 507 648 l 505 643 q 519 583 484 603 l 517 578 l 475 556 q 441 521 451 540 l 434 507 l 426 507 l 423 502 q 430 499 431 502 q 419 483 420 485 l 419 477 l 413 472 q 414 469 412 469 l 405 456 l 397 439 q 393 429 393 433 q 385 418 389 424 l 381 410 l 376 393 q 367 382 370 389 q 364 372 368 378 q 348 366 353 366 l 348 361 q 340 355 342 360 l 338 353 q 347 339 354 352 q 328 317 346 336 l 320 317 l 315 323 q 302 315 313 319 l 300 315 q 298 317 297 315 l 292 315 l 283 320 l 278 315 l 273 307 q 276 301 271 301 l 279 301 l 281 307 l 287 307 l 284 301 q 304 312 300 307 q 329 304 332 310 l 328 301 q 306 290 316 290 l 304 288 l 315 288 l 322 290 q 349 252 319 252 l 355 255 q 370 247 373 252 l 366 239 q 362 236 365 236 q 363 233 361 233 q 356 225 362 231 l 349 206 l 340 193 q 321 152 330 169 l 319 146 l 306 144 q 300 111 304 119 l 298 111 l 298 106 l 293 98 q 271 87 292 94 l 259 90 l 259 84 q 255 81 256 84 l 243 84 l 218 84 l 221 90 l 227 90 l 231 87 l 236 92 l 236 98 l 241 103 q 245 114 241 108 l 250 114 l 253 119 l 250 119 q 241 117 243 117 l 229 95 l 218 95 l 213 84 l 199 84 q 197 95 201 88 l 198 98 q 222 117 216 106 q 218 119 216 117 l 211 117 l 208 117 l 216 133 q 224 138 220 138 l 262 138 l 265 144 l 249 144 q 247 165 245 144 q 279 176 275 176 l 281 179 q 273 184 277 179 l 267 184 q 232 157 262 175 q 220 149 224 157 l 214 149 l 216 152 l 229 163 q 228 171 224 163 l 220 171 q 213 146 212 151 l 199 146 l 201 149 l 210 157 l 212 160 q 203 165 201 160 q 216 174 205 170 l 220 187 l 222 190 q 237 203 229 203 q 229 225 244 218 q 211 217 226 219 q 210 220 212 220 l 207 214 q 205 206 207 209 l 203 206 l 203 201 l 201 198 q 185 187 195 198 q 189 179 189 187 q 180 174 186 174 q 177 187 181 187 q 170 190 178 190 q 161 184 167 184 q 158 193 157 184 q 182 214 178 205 l 176 212 l 173 212 q 170 217 168 212 q 195 222 173 222 q 197 231 195 228 q 224 252 198 234 l 218 269 q 261 298 249 298 l 262 301 q 256 320 249 301 l 266 334 l 276 353 q 280 366 280 361 l 291 382 l 300 399 q 302 410 302 405 q 311 420 308 414 l 311 426 q 319 437 316 431 q 319 442 322 442 l 328 453 q 347 496 330 457 l 357 510 q 357 572 380 555 q 349 583 347 578 l 351 589 q 418 640 403 610 q 433 662 429 659 l 439 681 q 489 770 480 753 l 505 781 q 507 789 505 787 l 504 789 l 501 784 l 496 784 l 503 798 q 504 806 507 806 l 514 819 l 538 865 q 515 917 560 917 l 491 917 l 487 920 q 574 1099 546 1038 q 613 1169 585 1115 q 631 1177 616 1175 m 639 1093 l 636 1088 l 639 1088 l 642 1093 l 639 1093 m 707 947 l 705 941 l 710 941 l 713 947 l 707 947 m 475 727 l 473 724 l 473 719 q 465 708 468 714 q 469 705 470 708 l 475 708 l 485 705 q 507 711 498 711 l 508 713 l 503 713 l 496 711 q 477 727 471 716 l 475 727 m 370 589 l 368 583 q 374 581 370 583 l 384 594 q 370 589 374 589 m 399 502 l 396 496 q 408 499 402 499 l 410 502 l 399 502 m 411 499 l 408 494 l 414 494 q 411 499 416 499 m 194 263 l 197 263 q 199 258 202 262 l 198 255 q 190 250 195 250 l 191 236 l 184 233 q 178 236 180 236 l 179 228 l 177 225 l 174 225 q 179 255 165 225 l 194 263 m 235 258 l 232 252 l 237 252 q 245 258 240 258 l 247 260 l 244 260 q 235 258 237 258 m 161 258 l 175 258 q 156 236 171 249 l 155 233 q 160 228 163 233 l 150 220 l 149 217 l 154 217 l 142 198 q 146 190 146 198 q 129 174 134 174 q 127 176 130 176 l 122 155 l 136 155 q 146 165 141 165 l 152 165 q 156 152 156 165 l 153 146 l 147 141 q 144 155 136 141 l 124 144 l 94 144 l 149 250 q 161 258 151 254 m 205 258 l 210 258 l 208 252 q 199 247 205 247 q 198 250 201 250 q 205 258 203 255 m 225 233 q 228 228 223 228 l 233 239 q 225 233 227 238 m 259 231 l 256 225 q 264 231 261 225 l 259 231 m 310 214 l 307 209 l 310 209 l 313 214 l 310 214 m 249 206 q 246 195 249 201 l 252 195 l 258 209 l 256 209 l 249 206 m 329 203 q 319 190 324 195 l 328 190 l 332 198 q 329 203 334 203 m 261 193 l 258 187 l 267 187 q 264 193 269 193 l 261 193 m 302 193 l 300 190 q 302 179 298 179 l 304 182 q 304 193 302 189 l 302 193 m 227 179 l 225 176 l 228 176 l 237 187 q 227 179 231 187 m 321 179 l 316 168 l 319 168 q 327 174 324 168 q 324 179 330 179 l 321 179 m 164 174 l 167 174 q 170 168 172 173 l 163 165 l 163 171 l 164 174 m 319 163 l 316 157 l 319 157 l 321 163 l 319 163 m 179 160 l 179 155 l 172 152 l 172 157 l 179 160 m 236 155 l 241 155 l 235 144 l 233 144 l 229 146 q 236 155 235 152 m 275 146 l 273 144 q 280 141 276 144 l 285 149 q 275 146 278 146 m 203 138 l 205 138 q 207 130 211 138 l 182 103 q 171 92 176 92 q 170 95 172 95 q 153 90 167 90 l 152 87 l 157 87 l 155 81 l 152 81 q 127 87 138 87 q 118 84 121 84 q 117 87 119 87 l 109 76 q 107 84 103 76 q 66 79 71 81 q 65 71 66 73 l 73 71 l 88 79 l 91 79 q 89 60 97 79 l 92 60 q 110 73 96 68 l 110 68 l 93 52 l 98 46 l 89 33 l 86 27 l 92 27 l 81 8 q 45 0 79 3 q 33 24 20 0 l 86 127 q 94 133 90 133 l 97 133 q 97 117 92 124 l 96 114 l 90 114 l 89 111 q 102 106 99 111 q 106 109 104 109 q 108 106 105 106 l 102 100 l 100 98 q 100 87 102 91 q 109 92 106 87 l 107 100 l 109 103 q 113 106 111 106 l 113 111 l 115 114 q 123 119 118 119 l 125 119 l 121 111 q 117 109 120 109 q 130 92 115 104 l 133 92 l 136 98 l 131 114 l 134 119 q 172 136 137 125 l 174 136 l 182 125 l 193 130 q 195 127 192 127 l 203 138 m 108 133 l 116 133 l 113 127 l 105 127 l 108 133 m 261 130 l 256 125 l 254 122 l 262 122 l 264 125 q 261 130 267 130 m 277 130 l 276 127 l 281 127 l 283 130 l 277 130 m 124 127 l 127 127 l 124 122 l 121 122 l 124 127 m 155 119 l 161 119 l 163 125 q 155 119 157 124 m 229 125 q 231 119 227 119 l 242 119 q 239 125 245 125 l 229 125 m 268 122 q 277 114 264 116 l 280 119 l 268 122 m 146 106 l 151 106 l 154 111 q 146 106 148 111 m 168 106 q 165 98 167 100 l 171 98 l 177 109 l 174 109 l 168 106 m 256 109 l 254 106 l 260 106 l 261 109 l 256 109 m 282 87 l 285 87 l 289 84 l 283 79 l 269 52 l 267 52 l 262 54 q 252 43 254 47 l 246 43 q 230 54 240 54 q 220 52 227 54 l 207 57 q 193 46 197 46 q 186 49 189 49 q 182 46 185 46 l 182 52 l 184 54 q 205 60 186 54 l 214 76 l 229 79 l 248 79 q 250 76 251 79 l 256 79 l 281 79 l 282 81 l 282 87 m 224 73 l 216 62 l 224 62 l 232 73 l 224 73 m 84 71 l 81 65 l 87 65 l 90 71 l 84 71 m 146 71 l 142 62 l 137 62 l 138 65 q 146 71 142 71 m 123 68 l 123 62 l 116 60 l 117 65 l 123 68 m 231 65 l 224 60 l 233 60 q 231 65 236 65 m 69 62 l 66 57 l 68 57 l 72 62 l 69 62 m 83 62 l 78 54 q 86 60 83 54 l 88 62 l 83 62 m 109 57 l 115 57 q 106 52 112 52 l 109 57 m 79 46 l 85 46 l 87 52 q 79 46 82 51 m 113 54 q 116 49 119 54 l 111 49 l 113 54 m 146 54 l 151 54 q 154 49 157 54 q 146 43 151 43 l 143 43 q 139 52 139 43 l 146 54 m 74 41 q 66 35 71 35 l 62 38 l 56 33 l 55 30 q 78 33 71 33 l 81 38 q 74 41 78 38 m 203 43 q 205 38 208 43 l 204 35 l 199 35 l 203 43 m 216 38 q 219 33 221 37 l 215 24 l 210 24 l 208 22 l 211 22 l 224 27 l 233 27 q 243 38 238 38 l 252 38 q 251 16 260 38 q 235 0 240 0 q 191 16 183 0 l 184 14 l 179 14 q 174 24 175 14 l 181 27 l 186 22 l 192 22 l 216 38 m 119 27 l 127 27 q 119 22 124 22 l 111 22 q 119 27 114 27 m 225 19 l 222 14 l 225 14 l 228 19 l 225 19 m 47 11 l 45 5 l 47 5 l 50 11 l 47 11 m 222 8 l 220 3 l 222 3 l 225 8 l 222 8 z "},"&":{"ha":656,"x_min":20,"x_max":636,"o":"m 311 1158 l 330 1158 q 471 1020 426 1158 q 479 941 479 995 l 479 909 q 452 798 471 829 q 335 643 425 738 q 294 602 326 643 q 321 507 313 528 q 376 480 335 480 l 378 475 q 351 431 353 454 q 389 342 356 400 l 397 342 q 444 445 435 393 l 444 458 q 422 488 437 488 q 378 505 378 488 q 370 548 370 538 l 373 567 l 370 594 l 373 594 q 370 602 370 600 l 373 608 q 368 629 368 625 q 378 635 374 635 q 481 602 458 635 q 495 597 490 597 l 492 602 l 492 613 q 500 616 495 613 q 509 613 506 613 l 506 618 l 511 621 l 519 616 l 522 621 q 519 624 519 621 l 525 627 l 528 627 l 533 624 q 563 635 533 635 l 587 635 q 612 600 612 635 l 612 545 q 617 510 612 534 l 614 496 q 574 494 587 494 q 568 502 574 502 l 568 507 l 579 518 l 579 521 l 574 521 q 555 496 570 521 l 555 494 q 563 488 563 494 q 514 369 536 488 l 481 260 q 465 244 465 260 q 479 233 477 233 q 487 252 487 235 l 500 252 q 563 336 563 252 l 571 342 l 576 342 l 593 339 l 598 342 q 601 339 601 342 l 614 342 l 633 342 q 636 255 636 283 l 636 203 q 609 193 636 197 q 579 198 605 195 q 557 190 579 192 q 549 198 557 194 l 547 198 l 536 182 q 479 198 530 188 l 473 190 l 473 187 q 481 179 473 183 q 536 176 506 179 q 590 179 566 179 q 595 184 591 184 l 606 179 q 631 182 621 182 l 636 182 l 636 168 q 625 160 636 160 l 625 157 q 636 155 631 157 q 628 144 632 144 l 593 144 q 590 146 590 144 l 585 144 l 552 144 q 547 149 547 144 l 547 152 q 566 157 547 157 l 566 160 l 538 163 l 533 155 q 538 149 538 154 q 528 141 538 141 q 517 149 517 145 l 476 138 l 476 133 q 522 138 486 133 q 544 136 537 136 q 547 138 547 136 l 566 136 l 625 136 q 631 130 631 135 q 614 76 624 76 l 604 76 q 552 68 572 76 l 552 65 l 587 71 q 598 68 592 68 l 614 71 l 617 65 q 574 57 607 57 l 574 52 l 601 52 q 606 46 606 51 q 590 38 606 41 l 593 33 l 593 27 q 506 8 577 16 q 500 3 506 3 l 487 5 l 481 3 q 435 27 460 3 l 435 30 l 438 30 q 441 27 441 30 l 454 30 l 465 30 l 465 35 l 454 38 q 425 35 431 35 q 419 52 419 44 l 435 52 l 449 54 l 449 57 q 441 60 446 57 q 416 57 426 57 l 411 57 q 397 76 404 57 l 392 76 l 373 60 l 300 60 q 227 57 264 60 q 186 60 215 60 q 175 71 184 68 q 167 68 170 68 l 167 65 l 172 57 l 167 54 q 151 57 165 54 q 129 54 136 54 q 126 65 126 59 l 118 65 l 113 62 l 115 57 l 115 52 q 110 46 115 46 l 104 46 q 91 54 96 54 q 83 52 85 52 l 56 95 l 56 100 l 58 100 q 99 103 65 100 q 110 90 110 91 q 85 81 85 86 l 99 76 q 148 81 144 79 q 156 79 153 79 q 164 81 161 81 l 164 90 q 115 100 115 92 q 142 111 115 106 q 164 109 157 109 l 180 111 q 208 109 195 109 l 210 109 q 248 114 219 109 q 270 106 268 106 q 302 117 302 109 q 294 122 302 122 q 264 117 290 122 q 254 125 254 121 l 259 133 q 248 144 259 137 l 243 144 l 243 141 l 245 127 l 243 127 l 218 125 l 186 127 q 172 122 177 122 q 164 130 172 124 l 159 127 l 156 127 q 151 133 151 127 l 156 136 l 172 136 l 189 138 l 202 133 q 218 138 213 138 q 232 133 227 133 l 232 138 q 186 146 186 144 l 180 144 q 151 146 169 144 q 140 141 140 144 q 142 133 142 136 l 132 125 l 129 125 q 99 141 119 141 q 85 136 90 136 l 85 133 q 107 125 107 132 q 64 114 71 114 l 58 114 q 53 119 53 114 q 58 125 58 119 l 58 130 q 39 138 39 130 q 56 144 50 144 q 34 155 56 147 l 34 160 q 47 163 43 160 q 77 160 66 160 l 107 160 l 121 163 l 121 165 l 102 168 l 58 168 q 47 171 52 168 q 37 168 43 168 l 31 168 l 28 179 l 34 182 l 37 182 q 47 179 43 182 q 58 187 58 183 q 28 198 28 191 l 28 201 l 34 201 l 34 206 q 23 231 24 216 q 26 239 26 236 q 20 258 26 244 l 23 271 q 20 315 23 275 l 23 320 q 20 331 20 325 q 53 480 31 438 q 113 575 75 532 q 178 640 115 575 q 194 656 182 640 q 167 882 175 762 l 170 887 l 167 903 q 186 928 182 928 q 189 914 189 923 l 194 914 q 205 925 194 925 l 205 930 q 199 936 205 936 l 189 936 l 172 925 q 170 928 172 928 q 256 1137 170 1068 q 311 1158 290 1158 m 267 1126 l 267 1118 q 278 1107 267 1114 l 281 1107 l 281 1112 q 267 1126 281 1116 m 297 1118 q 302 1112 298 1112 l 311 1112 q 305 1118 311 1118 l 297 1118 m 319 1107 l 319 1101 l 324 1101 l 324 1107 l 319 1107 m 435 1082 l 435 1077 l 438 1077 l 438 1082 l 435 1082 m 294 1077 l 294 1074 q 297 1066 297 1069 l 302 1066 q 294 1077 298 1077 m 335 1069 l 335 1063 l 338 1063 l 338 1069 l 335 1069 m 425 1069 l 425 1058 l 430 1058 l 430 1061 q 427 1069 427 1066 l 425 1069 m 302 1063 l 302 1058 q 313 1036 313 1042 l 316 1036 l 316 1042 q 302 1063 306 1063 m 227 1055 l 227 1050 l 229 1050 l 229 1055 l 227 1055 m 273 1047 l 275 1047 q 281 1053 281 1047 l 278 1053 q 273 1047 273 1052 m 264 1050 l 264 1047 l 270 1047 l 270 1050 l 264 1050 m 414 1047 l 414 1044 l 419 1044 l 419 1047 l 414 1047 m 254 1034 l 254 1028 l 259 1028 q 254 1034 259 1034 m 340 1031 l 338 1025 l 338 1020 l 340 1020 l 354 1023 l 354 1028 q 340 1031 345 1028 m 316 1028 l 316 1025 q 324 1004 324 1014 l 330 1004 q 321 1028 330 1008 l 316 1028 m 256 1025 l 256 1020 l 259 1020 l 259 1025 l 256 1025 m 425 1023 l 422 1017 l 422 1012 l 427 1012 q 430 1020 427 1015 l 425 1023 m 267 1017 l 267 1004 l 273 1004 l 273 1012 q 267 1017 273 1017 m 403 1017 l 403 1012 l 408 1012 l 408 1017 l 403 1017 m 202 985 l 235 998 l 235 1006 q 202 985 216 1000 m 243 1006 q 245 998 245 1001 l 248 998 q 251 1006 248 1001 l 243 1006 m 186 1004 l 186 1001 q 191 996 186 996 l 194 1001 l 194 1004 l 186 1004 m 411 1004 l 411 998 l 419 998 l 419 1004 l 411 1004 m 335 990 l 346 963 l 351 963 l 343 993 l 340 993 l 335 990 m 357 982 l 357 971 q 365 968 359 971 q 373 985 371 985 q 370 993 370 990 q 357 982 362 982 m 273 990 q 267 971 273 979 q 283 941 276 971 l 286 941 q 292 960 286 954 q 278 990 284 960 l 273 990 m 433 985 l 433 982 l 435 977 q 444 979 441 979 l 444 982 l 433 985 m 186 982 l 186 979 l 191 979 l 191 982 l 186 982 m 224 979 l 224 974 q 229 979 229 974 l 224 979 m 332 977 l 332 971 l 338 971 q 332 977 338 977 m 313 968 l 313 966 l 316 966 q 321 971 321 966 l 321 974 l 319 974 q 313 968 313 973 m 235 971 q 227 960 235 960 l 224 960 l 224 958 l 240 958 l 237 971 l 235 971 m 351 960 l 351 955 q 357 960 357 955 l 351 960 m 248 952 l 248 947 l 254 947 l 254 952 l 248 952 m 232 944 q 237 939 233 939 l 237 944 l 232 944 m 362 944 l 362 936 l 368 936 l 368 939 q 362 944 368 944 m 289 922 l 289 920 l 294 920 l 294 922 l 289 922 m 262 920 q 259 911 262 917 l 262 911 q 270 920 266 911 l 262 920 m 286 903 l 289 898 q 264 871 275 871 l 267 865 l 267 863 q 262 857 267 857 q 245 863 253 863 l 243 863 l 243 852 q 262 841 262 852 l 259 817 q 273 716 265 747 q 376 863 376 800 q 354 895 365 895 q 330 903 344 903 l 313 903 l 300 901 q 297 914 297 905 l 294 914 q 286 903 290 914 m 433 892 l 433 890 l 438 890 l 438 898 q 433 892 433 897 m 381 895 l 381 892 q 395 879 381 888 l 397 868 l 400 868 l 400 882 q 387 892 394 882 l 387 895 l 381 895 m 191 890 l 191 887 l 197 887 l 197 890 l 191 890 m 245 884 l 245 876 l 248 876 q 254 882 254 876 l 248 884 l 245 884 m 378 873 q 387 871 381 873 l 387 879 l 384 879 q 378 873 378 878 m 245 871 l 245 868 l 251 868 l 251 871 l 245 871 m 433 871 l 433 863 l 435 863 q 441 868 441 863 q 433 871 438 868 m 221 857 l 227 857 l 227 863 q 221 857 221 862 m 395 863 l 395 857 l 400 857 l 400 863 l 395 863 m 202 857 l 202 854 q 210 852 205 854 l 210 857 l 202 857 m 210 846 l 210 844 l 224 844 l 224 849 l 210 846 m 172 846 l 172 844 l 180 844 l 180 846 l 172 846 m 476 594 l 476 570 q 495 551 476 566 l 498 556 q 487 572 498 559 q 495 581 491 572 l 495 586 q 490 589 490 586 l 484 586 q 479 594 479 586 l 476 594 m 500 575 l 500 572 q 506 567 501 567 l 506 570 q 500 575 506 575 m 579 567 l 579 564 q 587 562 582 564 l 590 572 l 585 572 q 579 567 579 572 m 511 545 q 522 532 517 533 q 525 534 525 532 l 538 532 q 549 534 540 532 l 549 540 q 541 543 547 540 q 538 540 541 540 l 536 545 l 536 553 q 525 556 531 556 l 522 556 q 511 545 519 556 m 568 545 q 555 540 568 540 l 555 534 q 582 540 578 540 q 585 537 582 537 l 587 543 q 568 545 579 543 m 590 545 l 590 543 l 595 543 l 595 545 l 590 545 m 213 543 q 115 372 115 435 q 113 355 113 357 q 115 328 115 341 q 104 320 104 324 q 129 293 123 320 q 175 252 153 252 l 175 247 l 172 247 l 161 252 q 145 244 159 244 l 123 244 q 118 239 118 243 q 148 231 144 231 l 159 233 q 178 231 170 231 q 191 236 186 236 q 197 225 197 229 l 199 225 q 235 233 205 231 q 283 225 243 229 q 313 233 302 233 l 330 233 q 335 239 335 233 l 335 241 l 297 241 l 264 244 l 264 250 q 300 255 289 255 l 297 260 l 297 263 q 305 269 305 263 l 305 271 q 267 377 305 290 q 208 410 250 401 l 208 415 q 235 469 219 433 q 221 524 227 518 l 221 540 q 213 543 218 540 m 481 540 l 481 532 l 487 532 l 487 534 q 481 540 487 540 m 541 524 q 536 507 541 513 l 536 499 l 541 502 q 547 496 542 496 l 549 496 l 549 510 l 552 524 l 541 524 m 595 521 q 598 513 598 515 l 601 513 l 601 521 l 595 521 m 517 499 l 517 491 l 519 486 q 511 472 513 486 l 514 472 q 530 486 530 484 q 517 499 528 493 m 221 420 q 227 415 222 415 l 267 415 q 273 420 273 415 l 267 423 q 221 420 230 420 m 311 374 l 311 372 l 321 372 l 321 374 l 311 374 m 324 374 l 324 372 l 335 372 l 335 374 l 324 374 m 286 372 l 286 369 l 297 369 l 297 372 l 286 372 m 460 342 l 460 339 l 465 339 l 465 342 l 460 342 m 463 331 q 471 320 467 320 l 468 336 q 463 331 463 336 m 313 323 l 313 320 l 321 320 l 321 323 l 313 323 m 349 323 l 349 320 l 354 320 l 354 323 l 349 323 m 47 320 l 47 317 q 61 307 47 314 l 66 307 q 77 309 73 307 q 102 304 90 304 l 102 307 q 88 320 102 310 l 47 320 m 471 315 l 471 301 l 476 301 l 473 315 l 471 315 m 31 307 l 31 298 l 42 298 q 47 304 47 298 l 47 307 l 31 307 m 37 285 l 37 279 l 45 279 q 39 285 45 285 l 37 285 m 370 282 l 370 277 l 384 279 l 389 279 l 397 274 q 406 282 401 274 l 370 282 m 414 282 q 419 277 414 277 l 438 279 l 438 277 l 444 279 q 465 277 458 277 l 468 282 l 414 282 m 96 277 l 96 274 l 104 274 l 104 277 l 96 277 m 330 263 l 330 260 l 343 258 l 349 258 l 349 260 l 335 263 l 330 263 m 593 258 l 593 255 l 601 255 l 601 258 l 593 258 m 362 239 q 370 236 365 239 q 411 239 397 239 l 411 244 q 400 247 405 244 q 362 239 362 245 m 419 244 q 425 239 420 239 l 430 239 l 430 244 l 419 244 m 446 241 q 452 236 447 236 q 463 239 456 239 q 454 244 463 244 q 446 241 449 241 m 232 244 l 245 244 l 245 239 l 232 239 l 232 244 m 354 217 l 368 214 l 373 214 l 392 217 l 392 222 l 381 222 l 365 225 q 354 217 354 221 m 397 222 l 397 220 l 406 220 l 406 222 l 397 222 m 270 214 l 270 212 l 283 212 l 283 214 l 270 214 m 294 209 l 302 209 l 302 214 l 300 214 q 294 209 294 214 m 69 184 q 88 187 80 187 l 88 193 l 85 193 q 69 184 69 190 m 373 187 l 373 184 l 376 171 l 387 171 l 392 174 q 378 187 390 181 l 373 187 m 392 184 l 392 182 l 403 182 l 403 184 l 392 184 m 416 184 l 416 182 l 422 182 l 422 184 l 416 184 m 430 184 l 430 182 l 446 182 l 446 184 l 430 184 m 454 184 l 454 182 l 468 182 l 468 184 l 454 184 m 338 174 l 338 171 q 343 165 338 165 l 365 165 q 370 171 370 165 l 365 174 l 338 174 m 170 165 l 170 160 l 199 160 l 199 171 l 180 171 q 170 165 174 165 m 224 163 l 243 160 l 245 160 q 259 165 252 165 l 256 171 q 224 163 224 168 m 126 165 l 126 163 l 140 160 l 167 160 l 167 165 l 164 165 q 142 168 157 165 l 126 165 m 281 163 l 300 163 q 294 168 300 168 l 286 168 q 281 163 281 168 m 476 157 l 476 155 l 479 155 l 492 157 l 492 163 l 481 163 q 476 157 476 162 m 579 160 l 579 157 l 595 157 l 593 163 q 579 160 588 160 m 444 155 l 444 149 l 449 149 l 449 155 l 444 155 m 281 138 l 281 136 q 286 130 281 130 l 289 130 l 302 133 q 311 125 302 129 l 313 125 l 313 127 q 294 141 300 141 l 281 138 m 319 130 l 335 130 l 335 136 l 324 136 q 319 130 319 135 m 72 125 l 77 125 l 77 130 q 72 125 72 130 m 384 122 l 384 119 q 392 114 384 114 q 400 117 397 117 l 400 122 l 384 122 m 346 119 l 346 117 l 351 117 l 351 119 l 346 119 m 452 117 l 452 114 q 473 111 463 114 l 473 114 l 471 119 q 452 117 467 117 m 585 114 l 585 109 l 595 109 l 595 114 l 585 114 m 311 109 l 311 106 q 316 100 311 100 l 330 100 q 335 106 335 100 l 335 109 l 311 109 m 435 100 q 444 92 435 96 l 460 95 l 460 100 q 454 103 454 100 q 435 100 444 100 m 530 95 q 560 87 538 90 q 598 92 594 92 l 598 95 q 590 98 595 95 q 574 95 588 98 q 541 103 541 98 q 530 95 530 99 m 294 98 l 294 90 l 297 90 q 302 95 302 90 l 302 98 l 294 98 m 509 98 l 509 92 l 519 92 q 514 98 519 98 l 509 98 m 604 95 l 604 90 l 614 90 l 614 95 l 604 95 m 229 87 l 229 84 q 243 71 229 77 q 259 76 254 76 l 259 81 q 229 87 233 87 m 281 79 l 281 76 q 305 71 301 71 l 305 76 q 286 84 294 76 q 281 79 281 83 m 316 73 l 330 73 q 324 79 330 79 l 321 79 q 316 73 316 78 m 425 79 l 425 73 l 430 73 l 430 79 l 425 79 m 514 73 l 514 65 l 544 65 q 549 71 549 65 l 544 73 l 514 73 m 137 71 l 137 68 l 142 68 l 142 71 l 137 71 m 145 68 l 145 65 q 153 62 148 65 q 161 65 159 65 l 161 68 l 145 68 m 452 57 q 465 46 453 52 l 522 52 q 517 57 522 57 l 476 57 l 460 60 q 452 57 454 57 m 536 54 l 536 52 q 544 49 538 52 q 571 52 558 52 l 571 54 q 557 60 566 54 q 536 54 547 54 m 365 52 l 365 49 q 281 0 309 0 q 264 5 272 5 l 237 5 q 208 11 234 5 l 183 8 l 178 11 q 170 8 172 8 q 153 14 161 14 q 137 11 139 11 l 134 16 q 148 22 134 22 l 148 30 q 123 24 128 27 q 94 43 106 24 l 94 46 l 110 43 l 126 46 l 142 43 l 178 49 l 191 46 l 210 49 l 248 46 q 259 49 250 46 q 267 46 264 46 l 273 49 q 281 46 275 49 l 365 52 m 495 35 l 495 33 l 509 30 q 514 35 514 30 l 495 35 m 170 30 l 170 22 l 186 22 l 186 27 l 172 30 l 170 30 m 302 30 l 302 24 l 308 24 q 302 30 308 30 m 262 24 l 262 22 l 270 22 l 270 24 l 262 24 m 463 19 l 463 14 l 471 14 l 471 19 l 463 19 z "},"'":{"ha":271,"x_min":20,"x_max":251,"o":"m 142 1179 q 161 1154 157 1167 l 164 1154 l 164 1152 l 161 1146 q 197 1119 172 1146 q 221 1114 221 1118 l 227 1116 l 229 1116 q 232 1114 232 1116 l 237 1116 l 240 1116 q 248 1057 248 1116 l 245 1057 l 248 1051 q 240 1043 248 1047 q 88 1038 215 1043 l 85 1032 l 91 1029 q 202 1032 161 1032 l 205 1032 l 205 1027 l 210 1027 l 210 1032 l 227 1032 q 232 1016 227 1016 q 235 1019 232 1019 l 232 1032 l 232 1035 l 243 1035 q 248 1029 248 1034 q 237 1027 243 1027 l 237 1024 q 248 994 248 1024 l 243 994 q 235 1008 243 1008 q 232 1005 235 1005 q 248 970 240 979 l 248 926 q 243 921 248 921 l 218 924 l 216 918 q 235 913 227 918 q 245 916 239 916 q 251 910 251 915 l 251 899 q 243 891 251 897 l 210 894 l 191 894 q 186 888 186 893 l 186 886 q 224 880 215 880 l 243 880 q 248 875 248 880 l 240 869 l 232 869 q 229 872 229 869 l 224 869 l 221 869 q 159 888 172 869 l 142 902 l 134 902 l 123 894 l 118 894 q 110 910 118 908 l 110 897 l 113 891 q 110 888 110 891 l 104 891 q 88 886 94 886 l 88 880 l 94 880 l 94 875 l 75 869 l 69 869 l 69 875 l 66 875 l 58 869 l 34 869 q 23 921 27 869 l 28 924 l 23 935 l 26 940 l 23 945 q 26 948 23 948 l 23 967 l 23 975 q 37 983 23 983 l 37 986 q 23 991 23 986 l 23 1013 l 20 1027 q 37 1035 37 1033 l 50 1032 l 58 1032 l 72 1035 l 72 1038 l 69 1043 l 50 1040 l 26 1040 q 20 1046 20 1040 l 20 1048 q 23 1051 20 1051 l 20 1057 l 20 1116 q 26 1122 21 1122 l 31 1122 q 104 1146 74 1122 q 140 1143 138 1143 l 156 1146 l 156 1149 q 107 1157 107 1149 q 142 1179 125 1179 m 197 1111 l 197 1105 l 199 1105 l 199 1111 l 197 1111 m 205 1095 l 205 1086 q 210 1092 210 1086 l 205 1095 m 23 1081 q 31 1078 31 1081 q 64 1086 64 1081 q 56 1089 58 1089 l 50 1086 q 39 1089 45 1089 q 23 1081 23 1086 m 75 1084 l 80 1081 l 107 1081 q 113 1086 113 1081 l 107 1089 l 102 1089 q 91 1086 96 1089 q 80 1089 86 1089 q 75 1084 75 1088 m 137 1086 l 137 1084 l 142 1084 l 142 1086 l 137 1086 m 205 1084 l 205 1081 l 213 1081 l 213 1084 l 205 1084 m 123 1078 l 123 1067 l 129 1067 l 129 1070 q 126 1078 126 1076 l 123 1078 m 213 1073 l 213 1070 l 221 1059 q 229 1062 227 1062 l 229 1065 q 218 1073 218 1065 l 213 1073 m 94 1065 l 94 1062 l 110 1062 l 110 1065 l 94 1065 m 118 1065 q 123 1059 119 1059 l 126 1065 l 118 1065 m 137 1065 l 137 1062 l 151 1062 l 151 1065 l 137 1065 m 202 1065 l 202 1062 l 210 1062 l 210 1065 l 202 1065 m 94 1021 l 91 1016 l 91 1013 q 96 1008 92 1008 l 99 1008 q 104 1013 104 1008 l 104 1019 l 94 1021 m 170 1016 l 170 1010 q 189 1002 170 1006 l 194 1005 l 210 1005 l 210 1013 q 202 1016 202 1013 l 197 1013 q 172 1016 182 1016 l 170 1016 m 39 986 q 45 981 40 981 l 66 981 q 77 978 73 981 l 83 981 l 88 978 q 96 981 94 981 l 96 983 q 50 989 64 989 q 39 986 45 986 m 205 954 l 205 948 l 208 948 l 208 954 l 205 954 m 77 945 l 75 945 l 58 948 q 39 937 39 942 l 39 935 l 53 937 l 58 937 l 85 935 l 91 943 l 91 951 l 85 951 l 77 945 m 140 951 l 140 943 l 151 943 l 151 951 l 140 951 m 113 943 l 113 940 l 115 940 l 129 943 l 129 948 l 118 948 q 113 943 113 947 m 145 913 l 148 913 q 159 916 159 913 l 178 913 l 202 913 q 208 918 208 913 l 208 921 q 194 926 203 921 q 145 913 145 918 m 45 921 l 45 913 q 56 899 52 899 l 56 902 q 45 921 52 921 m 137 921 q 142 916 138 916 l 142 921 l 137 921 m 113 918 q 118 913 113 913 l 118 918 l 113 918 m 64 894 l 64 880 l 69 880 l 66 894 l 64 894 z "},"(":{"ha":514,"x_min":0,"x_max":0,"o":""},")":{"ha":514,"x_min":0,"x_max":0,"o":""},"*":{"ha":374,"x_min":21,"x_max":326,"o":"m 111 1126 l 110 1126 l 112 1128 l 106 1130 l 21 1213 q 24 1267 29 1241 q 82 1279 63 1270 l 150 1213 q 172 1189 164 1198 l 173 1190 l 175 1188 l 176 1194 l 260 1278 q 314 1275 288 1271 q 326 1218 317 1237 l 259 1150 q 236 1128 245 1136 l 319 1045 q 312 1015 321 1035 q 316 980 319 982 q 293 983 311 975 q 290 991 292 989 q 286 991 288 989 l 283 985 l 282 983 q 257 981 259 979 l 222 1016 q 216 1025 218 1020 q 207 1031 211 1027 l 178 1059 q 174 1063 176 1061 l 92 980 q 61 987 82 979 q 26 983 29 981 q 31 1006 22 988 q 38 1010 36 1008 q 38 1014 36 1013 l 32 1016 l 31 1018 q 28 1043 26 1040 l 62 1078 q 72 1084 66 1082 q 77 1093 73 1088 l 106 1122 q 111 1126 109 1124 z "},"+":{"ha":450,"x_min":20,"x_max":430,"o":"m 181 541 l 180 541 l 180 543 l 175 541 l 56 541 q 20 581 42 566 q 53 630 45 610 l 148 630 q 180 629 168 630 l 180 630 l 183 630 l 180 635 l 180 755 q 221 790 205 768 q 270 758 250 765 l 270 663 q 269 630 270 642 l 387 630 q 403 603 395 624 q 430 581 430 585 q 411 568 430 574 q 403 570 406 570 q 400 568 403 568 l 403 562 l 403 559 q 387 541 390 541 l 338 541 q 327 543 332 541 q 316 541 322 541 l 275 541 q 270 541 273 541 l 270 424 q 243 408 264 416 q 221 380 224 380 q 208 399 214 380 q 210 408 210 405 q 208 410 208 408 l 202 408 l 199 408 q 180 424 180 420 l 180 473 q 183 484 180 479 q 180 494 180 488 l 180 535 q 181 541 180 538 z "},",":{"ha":271,"x_min":20,"x_max":251,"o":"m 197 241 l 197 236 l 199 236 l 199 241 l 197 241 m 175 -26 l 175 -18 l 172 -18 l 172 -26 l 175 -26 m 213 -42 l 213 -39 l 208 -39 l 208 -42 l 213 -42 m 227 -45 q 229 -37 227 -42 q 227 -31 227 -37 l 224 -31 l 221 -45 l 227 -45 m 210 -72 l 210 -58 l 208 -58 l 205 -72 l 210 -72 m 221 -110 q 224 -75 224 -76 l 224 -72 q 216 -104 218 -72 q 218 -110 218 -104 l 221 -110 m 216 -140 l 216 -137 l 210 -137 l 210 -140 l 216 -140 m 64 24 l 64 11 l 69 11 l 66 24 l 64 24 m 113 49 q 118 43 113 43 l 118 49 l 113 49 m 137 52 q 142 46 138 46 l 142 52 l 137 52 m 45 52 l 45 43 q 56 30 52 30 l 56 33 q 45 52 52 52 m 145 43 l 148 43 q 159 46 159 43 l 178 43 l 202 43 q 208 49 208 43 l 208 52 q 194 57 203 52 q 145 43 145 48 m 113 73 l 113 71 l 115 71 l 129 73 l 129 79 l 118 79 q 113 73 113 78 m 140 81 l 140 73 l 151 73 l 151 81 l 140 81 m 77 76 l 75 76 l 58 79 q 39 68 39 73 l 39 65 l 53 68 l 58 68 l 85 65 l 91 73 l 91 81 l 85 81 l 77 76 m 205 84 l 205 79 l 208 79 l 208 84 l 205 84 m 39 117 q 45 111 40 111 l 66 111 q 77 109 73 111 l 83 111 l 88 109 q 96 111 94 111 l 96 114 q 50 119 64 119 q 39 117 45 117 m 170 146 l 170 141 q 189 133 170 136 l 194 136 l 210 136 l 210 144 q 202 146 202 144 l 197 144 q 172 146 182 146 l 170 146 m 94 152 l 91 146 l 91 144 q 96 138 92 138 l 99 138 q 104 144 104 138 l 104 149 l 94 152 m 202 195 l 202 193 l 210 193 l 210 195 l 202 195 m 137 195 l 137 193 l 151 193 l 151 195 l 137 195 m 118 195 q 123 190 119 190 l 126 195 l 118 195 m 94 195 l 94 193 l 110 193 l 110 195 l 94 195 m 213 203 l 213 201 l 221 190 q 229 193 227 193 l 229 195 q 218 203 218 195 l 213 203 m 123 209 l 123 198 l 129 198 l 129 201 q 126 209 126 206 l 123 209 m 205 214 l 205 212 l 213 212 l 213 214 l 205 214 m 137 217 l 137 214 l 142 214 l 142 217 l 137 217 m 75 214 l 80 212 l 107 212 q 113 217 113 212 l 107 220 l 102 220 q 91 217 96 220 q 80 220 86 220 q 75 214 75 219 m 23 212 q 31 209 31 212 q 64 217 64 212 q 56 220 58 220 l 50 217 q 39 220 45 220 q 23 212 23 217 m 205 225 l 205 217 q 210 222 210 217 l 205 225 m 155 22 l 142 33 l 134 33 l 123 24 l 118 24 q 110 41 118 39 l 110 27 l 113 22 q 110 19 110 22 l 104 22 q 88 16 94 16 l 88 11 l 94 11 l 94 5 l 75 0 l 69 0 l 69 5 l 66 5 l 58 0 l 34 0 q 23 52 27 0 l 28 54 l 23 65 l 26 71 l 23 76 q 26 79 23 79 l 23 98 l 23 106 q 37 114 23 113 l 37 117 q 23 122 23 117 l 23 144 l 20 157 q 37 165 37 163 l 50 163 l 58 163 l 72 165 l 72 168 l 69 174 l 50 171 l 26 171 q 20 176 20 171 l 20 179 q 23 182 20 182 l 20 187 l 20 247 q 26 252 21 252 l 31 252 q 104 277 74 252 q 140 274 138 274 l 156 277 l 156 279 q 107 288 107 279 q 142 309 125 309 q 161 285 157 298 l 164 285 l 164 282 l 161 277 q 197 250 172 277 q 221 244 221 248 l 227 247 l 229 247 q 232 244 232 247 l 237 247 l 240 247 q 248 187 248 247 l 245 187 l 248 182 q 240 174 248 178 q 88 168 215 174 l 85 163 l 91 160 q 202 163 161 163 l 205 163 l 205 157 l 210 157 l 210 163 l 227 163 q 232 146 227 146 q 235 149 232 149 l 232 163 l 232 165 l 243 165 q 248 160 248 165 q 237 157 243 157 l 237 155 q 248 125 248 155 l 243 125 q 235 138 243 138 q 232 136 235 136 q 248 100 240 109 l 248 57 q 243 52 248 52 l 218 54 l 216 49 q 235 43 227 49 q 245 46 239 46 q 251 41 251 45 l 251 30 q 243 22 251 28 l 210 24 l 191 24 q 186 20 186 24 l 196 14 q 224 11 216 11 l 243 11 q 248 5 248 10 l 240 0 l 232 0 q 229 3 229 0 l 224 0 l 223 0 l 224 -1 q 224 -12 224 -6 l 229 -12 l 229 -3 l 241 -9 q 243 -47 243 -27 l 243 -58 l 240 -72 q 243 -75 243 -72 q 240 -118 240 -102 l 240 -134 q 224 -151 240 -151 q 218 -142 218 -151 l 210 -148 l 189 -148 l 170 -151 q 164 -134 164 -142 l 167 -129 q 164 -126 164 -129 l 164 -99 l 170 -99 l 170 -75 l 172 -61 q 167 -56 168 -61 l 167 -23 q 161 -4 167 -4 q 155 22 161 11 z "},"-":{"ha":450,"x_min":20,"x_max":430,"o":"m 148 630 q 191 627 179 630 q 243 630 217 630 l 387 630 q 403 603 395 624 q 430 581 430 585 q 411 568 430 574 q 403 570 406 570 q 400 568 403 568 l 403 562 l 403 559 q 387 541 390 541 l 338 541 q 327 543 332 541 q 316 541 322 541 l 275 541 q 264 543 269 541 q 262 541 262 543 l 229 543 l 213 543 l 180 541 l 180 543 l 175 541 l 56 541 q 20 581 42 566 q 53 630 45 610 l 148 630 z "},".":{"ha":271,"x_min":20,"x_max":251,"o":"m 142 309 q 161 285 157 298 l 164 285 l 164 282 l 161 277 q 197 250 172 277 q 221 244 221 248 l 227 247 l 229 247 q 232 244 232 247 l 237 247 l 240 247 q 248 187 248 247 l 245 187 l 248 182 q 240 174 248 178 q 88 168 215 174 l 85 163 l 91 160 q 202 163 161 163 l 205 163 l 205 157 l 210 157 l 210 163 l 227 163 q 232 146 227 146 q 235 149 232 149 l 232 163 l 232 165 l 243 165 q 248 160 248 165 q 237 157 243 157 l 237 155 q 248 125 248 155 l 243 125 q 235 138 243 138 q 232 136 235 136 q 248 100 240 109 l 248 57 q 243 52 248 52 l 218 54 l 216 49 q 235 43 227 49 q 245 46 239 46 q 251 41 251 45 l 251 30 q 243 22 251 28 l 210 24 l 191 24 q 186 19 186 24 l 186 16 q 224 11 215 11 l 243 11 q 248 5 248 10 l 240 0 l 232 0 q 229 3 229 0 l 224 0 l 221 0 q 159 19 172 0 l 142 33 l 134 33 l 123 24 l 118 24 q 110 41 118 39 l 110 27 l 113 22 q 110 19 110 22 l 104 22 q 88 16 94 16 l 88 11 l 94 11 l 94 5 l 75 0 l 69 0 l 69 5 l 66 5 l 58 0 l 34 0 q 23 52 27 0 l 28 54 l 23 65 l 26 71 l 23 76 q 26 79 23 79 l 23 98 l 23 106 q 37 114 23 113 l 37 117 q 23 122 23 117 l 23 144 l 20 157 q 37 165 37 163 l 50 163 l 58 163 l 72 165 l 72 168 l 69 174 l 50 171 l 26 171 q 20 176 20 171 l 20 179 q 23 182 20 182 l 20 187 l 20 247 q 26 252 21 252 l 31 252 q 104 277 74 252 q 140 274 138 274 l 156 277 l 156 279 q 107 288 107 279 q 142 309 125 309 m 197 241 l 197 236 l 199 236 l 199 241 l 197 241 m 205 225 l 205 217 q 210 222 210 217 l 205 225 m 23 212 q 31 209 31 212 q 64 217 64 212 q 56 220 58 220 l 50 217 q 39 220 45 220 q 23 212 23 217 m 75 214 l 80 212 l 107 212 q 113 217 113 212 l 107 220 l 102 220 q 91 217 96 220 q 80 220 86 220 q 75 214 75 219 m 137 217 l 137 214 l 142 214 l 142 217 l 137 217 m 205 214 l 205 212 l 213 212 l 213 214 l 205 214 m 123 209 l 123 198 l 129 198 l 129 201 q 126 209 126 206 l 123 209 m 213 203 l 213 201 l 221 190 q 229 193 227 193 l 229 195 q 218 203 218 195 l 213 203 m 94 195 l 94 193 l 110 193 l 110 195 l 94 195 m 118 195 q 123 190 119 190 l 126 195 l 118 195 m 137 195 l 137 193 l 151 193 l 151 195 l 137 195 m 202 195 l 202 193 l 210 193 l 210 195 l 202 195 m 94 152 l 91 146 l 91 144 q 96 138 92 138 l 99 138 q 104 144 104 138 l 104 149 l 94 152 m 170 146 l 170 141 q 189 133 170 136 l 194 136 l 210 136 l 210 144 q 202 146 202 144 l 197 144 q 172 146 182 146 l 170 146 m 39 117 q 45 111 40 111 l 66 111 q 77 109 73 111 l 83 111 l 88 109 q 96 111 94 111 l 96 114 q 50 119 64 119 q 39 117 45 117 m 205 84 l 205 79 l 208 79 l 208 84 l 205 84 m 77 76 l 75 76 l 58 79 q 39 68 39 73 l 39 65 l 53 68 l 58 68 l 85 65 l 91 73 l 91 81 l 85 81 l 77 76 m 140 81 l 140 73 l 151 73 l 151 81 l 140 81 m 113 73 l 113 71 l 115 71 l 129 73 l 129 79 l 118 79 q 113 73 113 78 m 145 43 l 148 43 q 159 46 159 43 l 178 43 l 202 43 q 208 49 208 43 l 208 52 q 194 57 203 52 q 145 43 145 48 m 45 52 l 45 43 q 56 30 52 30 l 56 33 q 45 52 52 52 m 137 52 q 142 46 138 46 l 142 52 l 137 52 m 113 49 q 118 43 113 43 l 118 49 l 113 49 m 64 24 l 64 11 l 69 11 l 66 24 l 64 24 z "},"/":{"ha":728,"x_min":16,"x_max":675,"o":"m 458 1177 q 545 1142 519 1177 l 547 1142 q 606 1166 553 1142 q 644 1175 640 1175 q 672 1164 675 1172 l 661 1134 q 654 1123 659 1128 q 653 1112 655 1118 l 648 1107 q 648 1099 649 1101 q 642 1090 645 1090 q 637 1069 638 1072 q 584 920 597 955 q 531 909 576 915 q 481 849 506 909 l 471 819 q 465 811 469 817 q 464 800 466 806 l 458 784 q 451 773 455 778 q 450 762 452 768 l 444 749 q 441 746 444 746 l 441 741 l 432 716 q 421 694 428 705 q 416 673 420 684 l 412 662 l 404 648 l 410 648 l 408 643 q 431 583 393 603 l 429 578 l 391 556 q 362 521 370 540 l 357 507 l 349 507 l 347 502 q 354 499 355 502 q 345 483 346 485 l 346 477 l 341 472 q 343 469 340 469 l 335 456 l 329 439 q 328 429 327 433 q 321 418 323 424 l 318 410 l 315 393 q 308 382 310 389 q 307 372 309 378 q 291 366 296 366 l 292 361 q 284 355 286 360 l 283 353 q 294 339 299 352 q 278 317 293 336 l 270 317 l 264 323 q 253 315 262 319 l 250 315 q 248 317 248 315 l 242 315 l 233 320 l 229 315 l 225 307 q 229 301 224 301 l 231 301 l 233 307 l 239 307 l 237 301 q 254 312 252 307 q 281 304 283 310 l 280 301 q 260 290 270 290 l 259 288 l 270 288 l 276 290 q 309 252 279 252 l 315 255 q 331 247 332 252 l 328 239 q 324 236 327 236 q 326 233 323 233 q 320 225 325 231 l 315 206 l 308 193 q 295 152 302 169 l 293 146 l 281 144 q 280 111 283 119 l 277 111 l 278 106 l 275 98 q 255 87 274 94 l 242 90 l 243 84 q 239 81 240 84 l 227 84 l 202 84 l 204 90 l 210 90 l 214 87 l 219 92 l 218 98 l 223 103 q 224 114 222 108 l 230 114 l 232 119 l 229 119 q 220 117 222 117 l 212 95 l 201 95 l 197 84 l 183 84 q 179 95 184 88 l 180 98 q 201 117 197 106 q 197 119 195 117 l 190 117 l 187 117 l 193 133 q 201 138 196 138 l 239 138 l 241 144 l 224 144 q 219 165 221 144 q 250 176 246 176 l 251 179 q 242 184 247 179 l 237 184 q 205 157 233 175 q 194 149 197 157 l 189 149 l 189 152 l 201 163 q 199 171 196 163 l 191 171 q 187 146 186 151 l 174 146 l 175 149 l 183 157 l 184 160 q 176 165 174 160 q 186 174 177 170 l 189 187 l 190 190 q 203 203 195 203 q 193 225 209 218 q 176 217 190 219 q 174 220 177 220 l 172 214 q 172 206 173 209 l 169 206 l 170 201 l 169 198 q 154 187 163 198 q 159 179 158 187 q 151 174 157 174 q 146 187 150 187 q 138 190 146 190 q 131 184 136 184 q 126 193 127 184 q 148 214 144 205 l 141 212 l 138 212 q 135 217 133 212 q 159 222 137 222 q 159 231 158 228 q 184 252 161 234 l 176 269 q 214 298 202 298 l 215 301 q 206 320 201 301 l 214 334 l 221 353 q 223 366 224 361 l 232 382 l 238 399 q 239 410 240 405 q 246 420 244 414 l 245 426 q 252 437 250 431 q 252 442 254 442 l 258 453 q 272 496 260 457 l 279 510 q 270 572 296 555 q 260 583 260 578 l 262 589 q 323 640 311 610 q 334 662 330 659 l 338 681 q 374 770 368 753 l 389 781 q 389 789 388 787 l 387 789 l 385 784 l 379 784 l 384 798 q 385 806 387 806 l 392 819 l 409 865 q 380 917 425 917 l 355 917 l 351 920 q 412 1099 392 1038 q 441 1169 420 1115 q 458 1177 444 1175 m 477 1093 l 475 1088 l 478 1088 l 480 1093 l 477 1093 m 567 947 l 565 941 l 570 941 l 572 947 l 567 947 m 366 727 l 365 724 l 366 719 q 359 708 361 714 q 363 705 364 708 l 370 708 l 379 705 q 400 711 392 711 l 401 713 l 396 713 l 389 711 q 368 727 364 716 l 366 727 m 281 589 l 279 583 q 287 581 282 583 l 294 594 q 281 589 286 589 m 323 502 l 321 496 q 332 499 326 499 l 334 502 l 323 502 m 335 499 l 333 494 l 338 494 q 335 499 340 499 m 153 263 l 155 263 q 159 258 160 262 l 157 255 q 150 250 155 250 l 153 236 l 146 233 q 140 236 142 236 l 142 228 l 141 225 l 138 225 q 138 255 130 225 l 153 263 m 194 258 l 192 252 l 197 252 q 205 258 199 258 l 205 260 l 203 260 q 194 258 197 258 m 121 258 l 134 258 q 118 236 131 249 l 117 233 q 123 228 125 233 l 115 220 l 113 217 l 119 217 l 109 198 q 114 190 113 198 q 100 174 105 174 q 98 176 101 176 l 96 155 l 109 155 q 119 165 113 165 l 124 165 q 130 152 128 165 l 127 146 l 123 141 q 117 155 112 141 l 100 144 l 70 144 l 109 250 q 121 258 111 254 m 164 258 l 170 258 l 168 252 q 160 247 165 247 q 158 250 161 250 q 164 258 163 255 m 187 233 q 191 228 186 228 l 195 239 q 187 233 189 238 m 222 231 l 220 225 q 227 231 225 225 l 222 231 m 275 214 l 273 209 l 276 209 l 278 214 l 275 214 m 215 206 q 214 195 216 201 l 219 195 l 224 209 l 222 209 l 215 206 m 296 203 q 288 190 292 195 l 296 190 l 299 198 q 296 203 301 203 m 229 193 l 227 187 l 235 187 q 232 193 237 193 l 229 193 m 270 193 l 269 190 q 273 179 269 179 l 274 182 q 273 193 271 189 l 270 193 m 197 179 l 196 176 l 199 176 l 205 187 q 197 179 200 187 m 292 179 l 288 168 l 290 168 q 298 174 296 168 q 294 179 300 179 l 292 179 m 135 174 l 138 174 q 141 168 143 173 l 135 165 l 134 171 l 135 174 m 291 163 l 289 157 l 292 157 l 294 163 l 291 163 m 152 160 l 153 155 l 146 152 l 145 157 l 152 160 m 210 155 l 215 155 l 211 144 l 208 144 l 203 146 q 210 155 208 152 m 250 146 l 249 144 q 256 141 252 144 l 259 149 q 250 146 252 146 m 179 138 l 182 138 q 184 130 187 138 l 163 103 q 154 92 159 92 q 152 95 155 95 q 136 90 150 90 l 136 87 l 141 87 l 139 81 l 136 81 q 111 87 121 87 q 102 84 104 84 q 100 87 103 87 l 94 76 q 91 84 88 76 q 51 79 56 81 q 51 71 52 73 l 59 71 l 73 79 l 75 79 q 77 60 81 79 l 79 60 q 95 73 82 68 l 96 68 l 81 52 l 87 46 l 80 33 l 78 27 l 83 27 l 76 8 q 41 0 74 3 q 25 24 16 0 l 64 127 q 71 133 66 133 l 74 133 q 76 117 71 124 l 75 114 l 70 114 l 68 111 q 83 106 79 111 q 87 109 84 109 q 88 106 85 106 l 83 100 l 83 98 q 84 87 85 91 q 92 92 90 87 l 89 100 l 90 103 q 94 106 91 106 l 93 111 l 94 114 q 102 119 97 119 l 104 119 l 101 111 q 98 109 100 109 q 113 92 96 104 l 116 92 l 118 98 l 111 114 l 113 119 q 148 136 115 125 l 151 136 l 161 125 l 171 130 q 172 127 170 127 l 179 138 m 85 133 l 93 133 l 91 127 l 83 127 l 85 133 m 239 130 l 234 125 l 233 122 l 241 122 l 242 125 q 239 130 244 130 m 255 130 l 254 127 l 259 127 l 260 130 l 255 130 m 102 127 l 104 127 l 102 122 l 100 122 l 102 127 m 134 119 l 140 119 l 142 125 q 134 119 136 124 m 207 125 q 210 119 205 119 l 221 119 q 218 125 223 125 l 207 125 m 246 122 q 257 114 244 116 l 259 119 l 246 122 m 126 106 l 132 106 l 134 111 q 126 106 128 111 m 148 106 q 148 98 149 100 l 153 98 l 157 109 l 155 109 l 148 106 m 236 109 l 235 106 l 240 106 l 241 109 l 236 109 m 266 87 l 269 87 l 273 84 l 268 79 l 258 52 l 255 52 l 251 54 q 241 43 243 47 l 236 43 q 218 54 229 54 q 209 52 216 54 l 195 57 q 182 46 186 46 q 176 49 178 49 q 172 46 174 46 l 171 52 l 172 54 q 193 60 174 54 l 199 76 l 214 79 l 233 79 q 235 76 235 79 l 241 79 l 265 79 l 267 81 l 266 87 m 209 73 l 202 62 l 210 62 l 217 73 l 209 73 m 70 71 l 68 65 l 73 65 l 75 71 l 70 71 m 132 71 l 129 62 l 123 62 l 125 65 q 132 71 127 71 m 109 68 l 110 62 l 104 60 l 103 65 l 109 68 m 217 65 l 212 60 l 220 60 q 217 65 222 65 m 56 62 l 54 57 l 56 57 l 58 62 l 56 62 m 69 62 l 66 54 q 74 60 72 54 l 75 62 l 69 62 m 97 57 l 102 57 q 95 52 100 52 l 97 57 m 68 46 l 74 46 l 76 52 q 68 46 71 51 m 102 54 q 105 49 106 54 l 100 49 l 102 54 m 134 54 l 140 54 q 143 49 144 54 q 136 43 141 43 l 133 43 q 127 52 129 43 l 134 54 m 64 41 q 56 35 62 35 l 52 38 l 47 33 l 46 30 q 69 33 62 33 l 71 38 q 64 41 68 38 m 193 43 q 196 38 197 43 l 195 35 l 189 35 l 193 43 m 207 38 q 210 33 212 37 l 207 24 l 201 24 l 201 22 l 203 22 l 216 27 l 224 27 q 234 38 229 38 l 242 38 q 245 16 250 38 q 231 0 236 0 q 185 16 179 0 l 178 14 l 173 14 q 166 24 169 14 l 173 27 l 179 22 l 184 22 l 207 38 m 111 27 l 119 27 q 111 22 117 22 l 103 22 q 111 27 106 27 m 218 19 l 216 14 l 219 14 l 221 19 l 218 19 m 42 11 l 40 5 l 43 5 l 45 11 l 42 11 m 217 8 l 215 3 l 218 3 l 220 8 l 217 8 z "},":":{"ha":271,"x_min":20,"x_max":251,"o":"m 142 309 q 161 285 157 298 l 164 285 l 164 282 l 161 277 q 197 250 172 277 q 221 244 221 248 l 227 247 l 229 247 q 232 244 232 247 l 237 247 l 240 247 q 248 187 248 247 l 245 187 l 248 182 q 240 174 248 178 q 88 168 215 174 l 85 163 l 91 160 q 202 163 161 163 l 205 163 l 205 157 l 210 157 l 210 163 l 227 163 q 232 146 227 146 q 235 149 232 149 l 232 163 l 232 165 l 243 165 q 248 160 248 165 q 237 157 243 157 l 237 155 q 248 125 248 155 l 243 125 q 235 138 243 138 q 232 136 235 136 q 248 100 240 109 l 248 57 q 243 52 248 52 l 218 54 l 216 49 q 235 43 227 49 q 245 46 239 46 q 251 41 251 45 l 251 30 q 243 22 251 28 l 210 24 l 191 24 q 186 19 186 24 l 186 16 q 224 11 215 11 l 243 11 q 248 5 248 10 l 240 0 l 232 0 q 229 3 229 0 l 224 0 l 221 0 q 159 19 172 0 l 142 33 l 134 33 l 123 24 l 118 24 q 110 41 118 39 l 110 27 l 113 22 q 110 19 110 22 l 104 22 q 88 16 94 16 l 88 11 l 94 11 l 94 5 l 75 0 l 69 0 l 69 5 l 66 5 l 58 0 l 34 0 q 23 52 27 0 l 28 54 l 23 65 l 26 71 l 23 76 q 26 79 23 79 l 23 98 l 23 106 q 37 114 23 113 l 37 117 q 23 122 23 117 l 23 144 l 20 157 q 37 165 37 163 l 50 163 l 58 163 l 72 165 l 72 168 l 69 174 l 50 171 l 26 171 q 20 176 20 171 l 20 179 q 23 182 20 182 l 20 187 l 20 247 q 26 252 21 252 l 31 252 q 104 277 74 252 q 140 274 138 274 l 156 277 l 156 279 q 107 288 107 279 q 142 309 125 309 m 197 241 l 197 236 l 199 236 l 199 241 l 197 241 m 205 225 l 205 217 q 210 222 210 217 l 205 225 m 23 212 q 31 209 31 212 q 64 217 64 212 q 56 220 58 220 l 50 217 q 39 220 45 220 q 23 212 23 217 m 75 214 l 80 212 l 107 212 q 113 217 113 212 l 107 220 l 102 220 q 91 217 96 220 q 80 220 86 220 q 75 214 75 219 m 137 217 l 137 214 l 142 214 l 142 217 l 137 217 m 205 214 l 205 212 l 213 212 l 213 214 l 205 214 m 123 209 l 123 198 l 129 198 l 129 201 q 126 209 126 206 l 123 209 m 213 203 l 213 201 l 221 190 q 229 193 227 193 l 229 195 q 218 203 218 195 l 213 203 m 94 195 l 94 193 l 110 193 l 110 195 l 94 195 m 118 195 q 123 190 119 190 l 126 195 l 118 195 m 137 195 l 137 193 l 151 193 l 151 195 l 137 195 m 202 195 l 202 193 l 210 193 l 210 195 l 202 195 m 94 152 l 91 146 l 91 144 q 96 138 92 138 l 99 138 q 104 144 104 138 l 104 149 l 94 152 m 170 146 l 170 141 q 189 133 170 136 l 194 136 l 210 136 l 210 144 q 202 146 202 144 l 197 144 q 172 146 182 146 l 170 146 m 39 117 q 45 111 40 111 l 66 111 q 77 109 73 111 l 83 111 l 88 109 q 96 111 94 111 l 96 114 q 50 119 64 119 q 39 117 45 117 m 205 84 l 205 79 l 208 79 l 208 84 l 205 84 m 77 76 l 75 76 l 58 79 q 39 68 39 73 l 39 65 l 53 68 l 58 68 l 85 65 l 91 73 l 91 81 l 85 81 l 77 76 m 140 81 l 140 73 l 151 73 l 151 81 l 140 81 m 113 73 l 113 71 l 115 71 l 129 73 l 129 79 l 118 79 q 113 73 113 78 m 145 43 l 148 43 q 159 46 159 43 l 178 43 l 202 43 q 208 49 208 43 l 208 52 q 194 57 203 52 q 145 43 145 48 m 45 52 l 45 43 q 56 30 52 30 l 56 33 q 45 52 52 52 m 137 52 q 142 46 138 46 l 142 52 l 137 52 m 113 49 q 118 43 113 43 l 118 49 l 113 49 m 64 24 l 64 11 l 69 11 l 66 24 l 64 24 m 142 951 q 161 927 157 940 l 164 927 l 164 924 l 161 919 q 197 892 172 919 q 221 886 221 890 l 227 889 l 229 889 q 232 886 232 889 l 237 889 l 240 889 q 248 829 248 889 l 245 829 l 248 824 q 240 816 248 820 q 88 810 215 816 l 85 805 l 91 802 q 202 805 161 805 l 205 805 l 205 800 l 210 800 l 210 805 l 227 805 q 232 789 227 789 q 235 791 232 791 l 232 805 l 232 808 l 243 808 q 248 802 248 807 q 237 800 243 800 l 237 797 q 248 767 248 797 l 243 767 q 235 781 243 781 q 232 778 235 778 q 248 743 240 751 l 248 699 q 243 694 248 694 l 218 696 l 216 691 q 235 686 227 691 q 245 688 239 688 q 251 683 251 688 l 251 672 q 243 664 251 670 l 210 667 l 191 667 q 186 661 186 666 l 186 659 q 224 653 215 653 l 243 653 q 248 648 248 652 l 240 642 l 232 642 q 229 645 229 642 l 224 642 l 221 642 q 159 661 172 642 l 142 675 l 134 675 l 123 667 l 118 667 q 110 683 118 681 l 110 669 l 113 664 q 110 661 110 664 l 104 664 q 88 659 94 659 l 88 653 l 94 653 l 94 648 l 75 642 l 69 642 l 69 648 l 66 648 l 58 642 l 34 642 q 23 694 27 642 l 28 696 l 23 707 l 26 713 l 23 718 q 26 721 23 721 l 23 740 l 23 748 q 37 756 23 755 l 37 759 q 23 764 23 759 l 23 786 l 20 800 q 37 808 37 806 l 50 805 l 58 805 l 72 808 l 72 810 l 69 816 l 50 813 l 26 813 q 20 819 20 813 l 20 821 q 23 824 20 824 l 20 829 l 20 889 q 26 895 21 895 l 31 895 q 104 919 74 895 q 140 916 138 916 l 156 919 l 156 922 q 107 930 107 922 q 142 951 125 951 m 197 884 l 197 878 l 199 878 l 199 884 l 197 884 m 205 867 l 205 859 q 210 865 210 859 l 205 867 m 23 854 q 31 851 31 854 q 64 859 64 854 q 56 862 58 862 l 50 859 q 39 862 45 862 q 23 854 23 859 m 75 857 l 80 854 l 107 854 q 113 859 113 854 l 107 862 l 102 862 q 91 859 96 862 q 80 862 86 862 q 75 857 75 861 m 137 859 l 137 857 l 142 857 l 142 859 l 137 859 m 205 857 l 205 854 l 213 854 l 213 857 l 205 857 m 123 851 l 123 840 l 129 840 l 129 843 q 126 851 126 848 l 123 851 m 213 846 l 213 843 l 221 832 q 229 835 227 835 l 229 838 q 218 846 218 838 l 213 846 m 94 838 l 94 835 l 110 835 l 110 838 l 94 838 m 118 838 q 123 832 119 832 l 126 838 l 118 838 m 137 838 l 137 835 l 151 835 l 151 838 l 137 838 m 202 838 l 202 835 l 210 835 l 210 838 l 202 838 m 94 794 l 91 789 l 91 786 q 96 781 92 781 l 99 781 q 104 786 104 781 l 104 791 l 94 794 m 170 789 l 170 783 q 189 775 170 779 l 194 778 l 210 778 l 210 786 q 202 789 202 786 l 197 786 q 172 789 182 789 l 170 789 m 39 759 q 45 753 40 753 l 66 753 q 77 751 73 753 l 83 753 l 88 751 q 96 753 94 753 l 96 756 q 50 762 64 762 q 39 759 45 759 m 205 726 l 205 721 l 208 721 l 208 726 l 205 726 m 77 718 l 75 718 l 58 721 q 39 710 39 715 l 39 707 l 53 710 l 58 710 l 85 707 l 91 715 l 91 724 l 85 724 l 77 718 m 140 724 l 140 715 l 151 715 l 151 724 l 140 724 m 113 715 l 113 713 l 115 713 l 129 715 l 129 721 l 118 721 q 113 715 113 720 m 145 686 l 148 686 q 159 688 159 686 l 178 686 l 202 686 q 208 691 208 686 l 208 694 q 194 699 203 694 q 145 686 145 690 m 45 694 l 45 686 q 56 672 52 672 l 56 675 q 45 694 52 694 m 137 694 q 142 688 138 688 l 142 694 l 137 694 m 113 691 q 118 686 113 686 l 118 691 l 113 691 m 64 667 l 64 653 l 69 653 l 66 667 l 64 667 z "},";":{"ha":271,"x_min":20,"x_max":251,"o":"m 197 241 l 197 236 l 199 236 l 199 241 l 197 241 m 175 -26 l 175 -18 l 172 -18 l 172 -26 l 175 -26 m 213 -42 l 213 -39 l 208 -39 l 208 -42 l 213 -42 m 227 -45 q 229 -37 227 -42 q 227 -31 227 -37 l 224 -31 l 221 -45 l 227 -45 m 210 -72 l 210 -58 l 208 -58 l 205 -72 l 210 -72 m 221 -110 q 224 -75 224 -76 l 224 -72 q 216 -104 218 -72 q 218 -110 218 -104 l 221 -110 m 216 -140 l 216 -137 l 210 -137 l 210 -140 l 216 -140 m 64 24 l 64 11 l 69 11 l 66 24 l 64 24 m 113 49 q 118 43 113 43 l 118 49 l 113 49 m 137 52 q 142 46 138 46 l 142 52 l 137 52 m 45 52 l 45 43 q 56 30 52 30 l 56 33 q 45 52 52 52 m 145 43 l 148 43 q 159 46 159 43 l 178 43 l 202 43 q 208 49 208 43 l 208 52 q 194 57 203 52 q 145 43 145 48 m 113 73 l 113 71 l 115 71 l 129 73 l 129 79 l 118 79 q 113 73 113 78 m 140 81 l 140 73 l 151 73 l 151 81 l 140 81 m 77 76 l 75 76 l 58 79 q 39 68 39 73 l 39 65 l 53 68 l 58 68 l 85 65 l 91 73 l 91 81 l 85 81 l 77 76 m 205 84 l 205 79 l 208 79 l 208 84 l 205 84 m 39 117 q 45 111 40 111 l 66 111 q 77 109 73 111 l 83 111 l 88 109 q 96 111 94 111 l 96 114 q 50 119 64 119 q 39 117 45 117 m 170 146 l 170 141 q 189 133 170 136 l 194 136 l 210 136 l 210 144 q 202 146 202 144 l 197 144 q 172 146 182 146 l 170 146 m 94 152 l 91 146 l 91 144 q 96 138 92 138 l 99 138 q 104 144 104 138 l 104 149 l 94 152 m 202 195 l 202 193 l 210 193 l 210 195 l 202 195 m 137 195 l 137 193 l 151 193 l 151 195 l 137 195 m 118 195 q 123 190 119 190 l 126 195 l 118 195 m 94 195 l 94 193 l 110 193 l 110 195 l 94 195 m 213 203 l 213 201 l 221 190 q 229 193 227 193 l 229 195 q 218 203 218 195 l 213 203 m 123 209 l 123 198 l 129 198 l 129 201 q 126 209 126 206 l 123 209 m 205 214 l 205 212 l 213 212 l 213 214 l 205 214 m 137 217 l 137 214 l 142 214 l 142 217 l 137 217 m 75 214 l 80 212 l 107 212 q 113 217 113 212 l 107 220 l 102 220 q 91 217 96 220 q 80 220 86 220 q 75 214 75 219 m 23 212 q 31 209 31 212 q 64 217 64 212 q 56 220 58 220 l 50 217 q 39 220 45 220 q 23 212 23 217 m 205 225 l 205 217 q 210 222 210 217 l 205 225 m 155 22 l 142 33 l 134 33 l 123 24 l 118 24 q 110 41 118 39 l 110 27 l 113 22 q 110 19 110 22 l 104 22 q 88 16 94 16 l 88 11 l 94 11 l 94 5 l 75 0 l 69 0 l 69 5 l 66 5 l 58 0 l 34 0 q 23 52 27 0 l 28 54 l 23 65 l 26 71 l 23 76 q 26 79 23 79 l 23 98 l 23 106 q 37 114 23 113 l 37 117 q 23 122 23 117 l 23 144 l 20 157 q 37 165 37 163 l 50 163 l 58 163 l 72 165 l 72 168 l 69 174 l 50 171 l 26 171 q 20 176 20 171 l 20 179 q 23 182 20 182 l 20 187 l 20 247 q 26 252 21 252 l 31 252 q 104 277 74 252 q 140 274 138 274 l 156 277 l 156 279 q 107 288 107 279 q 142 309 125 309 q 161 285 157 298 l 164 285 l 164 282 l 161 277 q 197 250 172 277 q 221 244 221 248 l 227 247 l 229 247 q 232 244 232 247 l 237 247 l 240 247 q 248 187 248 247 l 245 187 l 248 182 q 240 174 248 178 q 88 168 215 174 l 85 163 l 91 160 q 202 163 161 163 l 205 163 l 205 157 l 210 157 l 210 163 l 227 163 q 232 146 227 146 q 235 149 232 149 l 232 163 l 232 165 l 243 165 q 248 160 248 165 q 237 157 243 157 l 237 155 q 248 125 248 155 l 243 125 q 235 138 243 138 q 232 136 235 136 q 248 100 240 109 l 248 57 q 243 52 248 52 l 218 54 l 216 49 q 235 43 227 49 q 245 46 239 46 q 251 41 251 45 l 251 30 q 243 22 251 28 l 210 24 l 191 24 q 186 20 186 24 l 196 14 q 224 11 216 11 l 243 11 q 248 5 248 10 l 240 0 l 232 0 q 229 3 229 0 l 224 0 l 223 0 l 224 -1 q 224 -12 224 -6 l 229 -12 l 229 -3 l 241 -9 q 243 -47 243 -27 l 243 -58 l 240 -72 q 243 -75 243 -72 q 240 -118 240 -102 l 240 -134 q 224 -151 240 -151 q 218 -142 218 -151 l 210 -148 l 189 -148 l 170 -151 q 164 -134 164 -142 l 167 -129 q 164 -126 164 -129 l 164 -99 l 170 -99 l 170 -75 l 172 -61 q 167 -56 168 -61 l 167 -23 q 161 -4 167 -4 q 155 22 161 11 m 142 951 q 161 927 157 940 l 164 927 l 164 924 l 161 919 q 197 892 172 919 q 221 886 221 890 l 227 889 l 229 889 q 232 886 232 889 l 237 889 l 240 889 q 248 829 248 889 l 245 829 l 248 824 q 240 816 248 820 q 88 810 215 816 l 85 805 l 91 802 q 202 805 161 805 l 205 805 l 205 800 l 210 800 l 210 805 l 227 805 q 232 789 227 789 q 235 791 232 791 l 232 805 l 232 808 l 243 808 q 248 802 248 807 q 237 800 243 800 l 237 797 q 248 767 248 797 l 243 767 q 235 781 243 781 q 232 778 235 778 q 248 743 240 751 l 248 699 q 243 694 248 694 l 218 696 l 216 691 q 235 686 227 691 q 245 688 239 688 q 251 683 251 688 l 251 672 q 243 664 251 670 l 210 667 l 191 667 q 186 661 186 666 l 186 659 q 224 653 215 653 l 243 653 q 248 648 248 652 l 240 642 l 232 642 q 229 645 229 642 l 224 642 l 221 642 q 159 661 172 642 l 142 675 l 134 675 l 123 667 l 118 667 q 110 683 118 681 l 110 669 l 113 664 q 110 661 110 664 l 104 664 q 88 659 94 659 l 88 653 l 94 653 l 94 648 l 75 642 l 69 642 l 69 648 l 66 648 l 58 642 l 34 642 q 23 694 27 642 l 28 696 l 23 707 l 26 713 l 23 718 q 26 721 23 721 l 23 740 l 23 748 q 37 756 23 755 l 37 759 q 23 764 23 759 l 23 786 l 20 800 q 37 808 37 806 l 50 805 l 58 805 l 72 808 l 72 810 l 69 816 l 50 813 l 26 813 q 20 819 20 813 l 20 821 q 23 824 20 824 l 20 829 l 20 889 q 26 895 21 895 l 31 895 q 104 919 74 895 q 140 916 138 916 l 156 919 l 156 922 q 107 930 107 922 q 142 951 125 951 m 197 884 l 197 878 l 199 878 l 199 884 l 197 884 m 205 867 l 205 859 q 210 865 210 859 l 205 867 m 23 854 q 31 851 31 854 q 64 859 64 854 q 56 862 58 862 l 50 859 q 39 862 45 862 q 23 854 23 859 m 75 857 l 80 854 l 107 854 q 113 859 113 854 l 107 862 l 102 862 q 91 859 96 862 q 80 862 86 862 q 75 857 75 861 m 137 859 l 137 857 l 142 857 l 142 859 l 137 859 m 205 857 l 205 854 l 213 854 l 213 857 l 205 857 m 123 851 l 123 840 l 129 840 l 129 843 q 126 851 126 848 l 123 851 m 213 846 l 213 843 l 221 832 q 229 835 227 835 l 229 838 q 218 846 218 838 l 213 846 m 94 838 l 94 835 l 110 835 l 110 838 l 94 838 m 118 838 q 123 832 119 832 l 126 838 l 118 838 m 137 838 l 137 835 l 151 835 l 151 838 l 137 838 m 202 838 l 202 835 l 210 835 l 210 838 l 202 838 m 94 794 l 91 789 l 91 786 q 96 781 92 781 l 99 781 q 104 786 104 781 l 104 791 l 94 794 m 170 789 l 170 783 q 189 775 170 779 l 194 778 l 210 778 l 210 786 q 202 789 202 786 l 197 786 q 172 789 182 789 l 170 789 m 39 759 q 45 753 40 753 l 66 753 q 77 751 73 753 l 83 753 l 88 751 q 96 753 94 753 l 96 756 q 50 762 64 762 q 39 759 45 759 m 205 726 l 205 721 l 208 721 l 208 726 l 205 726 m 77 718 l 75 718 l 58 721 q 39 710 39 715 l 39 707 l 53 710 l 58 710 l 85 707 l 91 715 l 91 724 l 85 724 l 77 718 m 140 724 l 140 715 l 151 715 l 151 724 l 140 724 m 113 715 l 113 713 l 115 713 l 129 715 l 129 721 l 118 721 q 113 715 113 720 m 145 686 l 148 686 q 159 688 159 686 l 178 686 l 202 686 q 208 691 208 686 l 208 694 q 194 699 203 694 q 145 686 145 690 m 45 694 l 45 686 q 56 672 52 672 l 56 675 q 45 694 52 694 m 137 694 q 142 688 138 688 l 142 694 l 137 694 m 113 691 q 118 686 113 686 l 118 691 l 113 691 m 64 667 l 64 653 l 69 653 l 66 667 l 64 667 z "},"<":{"ha":688,"x_min":0,"x_max":0,"o":""},"=":{"ha":450,"x_min":20,"x_max":430,"o":"m 148 767 q 191 764 179 767 q 243 767 217 767 l 387 767 q 403 740 395 761 q 430 718 430 722 q 411 705 430 711 q 403 707 406 707 q 400 705 403 705 l 403 699 l 403 696 q 387 677 390 677 l 338 677 q 327 680 332 677 q 316 677 322 677 l 275 677 q 264 680 269 677 q 262 677 262 680 l 229 680 l 213 680 l 180 677 l 180 680 l 175 677 l 56 677 q 20 718 42 703 q 53 767 45 747 l 148 767 m 148 499 q 191 496 179 499 q 243 499 217 499 l 387 499 q 403 472 395 493 q 430 450 430 454 q 411 437 430 444 q 403 439 406 439 q 400 437 403 437 l 403 431 l 403 429 q 387 410 390 410 l 338 410 q 327 412 332 410 q 316 410 322 410 l 275 410 q 264 412 269 410 q 262 410 262 412 l 229 412 l 213 412 l 180 410 l 180 412 l 175 410 l 56 410 q 20 450 42 435 q 53 499 45 479 l 148 499 z "},">":{"ha":688,"x_min":0,"x_max":0,"o":""},"?":{"ha":378,"x_min":7,"x_max":357,"o":"m 156 309 q 175 285 171 298 l 178 285 l 178 282 l 175 277 q 210 250 186 277 q 235 244 235 248 l 240 247 l 243 247 q 245 244 245 247 l 251 247 l 254 247 q 262 187 262 247 l 259 187 l 262 182 q 254 174 262 178 q 102 168 229 174 l 99 163 l 104 160 q 216 163 175 163 l 218 163 l 218 157 l 224 157 l 224 163 l 240 163 q 245 146 240 146 q 248 149 245 149 l 245 163 l 245 165 l 256 165 q 262 160 262 165 q 251 157 257 157 l 251 155 q 262 125 262 155 l 256 125 q 248 138 256 138 q 245 136 248 136 q 262 100 254 109 l 262 57 q 256 52 262 52 l 232 54 l 229 49 q 248 43 240 49 q 259 46 253 46 q 264 41 264 45 l 264 30 q 256 22 264 28 l 224 24 l 205 24 q 199 19 199 24 l 199 16 q 237 11 229 11 l 256 11 q 262 5 262 10 l 254 0 l 245 0 q 243 3 243 0 l 237 0 l 235 0 q 172 19 185 0 l 156 33 l 148 33 l 137 24 l 132 24 q 123 41 132 39 l 123 27 l 126 22 q 123 19 123 22 l 118 22 q 102 16 107 16 l 102 11 l 107 11 l 107 5 l 88 0 l 83 0 l 83 5 l 80 5 l 72 0 l 47 0 q 37 52 41 0 l 42 54 l 37 65 l 39 71 l 37 76 q 39 79 37 79 l 37 98 l 37 106 q 50 114 37 113 l 50 117 q 37 122 37 117 l 37 144 l 34 157 q 50 165 50 163 l 64 163 l 72 163 l 85 165 l 85 168 l 83 174 l 64 171 l 39 171 q 34 176 34 171 l 34 179 q 37 182 34 182 l 34 187 l 34 247 q 39 252 35 252 l 45 252 q 118 277 87 252 q 153 274 152 274 l 170 277 l 170 279 q 121 288 121 279 q 156 309 139 309 m 210 241 l 210 236 l 213 236 l 213 241 l 210 241 m 218 225 l 218 217 q 224 222 224 217 l 218 225 m 37 212 q 45 209 45 212 q 77 217 77 212 q 69 220 72 220 l 64 217 q 53 220 59 220 q 37 212 37 217 m 88 214 l 94 212 l 121 212 q 126 217 126 212 l 121 220 l 115 220 q 104 217 109 220 q 94 220 100 220 q 88 214 88 219 m 151 217 l 151 214 l 156 214 l 156 217 l 151 217 m 218 214 l 218 212 l 227 212 l 227 214 l 218 214 m 137 209 l 137 198 l 142 198 l 142 201 q 140 209 140 206 l 137 209 m 227 203 l 227 201 l 235 190 q 243 193 240 193 l 243 195 q 232 203 232 195 l 227 203 m 107 195 l 107 193 l 123 193 l 123 195 l 107 195 m 132 195 q 137 190 132 190 l 140 195 l 132 195 m 151 195 l 151 193 l 164 193 l 164 195 l 151 195 m 216 195 l 216 193 l 224 193 l 224 195 l 216 195 m 107 152 l 104 146 l 104 144 q 110 138 105 138 l 113 138 q 118 144 118 138 l 118 149 l 107 152 m 183 146 l 183 141 q 202 133 183 136 l 208 136 l 224 136 l 224 144 q 216 146 216 144 l 210 144 q 186 146 195 146 l 183 146 m 53 117 q 58 111 54 111 l 80 111 q 91 109 86 111 l 96 111 l 102 109 q 110 111 107 111 l 110 114 q 64 119 78 119 q 53 117 59 117 m 218 84 l 218 79 l 221 79 l 221 84 l 218 84 m 91 76 l 88 76 l 72 79 q 53 68 53 73 l 53 65 l 66 68 l 72 68 l 99 65 l 104 73 l 104 81 l 99 81 l 91 76 m 153 81 l 153 73 l 164 73 l 164 81 l 153 81 m 126 73 l 126 71 l 129 71 l 142 73 l 142 79 l 132 79 q 126 73 126 78 m 159 43 l 161 43 q 172 46 172 43 l 191 43 l 216 43 q 221 49 221 43 l 221 52 q 208 57 216 52 q 159 43 159 48 m 58 52 l 58 43 q 69 30 66 30 l 69 33 q 58 52 66 52 m 151 52 q 156 46 151 46 l 156 52 l 151 52 m 126 49 q 132 43 127 43 l 132 49 l 126 49 m 77 24 l 77 11 l 83 11 l 80 24 l 77 24 m 96 338 q 121 499 79 431 q 157 581 157 567 q 143 613 157 597 l 143 618 l 146 624 q 157 618 157 622 q 216 651 179 619 l 227 651 l 227 665 l 222 673 q 233 681 233 677 q 230 689 230 686 q 265 825 265 736 q 268 833 268 825 q 214 909 250 909 q 181 917 214 916 q 92 852 92 917 q 89 849 89 852 q 92 846 89 846 q 86 719 86 795 l 78 713 l 16 713 q 7 730 12 713 l 10 743 l 10 865 q 7 876 10 871 q 10 887 10 881 l 10 903 l 7 917 l 10 917 q 7 920 10 920 l 10 933 l 10 949 q 56 1099 10 1011 q 189 1166 104 1166 l 192 1166 q 195 1164 195 1166 q 197 1166 197 1164 q 314 1082 258 1166 q 352 944 341 1032 q 349 941 352 941 q 357 846 355 857 q 319 694 342 731 q 317 697 319 697 l 309 686 l 314 678 q 279 605 314 670 q 262 567 265 586 l 262 559 q 273 526 273 529 q 260 518 273 520 l 260 521 q 185 446 220 521 q 175 337 166 392 l 96 338 m 208 1061 l 214 1061 l 214 1066 q 208 1061 208 1065 m 54 955 l 54 952 l 59 952 l 59 960 q 54 955 54 960 m 13 944 q 18 939 14 939 l 21 939 l 21 944 l 13 944 m 32 884 l 32 879 q 37 884 37 879 l 32 884 m 56 871 q 62 860 62 864 l 64 860 l 64 863 q 62 871 62 868 l 56 871 z "},"@":{"ha":1369,"x_min":0,"x_max":0,"o":""},"A":{"ha":507,"x_min":20,"x_max":487,"o":"m 197 1183 l 199 1183 q 245 1164 215 1183 q 283 1183 277 1183 l 286 1183 q 292 1175 292 1183 l 300 1180 l 305 1172 l 305 1150 q 319 1039 311 1080 l 316 1039 q 332 914 332 948 l 327 914 q 311 930 311 922 q 302 920 307 930 q 327 906 318 906 l 327 903 l 332 906 l 335 906 q 338 865 338 872 q 335 863 335 865 l 330 865 l 311 865 q 305 860 305 865 q 343 841 343 860 q 346 787 346 794 q 343 779 343 781 q 354 735 354 779 q 357 727 357 735 l 354 727 l 376 632 q 419 591 383 618 l 419 586 q 387 537 387 559 q 389 526 389 532 l 389 515 l 387 515 l 381 518 l 378 507 l 384 510 q 397 437 391 484 q 392 431 392 436 l 392 429 q 406 361 403 429 l 406 355 q 400 350 406 350 q 368 380 378 370 l 368 377 l 411 326 l 411 320 q 357 315 381 315 q 362 309 357 309 l 403 309 q 408 317 408 309 l 414 317 l 414 309 q 422 282 422 285 q 419 274 419 277 l 422 274 q 430 277 427 277 q 460 263 430 270 q 481 266 479 266 q 487 250 487 257 l 487 231 l 481 231 l 481 225 l 487 225 l 487 220 q 484 217 487 217 l 487 212 l 487 163 q 484 117 487 149 q 468 127 468 117 q 471 136 471 133 l 457 136 l 452 138 l 454 144 l 454 149 q 403 184 434 149 l 400 198 l 406 198 l 406 201 l 403 201 q 395 198 397 198 q 389 214 389 207 l 395 214 q 384 233 384 225 l 381 233 l 381 225 l 376 225 q 373 233 376 233 q 365 231 368 231 q 362 233 365 233 l 362 231 q 378 206 374 206 q 400 176 387 204 q 427 149 408 176 q 441 138 435 149 l 441 136 q 384 138 393 138 q 378 133 384 133 l 376 133 l 340 146 l 327 144 q 267 184 319 144 l 267 193 l 273 201 l 267 209 q 286 217 267 215 l 311 214 q 324 220 319 220 l 324 222 l 305 225 l 273 225 q 267 231 267 225 l 267 258 q 302 266 267 263 q 305 263 302 263 q 321 279 305 267 l 327 277 q 330 279 327 279 l 327 293 l 327 296 q 332 301 328 301 l 338 298 l 338 304 q 327 345 332 311 q 335 353 331 345 q 313 423 324 353 l 308 426 l 262 426 l 262 431 l 267 431 l 267 434 q 262 439 267 439 l 259 439 q 254 426 259 426 q 224 423 248 426 q 221 426 221 423 q 189 412 189 426 q 186 396 186 408 l 172 399 l 170 399 l 170 393 q 183 382 178 393 l 183 366 q 178 361 183 361 l 161 385 l 156 385 q 132 377 156 377 l 132 366 l 153 366 q 148 350 153 361 q 156 347 153 347 l 153 342 l 159 342 l 159 345 l 156 350 q 164 363 164 350 q 159 369 159 363 l 159 372 l 161 372 q 175 358 165 372 l 175 347 l 170 339 q 178 336 172 339 l 175 331 l 175 304 q 210 260 175 279 l 224 263 q 240 255 240 262 q 237 252 240 252 l 240 239 l 240 209 q 235 203 240 203 q 186 258 195 239 l 170 255 l 170 258 l 164 255 l 159 255 l 159 260 l 153 260 l 153 255 l 148 255 l 148 260 l 126 260 l 121 263 l 118 258 l 118 255 l 121 255 q 129 258 126 258 q 153 247 129 250 q 164 250 158 250 l 164 247 l 170 250 l 180 250 q 208 217 184 250 l 202 214 l 183 214 l 183 217 l 186 222 q 172 233 184 222 l 167 225 q 170 217 170 220 q 167 209 167 212 l 170 209 q 175 214 175 209 q 199 198 185 210 l 213 203 q 240 193 240 197 l 240 176 q 235 171 240 171 q 216 187 222 171 l 208 193 l 208 184 q 240 155 216 170 q 237 111 237 127 l 227 109 q 218 111 221 111 l 218 106 q 232 92 218 102 l 235 92 l 235 100 l 240 100 l 240 87 q 224 79 237 79 q 221 87 224 87 l 210 84 q 202 87 205 87 q 216 73 202 83 q 218 62 218 68 l 194 62 q 183 65 188 62 q 148 60 177 62 l 148 57 q 153 52 149 52 q 170 57 161 52 l 175 54 l 189 57 q 224 46 192 57 q 237 54 224 51 l 240 49 l 240 43 q 221 30 232 30 l 221 27 q 240 19 240 25 q 213 11 216 11 q 202 14 208 14 q 197 8 202 8 l 194 8 q 189 14 189 8 q 194 19 194 14 l 194 24 l 178 27 q 172 22 178 22 q 167 27 172 27 l 159 22 q 153 27 153 22 q 161 30 159 30 l 161 33 q 148 41 154 33 q 137 33 137 37 q 151 27 151 33 q 148 24 148 27 l 137 30 l 113 16 l 107 19 l 104 19 l 104 16 l 110 16 q 72 0 93 0 q 69 3 69 0 q 66 0 66 3 l 47 3 l 39 3 q 28 8 39 8 l 28 24 l 31 24 q 58 14 39 17 l 61 14 l 61 16 q 53 27 53 16 q 69 33 64 33 l 69 38 l 42 35 l 37 35 q 31 41 31 35 q 42 57 42 43 q 31 68 31 60 l 26 65 l 23 65 q 42 73 23 71 l 47 71 q 58 73 52 73 q 28 81 58 79 q 26 79 28 79 l 23 84 l 23 92 l 26 92 l 31 90 q 37 95 32 95 l 34 100 q 37 109 37 106 q 34 111 34 109 q 69 117 46 117 q 96 109 96 115 q 56 98 56 102 q 80 87 80 98 q 72 76 76 76 l 66 76 l 66 79 q 69 87 69 84 q 61 84 64 84 l 61 81 q 77 60 77 67 q 56 57 75 57 l 56 54 q 66 46 66 53 l 110 52 q 126 41 115 41 q 134 60 134 54 q 126 68 130 60 q 129 71 129 68 l 118 71 q 107 54 118 59 l 80 65 l 80 73 l 85 73 l 91 71 l 107 81 l 102 84 l 88 84 l 85 98 l 99 98 q 121 73 101 98 q 129 76 126 76 q 137 73 134 73 q 115 92 115 88 l 115 98 l 134 98 q 151 103 142 98 l 161 90 q 140 81 146 81 l 140 76 l 172 76 q 183 73 178 76 q 194 81 194 77 q 183 92 183 81 l 178 92 l 178 84 l 172 84 l 172 87 q 175 95 175 92 q 159 109 163 109 q 129 106 140 106 q 94 127 107 112 q 88 122 88 127 l 75 125 q 45 122 63 125 q 34 130 34 126 l 34 141 q 56 146 34 146 l 56 149 q 34 157 34 149 l 34 160 q 42 165 34 165 l 42 168 l 37 168 l 37 179 q 39 182 37 182 q 37 193 37 186 l 28 193 l 31 187 l 31 165 l 28 152 l 23 152 l 23 160 l 28 168 q 20 184 24 168 l 23 198 q 20 247 20 224 l 23 252 q 31 250 26 252 q 69 252 54 252 l 80 252 l 80 258 q 64 260 68 258 l 47 258 l 28 258 l 28 263 l 53 263 q 96 288 63 263 l 99 288 l 99 293 q 91 296 96 293 l 104 336 q 102 345 102 342 l 107 347 q 121 334 109 340 l 132 334 q 137 339 137 334 q 132 345 132 339 l 126 342 l 123 342 l 123 347 l 140 347 q 134 353 140 353 l 110 353 q 104 358 104 353 l 123 532 q 91 586 123 559 l 88 591 l 94 594 l 96 594 q 186 540 144 584 l 189 545 l 189 548 q 151 578 158 578 q 102 600 111 600 l 102 602 q 137 711 137 619 q 156 844 139 711 q 153 846 156 846 q 164 941 164 895 l 178 941 l 167 952 l 167 968 q 172 974 168 974 q 191 966 182 966 l 194 966 l 170 982 q 180 1031 175 1031 l 178 1036 q 197 1183 185 1183 m 292 1166 l 292 1164 l 297 1164 l 297 1166 l 292 1166 m 254 1158 l 254 1156 l 259 1156 l 259 1158 l 254 1158 m 232 1126 l 232 1123 q 237 1118 233 1118 l 237 1126 l 232 1126 m 218 1109 l 218 1104 l 221 1104 q 227 1109 227 1104 l 218 1109 m 183 1066 l 183 1063 l 191 1063 l 191 1066 l 183 1066 m 210 1039 q 218 1031 210 1035 l 218 1034 q 213 1039 218 1039 l 210 1039 m 232 1025 q 283 998 269 998 q 235 1025 252 1025 l 232 1025 m 183 939 q 189 933 184 933 l 194 933 q 189 939 194 939 l 183 939 m 243 922 l 243 920 q 237 884 241 884 q 240 882 237 882 q 227 795 231 802 l 229 789 q 221 743 224 743 q 224 741 221 741 q 218 694 220 698 q 221 692 218 692 q 216 665 218 665 l 218 659 l 218 651 q 216 648 218 648 q 256 600 225 600 l 259 600 q 283 635 283 618 q 281 651 281 649 l 283 651 l 273 713 q 275 716 273 716 q 256 854 262 801 q 278 860 273 860 l 278 865 l 259 865 q 248 922 252 865 l 243 922 m 210 914 l 210 911 l 218 911 l 218 914 l 210 914 m 292 914 l 292 911 l 297 911 l 297 914 l 292 914 m 210 903 l 210 898 l 213 898 l 213 903 l 210 903 m 175 860 l 180 857 l 186 857 l 202 860 q 210 857 208 857 q 221 860 215 860 q 227 854 222 854 l 229 860 q 224 865 229 865 l 218 863 l 208 865 l 202 863 l 186 865 l 180 865 q 175 860 175 865 m 180 787 l 180 781 l 189 781 l 189 787 l 180 787 m 170 689 l 170 681 l 178 681 l 178 684 q 172 689 178 689 l 170 689 m 145 654 l 145 648 l 151 648 q 145 654 151 654 m 180 608 l 180 602 l 186 602 l 186 608 l 180 608 m 178 529 l 178 515 l 186 515 q 191 524 186 524 l 197 524 l 210 510 l 221 521 l 221 518 l 251 524 q 254 521 254 524 q 262 524 256 521 q 283 521 281 521 q 300 529 300 524 l 300 532 l 297 537 q 308 540 302 540 l 308 543 q 289 559 295 543 q 245 583 289 571 q 199 540 232 583 q 178 529 178 533 m 340 543 l 340 540 l 349 540 l 349 543 l 340 543 m 368 532 l 368 529 q 373 518 373 522 l 378 518 l 376 534 q 368 532 370 532 m 357 521 l 357 515 l 362 515 l 362 521 l 357 521 m 305 510 l 305 507 l 311 507 l 311 510 l 305 510 m 357 507 l 357 499 l 362 499 l 362 507 l 357 507 m 368 499 l 373 496 l 376 502 l 376 505 l 373 505 q 368 499 368 504 m 227 494 l 227 491 q 245 458 236 485 q 254 448 254 458 l 259 448 l 259 450 q 229 494 241 494 l 227 494 m 286 458 l 283 448 l 289 445 l 289 458 l 286 458 m 132 456 l 132 450 l 137 450 l 137 456 l 132 456 m 292 442 l 297 442 l 297 448 q 292 442 292 447 m 319 442 l 319 439 q 324 434 319 434 l 327 434 l 327 437 q 321 442 327 442 l 319 442 m 335 439 l 335 434 l 340 434 l 340 439 l 335 439 m 153 429 l 159 420 q 156 412 156 415 l 161 412 q 164 420 161 415 q 161 429 161 426 l 153 429 m 172 429 l 172 420 q 180 418 175 420 q 183 420 180 420 q 180 429 180 426 l 172 429 m 340 412 l 340 410 q 349 401 340 406 l 351 407 l 351 410 l 340 412 m 115 388 l 123 388 q 137 404 127 388 q 115 388 121 404 m 110 366 l 110 358 l 115 358 l 115 366 l 110 366 m 118 366 l 118 363 l 123 363 l 123 366 l 118 366 m 378 345 q 387 336 378 340 l 387 339 q 381 345 387 345 l 378 345 m 142 312 l 142 307 l 145 307 l 145 312 l 142 312 m 110 301 q 107 293 110 298 q 110 290 110 293 l 123 293 l 126 293 q 137 285 126 286 q 159 293 159 288 l 153 296 l 123 296 l 115 301 l 110 301 m 164 296 l 164 285 q 172 288 170 288 q 164 296 172 292 m 384 296 l 384 290 l 387 290 l 387 296 l 384 296 m 161 277 l 170 277 l 170 282 l 167 282 q 161 277 161 281 m 115 274 l 102 274 l 102 269 l 110 269 q 121 266 116 269 q 148 274 144 274 l 148 277 l 145 277 l 129 274 l 123 274 q 121 277 121 274 l 115 274 m 338 271 l 338 266 l 351 263 l 365 266 l 365 271 l 338 271 m 370 266 q 378 263 373 266 l 381 269 l 381 271 l 376 271 q 370 266 370 271 m 422 266 l 422 263 l 433 263 l 433 266 l 422 266 m 164 263 l 164 260 l 178 260 l 178 263 l 164 263 m 349 258 q 359 247 351 249 l 362 252 l 354 258 l 349 258 m 305 255 l 305 250 l 308 250 l 308 255 l 305 255 m 321 255 l 319 244 q 327 247 324 247 l 327 250 q 321 255 327 255 m 213 247 q 208 239 213 239 q 216 228 212 228 l 221 228 l 218 233 l 224 241 q 218 247 224 247 l 213 247 m 23 239 l 23 236 q 37 228 28 236 q 45 233 37 233 l 45 244 l 34 244 q 23 239 27 239 m 121 244 l 118 239 l 118 236 l 123 236 q 129 241 129 236 q 121 244 126 241 m 275 236 l 275 231 q 281 236 281 231 l 275 236 m 91 231 l 77 231 q 83 225 78 225 q 126 228 111 228 l 129 228 q 134 233 134 228 l 132 233 q 123 231 129 233 q 115 233 121 231 q 91 231 100 231 m 148 228 l 156 228 l 156 233 l 153 233 q 148 228 148 233 m 42 228 l 42 225 l 47 225 l 47 228 l 42 228 m 50 228 l 50 225 q 66 212 56 212 l 66 217 q 50 228 61 217 m 31 222 q 34 201 34 212 l 37 201 q 39 214 37 214 q 37 225 37 219 l 31 222 m 132 212 q 151 206 145 206 l 153 212 q 140 217 140 212 l 145 220 q 148 217 145 217 l 151 222 q 148 225 148 222 q 132 212 137 225 m 335 225 l 332 220 l 340 220 q 335 225 340 225 m 94 220 l 94 214 l 96 214 l 96 220 l 94 220 m 449 217 q 441 209 449 209 q 449 187 449 197 l 454 187 l 454 190 l 452 203 l 457 203 l 457 198 q 465 206 461 198 q 454 214 454 210 q 457 217 457 214 l 449 217 m 414 214 l 414 212 l 427 209 q 422 214 427 214 l 414 214 m 330 209 l 324 201 l 324 198 l 327 198 q 370 195 366 195 q 378 198 376 198 q 362 209 378 201 l 354 203 q 330 209 334 206 m 278 201 l 278 198 l 292 195 l 294 195 q 300 201 300 195 l 300 203 l 297 203 l 278 201 m 167 201 l 167 193 l 178 193 q 183 198 183 193 l 183 201 l 167 201 m 411 198 l 411 193 l 419 193 q 414 198 419 198 l 411 198 m 427 198 l 427 193 l 433 193 q 427 198 433 198 m 104 184 l 107 179 l 113 182 l 134 182 l 134 187 l 121 190 l 110 190 q 104 184 104 189 m 80 187 l 80 184 q 94 176 85 184 q 99 182 99 176 q 94 187 99 187 l 80 187 m 283 184 q 308 176 283 178 l 313 184 l 311 184 l 300 182 l 283 184 m 172 179 l 172 174 l 180 174 q 175 179 180 179 l 172 179 m 270 176 l 297 149 l 297 146 q 292 141 297 141 l 289 141 q 286 144 286 141 l 281 141 l 267 149 l 270 163 l 267 168 q 270 176 270 174 m 148 168 l 148 165 q 164 163 162 163 l 164 168 l 148 168 m 172 163 l 172 157 l 180 146 q 175 141 175 146 l 175 138 l 194 141 q 175 163 178 163 l 172 163 m 465 157 l 465 155 l 479 152 l 484 152 l 484 155 l 471 157 l 465 157 m 221 155 l 221 149 l 227 149 q 221 155 227 155 m 77 152 l 80 146 q 88 149 85 149 l 88 152 l 77 152 m 91 152 l 91 149 l 102 149 l 102 152 l 91 152 m 121 152 l 121 146 l 137 146 l 137 149 l 121 152 m 167 144 l 167 141 l 172 141 l 172 144 l 167 144 m 115 138 l 115 133 l 121 133 q 126 138 126 133 l 126 141 l 123 141 q 115 138 118 138 m 28 141 l 28 127 l 23 127 l 23 136 q 28 141 24 141 m 88 138 l 88 136 q 94 130 89 130 l 94 138 l 88 138 m 197 136 l 197 130 q 202 125 197 125 l 205 125 q 208 133 205 127 l 202 136 l 197 136 m 126 127 l 126 125 l 137 125 l 137 127 l 126 127 m 327 130 q 332 119 332 123 l 335 119 l 343 125 q 351 117 347 125 l 351 111 l 349 111 l 316 109 l 305 122 l 305 125 q 327 130 313 125 m 273 127 l 275 127 q 283 114 280 127 l 270 106 l 267 111 q 273 117 273 111 l 273 119 l 267 119 l 267 122 q 273 127 268 127 m 370 127 q 381 114 381 125 l 378 114 q 362 119 368 119 l 362 122 q 370 127 362 127 m 446 127 l 454 127 l 454 125 q 444 109 444 115 l 441 109 q 430 122 437 109 q 446 127 439 127 m 392 122 l 414 122 q 422 114 418 122 l 414 109 q 392 119 392 115 l 392 122 m 23 111 l 28 111 l 28 100 l 23 100 l 23 111 m 468 111 q 484 103 481 103 l 484 73 l 481 73 q 457 103 457 89 l 468 111 m 419 106 q 438 98 438 103 l 430 98 q 433 90 433 92 q 449 95 441 95 q 476 71 475 71 l 473 65 l 484 54 l 484 46 q 479 41 484 41 q 471 46 479 46 l 471 54 l 468 68 l 463 68 l 465 62 l 460 60 q 435 81 442 81 l 425 79 q 400 100 418 79 l 400 103 q 419 106 408 103 m 283 103 l 294 92 l 297 92 q 321 103 297 103 q 335 98 321 98 l 335 100 l 376 92 l 389 100 l 397 90 q 387 87 393 87 l 389 81 l 378 73 q 357 90 376 73 l 351 90 l 351 87 q 378 68 368 68 l 378 62 l 365 62 q 359 57 359 62 l 378 54 l 381 54 l 389 60 l 395 60 q 422 35 398 60 l 422 33 l 416 33 l 416 30 l 433 19 l 433 16 q 411 14 426 16 q 384 38 404 14 l 378 38 l 378 30 l 370 30 q 357 54 363 30 l 354 54 l 351 41 q 354 38 354 41 q 351 35 351 38 q 319 43 319 38 l 319 46 q 335 54 319 54 l 335 65 l 313 65 q 305 57 309 65 q 294 62 294 59 l 289 60 q 278 65 278 62 l 281 84 l 275 87 l 275 84 q 278 73 278 79 l 273 71 q 267 76 267 71 l 267 79 l 273 87 q 267 92 267 87 l 267 95 q 283 103 270 103 m 365 103 l 370 103 l 370 98 l 365 98 l 365 103 m 471 100 l 471 95 l 473 95 l 473 100 l 471 100 m 278 98 l 278 92 l 281 92 q 286 98 286 92 l 278 98 m 373 84 l 373 81 l 378 81 l 378 84 l 373 84 m 400 81 l 406 81 l 414 76 l 411 60 l 408 60 q 395 79 395 68 l 400 81 m 427 73 l 435 73 q 454 57 435 66 q 484 27 479 37 q 460 8 484 8 l 452 8 q 446 16 446 8 q 449 24 449 22 l 430 41 q 411 60 422 41 l 414 60 q 430 46 430 56 l 438 46 l 427 73 m 232 68 l 237 68 l 237 62 q 232 68 232 62 m 273 54 l 302 54 q 316 43 311 43 l 316 38 q 286 41 304 38 l 281 38 q 270 46 270 42 q 273 54 273 52 m 381 52 l 381 46 l 384 46 l 384 52 l 381 52 m 167 38 l 172 35 l 178 35 l 191 38 q 186 43 191 43 l 172 43 q 167 38 167 43 m 400 33 l 406 33 l 406 38 q 400 33 400 37 m 273 33 l 278 33 l 278 30 l 273 30 l 273 33 m 324 33 l 338 27 q 349 30 342 30 l 351 30 l 351 27 l 346 19 l 332 22 l 327 22 l 308 16 l 300 27 q 324 33 306 30 m 454 24 l 468 22 l 471 27 l 471 30 l 460 30 q 454 24 454 29 m 292 30 l 294 30 l 294 22 l 292 22 q 286 27 286 22 l 292 30 m 208 19 l 213 19 l 213 24 q 208 19 208 24 m 83 19 l 83 14 l 88 14 l 88 19 l 83 19 z "},"B":{"ha":499,"x_min":20,"x_max":479,"o":"m 28 1183 l 58 1183 q 142 1150 123 1183 q 229 1180 190 1180 l 259 1180 q 302 1169 302 1180 l 302 1164 l 308 1166 l 308 1156 l 300 1156 l 300 1150 l 297 1134 l 300 1128 q 297 1109 297 1127 l 305 1104 l 308 1104 l 305 1109 q 319 1145 309 1145 q 313 1161 313 1154 l 313 1169 q 411 1085 360 1169 q 441 930 441 1017 q 438 922 438 925 l 441 909 l 433 895 q 438 890 438 895 l 438 860 q 471 787 438 810 l 471 779 q 438 716 447 760 q 441 708 441 711 l 438 703 l 441 697 q 430 662 436 662 q 397 675 428 662 l 387 675 q 411 632 404 632 l 411 635 q 395 667 395 663 l 400 670 q 430 659 400 665 l 433 654 q 389 589 424 627 l 389 583 q 427 537 427 539 l 427 532 l 425 532 l 419 534 l 419 526 q 441 469 441 526 q 444 461 444 464 q 435 458 438 458 l 435 456 l 441 456 l 441 453 l 438 448 q 449 418 442 448 l 479 391 l 479 382 l 476 382 q 465 399 465 388 l 460 396 l 468 377 q 441 304 441 342 l 446 290 l 444 285 q 446 255 446 267 l 446 239 l 435 239 l 444 228 l 441 228 q 359 250 370 244 l 346 250 q 373 239 346 245 q 381 233 373 233 l 387 236 q 446 217 446 222 l 446 203 q 435 165 446 172 q 441 163 441 165 q 395 65 422 65 l 397 60 l 392 57 l 381 57 l 365 60 q 351 57 360 57 l 335 71 l 338 90 l 338 106 q 359 119 338 113 l 359 122 l 357 122 l 343 119 q 335 144 339 135 q 340 165 340 154 l 338 179 q 343 184 343 179 l 343 193 l 338 201 l 343 209 q 338 228 343 211 l 343 252 q 316 258 321 258 l 316 263 q 332 266 324 266 q 338 258 332 258 l 340 258 l 338 271 l 338 279 q 357 328 346 291 q 354 339 354 333 l 365 339 l 365 342 q 335 380 353 349 l 338 391 l 335 396 l 338 410 q 335 420 335 414 q 351 456 343 422 l 351 480 q 332 518 351 497 l 332 521 q 335 524 332 524 l 332 529 l 332 534 q 335 537 332 537 q 332 545 332 543 l 327 543 l 330 537 l 330 524 q 289 534 321 524 q 267 532 270 532 l 224 534 q 191 393 191 534 l 191 353 q 194 315 191 338 q 191 296 191 311 l 194 290 q 183 212 183 271 q 180 201 183 205 q 183 187 183 196 l 186 187 q 191 206 186 206 q 189 209 191 209 q 197 279 197 258 l 197 285 l 202 285 q 264 252 202 259 q 281 258 273 258 l 289 258 q 332 236 332 258 q 335 222 332 227 q 332 198 332 208 l 332 176 q 319 152 332 166 l 313 155 l 311 155 q 319 146 311 151 l 332 149 l 332 138 l 327 130 l 327 127 l 330 122 q 321 119 324 119 l 327 111 l 327 109 l 324 109 l 319 111 l 316 106 l 327 103 q 308 95 327 97 l 308 87 q 327 81 320 81 l 327 73 q 324 71 327 71 l 327 65 l 327 62 q 324 60 327 60 l 327 54 l 327 52 q 324 49 327 49 q 327 46 324 46 q 302 22 327 22 q 308 16 303 16 l 316 16 l 321 19 q 324 16 321 16 q 256 0 324 0 q 237 5 245 5 q 229 3 232 3 q 194 22 194 14 l 194 24 l 197 30 l 216 27 l 278 27 l 292 24 l 292 30 q 286 35 292 35 l 243 35 q 240 38 240 35 l 235 35 l 202 35 q 197 41 197 35 l 197 43 q 216 49 197 49 l 216 52 q 186 54 210 52 q 183 46 186 52 q 189 41 189 45 q 180 33 189 37 q 172 49 176 33 q 175 60 175 54 l 159 38 q 126 30 153 38 l 126 24 l 134 24 l 148 27 l 148 24 q 129 8 148 21 l 123 8 q 121 11 121 8 q 102 8 117 8 l 102 5 l 110 5 l 110 0 l 85 0 q 61 11 70 0 l 56 11 l 58 5 q 53 0 58 0 l 42 0 l 42 3 q 50 8 42 8 l 50 14 q 39 19 39 14 q 45 24 45 19 l 45 27 q 34 35 34 27 q 42 41 34 41 l 34 52 l 34 60 l 45 60 l 34 79 l 34 109 l 42 109 l 56 111 l 56 114 q 34 119 34 114 l 34 125 q 39 130 35 130 l 47 130 l 47 125 l 53 125 l 53 130 l 58 130 q 72 119 71 119 l 80 119 l 80 125 q 61 136 66 125 q 45 138 59 136 q 37 136 39 136 l 34 141 l 34 165 q 39 171 35 171 l 47 165 q 56 174 52 165 q 34 179 34 174 l 34 247 q 83 260 34 255 l 104 279 l 110 277 q 118 282 110 282 l 118 285 q 107 288 112 285 q 113 396 113 337 l 113 426 q 121 431 121 426 q 113 434 115 434 l 113 442 q 115 491 113 471 q 77 581 115 570 q 69 589 73 581 q 107 627 106 614 q 110 656 110 645 l 110 779 q 113 789 110 785 q 110 800 110 794 q 113 806 110 806 q 80 914 108 914 q 53 922 80 918 q 42 920 48 920 l 34 920 q 26 928 30 920 l 26 990 l 23 1004 l 42 1001 l 47 1001 l 47 1004 q 23 1015 47 1007 l 23 1023 q 56 1036 23 1028 q 58 1053 56 1048 l 56 1053 l 58 1058 l 58 1061 q 47 1074 50 1061 l 23 1088 l 28 1088 q 20 1093 28 1093 l 20 1118 q 23 1126 20 1126 l 20 1139 l 20 1161 q 28 1183 20 1181 m 164 1156 l 164 1147 l 172 1147 l 172 1150 q 167 1156 172 1156 l 164 1156 m 286 1147 l 286 1134 l 289 1134 q 292 1145 289 1140 l 286 1147 m 302 1142 l 308 1142 l 308 1137 l 302 1137 l 302 1142 m 316 1131 l 313 1099 l 313 1072 l 316 1072 q 319 1090 316 1087 q 316 1101 316 1095 l 319 1101 q 316 1104 319 1104 q 319 1120 316 1106 l 319 1131 l 316 1131 m 273 1118 l 273 1104 l 275 1104 l 275 1118 l 273 1118 m 297 1101 q 289 1042 289 1093 l 289 987 q 283 982 289 982 q 289 958 289 972 l 286 952 q 289 928 289 950 l 292 928 q 294 944 292 940 q 292 952 294 952 q 294 1006 294 989 l 294 1061 l 297 1093 l 302 1093 q 305 1085 302 1085 l 302 1074 q 313 1004 311 1010 q 311 996 311 998 l 313 990 q 305 952 308 975 l 313 947 l 313 949 l 311 955 q 319 963 313 955 l 316 974 q 319 990 316 976 l 316 1004 l 319 1009 q 308 1058 313 1052 l 308 1101 l 302 1099 l 297 1101 m 270 1085 l 270 1077 l 273 1077 l 273 1085 l 270 1085 m 28 1061 l 37 1050 l 37 1047 q 26 1036 37 1043 l 23 1042 l 23 1055 q 28 1061 24 1061 m 264 1053 l 264 1042 l 270 1044 q 267 1053 267 1050 l 264 1053 m 39 1023 q 45 1017 40 1017 l 45 1023 l 39 1023 m 53 998 q 80 985 53 989 q 83 982 80 982 l 85 982 l 85 987 l 56 998 l 53 998 m 256 987 l 256 977 q 262 982 262 977 q 256 987 262 987 m 69 977 q 96 963 69 969 l 99 963 l 99 966 q 72 977 78 977 l 69 977 m 118 977 l 118 971 q 145 963 138 968 l 148 963 l 148 968 q 118 977 125 977 m 256 968 l 254 955 l 259 955 l 259 968 l 256 968 m 175 963 l 175 958 q 189 952 180 958 l 189 958 q 178 963 184 958 l 175 963 m 104 958 l 104 955 q 113 949 104 949 l 115 949 l 115 952 q 104 958 111 952 m 199 952 l 199 947 l 202 947 l 202 952 l 199 952 m 359 949 l 359 947 l 368 947 l 368 949 l 359 949 m 208 947 l 208 944 l 213 944 l 213 947 l 208 947 m 308 941 l 308 936 l 311 936 l 311 941 l 308 941 m 251 939 l 248 933 l 254 930 l 256 930 l 256 933 q 251 939 256 939 m 305 930 q 300 917 305 917 q 292 922 292 920 l 286 920 l 281 922 q 256 917 262 920 q 254 925 254 922 l 251 925 q 218 911 251 916 q 191 857 204 911 l 191 803 q 189 757 191 778 q 191 716 191 745 l 191 711 q 189 673 191 696 q 235 627 201 627 l 245 627 q 321 648 321 636 l 324 648 q 330 637 324 637 l 330 643 l 324 651 q 354 716 342 651 q 305 781 354 760 l 305 784 q 351 860 351 812 q 311 920 351 886 l 311 930 l 305 930 m 167 917 q 172 911 168 911 l 175 911 q 170 917 175 917 l 167 917 m 416 803 l 416 798 l 419 798 l 419 803 l 416 803 m 408 716 l 408 713 l 414 713 l 414 716 l 408 716 m 156 703 l 156 700 q 161 705 161 700 l 161 708 q 156 703 156 707 m 121 692 l 121 689 l 126 689 l 126 692 l 121 692 m 175 667 l 175 662 q 180 667 180 662 l 175 667 m 349 654 l 349 651 q 354 646 349 646 l 362 646 l 362 654 l 349 654 m 324 635 l 324 627 l 327 627 l 327 635 l 324 635 m 397 632 l 397 627 l 400 627 l 400 632 l 397 632 m 254 624 l 254 616 q 259 621 259 616 l 259 624 l 254 624 m 224 621 l 221 589 l 221 572 l 224 572 q 227 610 224 587 l 227 621 l 224 621 m 327 621 l 327 616 l 332 616 l 332 621 l 327 621 m 327 608 l 327 602 l 332 602 q 327 608 332 608 m 161 605 l 161 602 l 167 602 l 167 605 l 161 605 m 327 597 l 327 581 l 330 581 q 335 591 330 591 q 343 589 340 589 l 343 591 q 338 597 343 597 l 327 597 m 340 583 q 346 572 346 576 l 349 572 l 349 583 l 340 583 m 327 562 l 327 559 q 332 553 328 553 l 332 562 l 327 562 m 218 559 l 218 548 l 221 548 l 221 559 l 218 559 m 216 543 l 216 537 l 221 537 q 216 543 221 543 m 357 543 l 357 540 q 365 534 357 534 l 368 534 l 368 537 q 357 543 363 537 m 387 537 l 387 532 q 392 526 387 526 l 392 537 l 387 537 m 359 532 l 357 526 l 357 524 q 365 510 365 515 l 370 510 l 370 513 q 359 532 363 532 m 370 502 l 370 494 q 376 488 371 488 l 376 494 q 373 502 373 499 l 370 502 m 376 486 l 376 483 q 381 477 376 477 l 381 480 q 376 486 381 486 m 378 464 q 387 461 381 464 l 387 469 l 384 469 q 378 464 378 469 m 433 467 l 433 461 l 435 461 l 435 467 l 433 467 m 368 458 l 368 456 l 378 456 l 376 461 q 368 458 370 458 m 175 453 q 183 445 175 449 l 186 450 l 180 453 l 175 453 m 164 412 l 164 407 l 172 407 l 172 418 l 170 418 q 164 412 164 417 m 151 410 l 148 396 l 156 391 l 159 391 q 151 410 155 410 m 384 410 l 381 404 l 389 404 q 384 410 389 410 m 419 410 l 419 404 l 427 404 l 427 407 q 419 410 425 407 m 123 407 l 123 401 l 132 401 q 126 407 132 407 l 123 407 m 134 404 l 134 401 l 140 401 l 140 404 l 134 404 m 327 407 l 330 401 l 330 388 l 327 382 q 316 391 316 387 l 316 393 q 327 407 323 407 m 343 399 q 349 393 344 393 q 354 399 354 393 l 343 399 m 411 396 l 411 393 l 416 393 l 416 396 l 411 396 m 175 388 q 180 382 176 382 l 183 382 q 178 388 183 388 l 175 388 m 368 385 l 368 377 q 373 382 373 377 l 373 385 l 368 385 m 351 377 l 349 372 l 362 372 l 362 374 l 351 377 m 430 372 l 430 369 q 435 363 431 363 l 438 363 q 430 372 438 368 m 178 366 l 175 361 l 175 358 l 183 358 l 183 361 q 178 366 183 366 m 118 355 l 123 355 l 123 361 q 118 355 118 360 m 137 361 l 137 355 l 145 355 q 140 361 145 361 l 137 361 m 368 355 l 368 353 l 381 353 l 381 355 l 368 355 m 164 350 l 164 345 l 167 345 l 167 350 l 164 350 m 435 345 l 435 342 l 444 342 l 444 345 l 435 345 m 167 328 l 167 323 l 172 323 l 172 328 l 167 328 m 384 328 l 384 323 q 389 328 389 323 l 384 328 m 362 320 l 362 312 q 368 317 368 312 l 368 320 l 362 320 m 126 304 l 126 298 q 134 296 129 298 l 132 290 l 132 282 l 140 282 q 145 288 145 282 l 145 298 l 126 304 m 159 296 q 183 288 159 289 q 159 296 183 293 m 151 282 l 151 279 l 156 279 l 156 288 q 151 282 151 287 m 389 279 q 381 263 389 273 l 381 260 l 387 260 q 395 279 395 276 l 389 279 m 113 250 l 113 244 l 118 244 q 113 250 118 250 m 167 250 q 175 241 167 245 q 180 247 180 241 l 180 250 l 167 250 m 115 241 l 115 236 l 118 236 l 118 241 l 115 241 m 262 236 l 262 233 l 267 233 l 267 236 l 262 236 m 110 233 l 110 231 l 115 231 l 115 233 l 110 233 m 113 222 q 121 212 117 212 l 118 228 q 113 222 113 227 m 294 228 q 300 222 295 222 l 302 222 l 302 228 l 294 228 m 132 222 l 132 217 l 134 217 l 134 222 l 132 222 m 224 220 l 224 214 l 229 214 l 229 220 l 224 220 m 254 209 l 254 206 l 259 206 l 259 209 l 254 209 m 121 206 l 121 193 l 126 193 l 123 206 l 121 206 m 308 206 l 308 201 q 327 182 309 194 l 327 187 q 308 206 327 191 m 389 201 l 389 195 l 392 195 l 392 201 l 389 201 m 180 182 l 180 176 q 186 171 181 171 l 189 176 l 180 182 m 324 179 l 324 174 l 311 176 l 308 171 l 308 168 l 321 165 q 330 176 326 165 l 324 179 m 64 174 q 69 168 64 168 q 85 171 83 171 l 91 168 l 96 171 l 113 168 q 118 174 118 168 l 64 174 m 208 174 l 205 163 l 210 163 l 210 174 l 208 174 m 178 168 l 178 157 q 183 152 178 152 l 189 163 l 180 168 l 178 168 m 408 168 l 408 163 l 411 163 l 411 168 l 408 168 m 85 157 l 91 155 l 94 155 q 99 160 99 155 l 94 163 l 91 163 q 85 157 85 162 m 302 163 l 302 157 q 308 163 308 157 l 302 163 m 115 136 q 129 125 127 125 q 137 136 133 125 q 129 152 134 152 l 126 152 q 115 136 115 146 m 151 114 l 145 117 q 134 114 140 114 l 134 111 q 142 109 142 111 l 148 111 l 170 111 l 175 92 q 172 90 172 92 l 178 87 q 189 117 182 109 q 180 136 184 117 q 186 141 186 136 q 183 149 183 146 q 170 117 178 149 q 151 114 161 117 m 243 149 l 243 146 l 251 146 l 251 149 l 243 149 m 384 144 q 381 138 384 138 l 368 138 q 365 133 368 133 q 368 125 368 127 l 370 125 q 387 141 372 125 l 387 144 l 384 144 m 69 136 q 75 130 70 130 l 77 130 q 83 136 83 130 l 69 136 m 96 133 q 102 127 97 127 q 113 130 106 130 q 104 136 113 136 q 96 133 99 133 m 308 130 l 308 125 l 313 125 q 308 130 313 130 m 264 127 l 264 125 l 270 125 l 270 127 l 264 127 m 273 127 l 278 119 q 270 117 273 117 l 270 114 l 300 114 l 300 119 l 294 117 q 273 127 283 127 m 376 125 l 373 119 l 373 117 l 384 117 q 376 125 384 121 m 194 114 l 194 111 l 199 111 q 229 114 218 114 l 229 119 l 194 114 m 408 119 l 408 117 l 414 117 l 414 119 l 408 119 m 85 111 l 85 109 q 99 103 92 109 l 102 103 l 99 109 l 102 114 l 99 114 l 85 111 m 107 114 l 107 111 l 115 111 l 115 114 l 107 114 m 72 111 l 72 109 l 83 109 l 83 111 l 72 111 m 365 109 l 365 106 l 370 106 l 370 109 l 365 109 m 373 106 l 373 103 l 389 103 q 381 109 389 109 q 373 106 376 106 m 107 106 l 107 103 q 113 90 113 96 q 118 95 118 90 q 107 106 118 99 m 151 103 l 151 100 l 156 100 l 156 103 l 151 103 m 373 87 l 343 87 l 343 81 l 357 79 q 403 84 400 84 q 389 92 403 90 q 373 87 380 87 m 129 90 q 118 84 129 84 l 118 79 l 148 65 l 151 65 l 159 71 l 164 71 q 170 65 170 70 q 251 73 184 68 l 262 68 q 286 76 262 73 q 289 79 286 79 q 305 62 295 64 q 316 79 305 68 l 292 90 q 259 84 276 90 q 229 90 255 87 q 208 81 229 83 q 199 90 208 85 l 197 90 l 186 73 q 172 84 184 73 q 161 81 168 81 q 153 90 161 85 q 142 84 146 84 q 129 90 134 90 m 42 76 l 42 73 l 53 73 l 53 76 l 42 76 m 66 76 l 66 73 l 72 73 l 72 76 l 66 76 m 80 76 l 80 73 q 88 68 88 73 l 94 68 q 96 76 94 71 l 80 76 m 104 76 l 104 73 l 118 73 l 118 76 l 104 76 m 373 76 l 376 62 l 384 62 q 376 76 380 76 l 373 76 m 61 71 q 58 62 61 68 l 58 60 l 61 60 q 64 68 61 62 l 64 71 l 61 71 m 91 62 l 91 57 l 96 57 q 91 62 96 62 m 47 60 l 47 57 q 83 30 60 39 q 99 22 85 22 l 102 22 l 102 24 q 50 60 94 24 l 47 60 m 254 54 l 254 46 l 267 46 l 270 60 l 264 60 q 254 54 258 54 m 308 57 q 313 52 309 52 l 313 57 l 308 57 m 99 54 l 99 49 l 102 49 l 102 54 l 99 54 m 126 49 l 126 46 l 129 46 l 142 49 l 142 54 l 132 54 q 126 49 126 54 m 229 52 l 229 49 l 245 49 l 243 54 q 229 52 238 52 m 275 52 l 275 49 l 305 49 l 305 52 l 292 54 l 289 54 l 275 52 m 340 52 l 343 52 l 343 49 l 340 43 l 343 43 q 354 52 354 45 l 370 52 q 381 43 377 43 l 381 41 q 376 35 381 35 q 365 38 371 38 l 365 35 q 368 27 368 30 q 335 14 343 14 l 332 14 l 332 35 q 335 38 332 38 l 332 43 q 340 52 332 47 m 94 46 l 94 41 l 99 41 l 99 46 l 94 46 m 338 33 l 338 24 q 346 33 342 24 l 338 33 m 53 27 l 47 19 l 53 16 l 58 24 l 53 27 m 72 14 l 72 11 l 77 11 l 77 14 l 72 14 z "},"C":{"ha":401,"x_min":20,"x_max":381,"o":"m 167 1175 q 175 1172 172 1172 q 183 1175 178 1172 q 294 1137 258 1175 q 338 1166 335 1166 q 340 1164 340 1166 l 370 1169 l 376 1161 l 376 1107 q 373 1093 376 1098 l 376 1077 q 378 971 376 1038 q 381 968 378 968 l 378 955 l 378 949 q 381 838 378 909 q 378 830 378 833 q 381 817 381 825 l 381 814 l 376 806 q 381 795 381 799 q 378 749 381 777 q 381 711 381 732 q 365 705 372 705 l 359 705 q 349 708 353 705 q 340 705 343 705 q 300 716 300 705 q 302 754 300 720 l 300 760 q 305 773 302 773 l 302 787 l 302 811 l 316 811 l 316 817 l 300 817 q 216 914 300 914 l 197 917 q 140 892 166 910 l 142 887 q 137 863 137 869 l 137 841 l 129 841 l 129 836 l 137 836 l 134 808 l 134 743 q 132 719 134 734 q 134 703 134 715 l 132 703 q 110 716 122 712 q 102 727 110 727 l 102 705 q 118 697 108 705 l 123 700 q 134 686 127 700 l 134 675 q 132 673 134 673 l 134 667 l 134 648 l 132 643 l 151 608 q 175 589 175 592 l 175 583 q 137 534 137 552 l 140 524 q 132 480 138 480 q 123 491 125 480 l 121 491 l 121 480 q 137 434 137 480 q 121 420 121 432 q 126 415 126 420 q 121 410 121 414 q 134 407 125 407 q 140 345 138 345 q 132 328 138 328 l 132 323 q 140 317 140 323 q 129 309 140 313 l 123 312 q 115 309 118 309 l 115 307 q 121 301 116 301 l 137 304 q 175 260 150 273 l 175 252 l 183 252 l 183 258 l 191 258 l 199 252 q 205 258 200 258 q 286 282 286 258 q 311 296 286 296 l 294 307 q 300 342 300 331 l 300 366 q 302 369 300 369 l 300 374 l 300 380 q 302 393 300 389 l 300 404 q 302 453 302 437 l 313 461 l 316 461 q 319 458 319 461 q 321 461 321 458 q 351 450 342 459 l 357 450 l 354 456 q 368 458 363 456 q 378 450 378 454 l 378 429 l 365 429 l 365 423 l 378 423 l 378 372 q 376 369 378 369 q 381 355 381 360 q 370 347 381 347 q 378 323 372 332 l 378 312 q 376 309 378 309 q 378 307 376 307 l 376 293 q 381 285 378 285 l 378 271 l 381 252 l 378 252 q 381 244 381 247 q 362 193 381 202 q 376 182 374 187 q 368 138 376 178 l 365 138 l 357 144 q 343 136 348 136 q 297 141 328 136 l 283 138 l 278 141 l 262 138 l 248 138 l 248 141 l 254 149 l 237 163 q 227 165 233 165 l 224 160 l 224 155 q 240 141 240 155 l 237 141 l 232 144 q 227 138 232 138 l 216 138 q 208 149 216 149 l 194 138 l 194 141 q 178 136 185 136 l 153 136 l 153 144 l 148 144 q 115 133 139 136 l 115 130 l 129 125 q 140 127 134 127 l 142 122 l 148 125 l 156 125 l 156 114 l 161 114 l 161 125 l 170 125 q 183 127 178 125 l 194 125 l 218 127 l 229 125 q 251 130 243 130 q 297 127 283 127 q 308 130 298 127 q 316 127 313 127 l 330 130 q 338 127 335 127 q 349 130 342 130 q 354 125 349 125 l 354 127 l 351 133 l 357 133 l 365 127 q 354 114 362 114 l 357 103 q 346 90 351 91 l 330 90 q 324 95 324 90 q 327 103 327 100 l 324 103 q 319 92 319 103 l 302 92 q 297 87 297 92 q 302 81 298 81 l 335 81 q 340 76 340 81 l 340 73 l 308 73 l 292 71 q 283 76 283 73 l 256 73 q 235 76 250 73 q 218 73 231 73 q 205 111 209 111 l 199 111 q 194 106 194 111 l 197 92 q 189 84 193 92 q 205 73 199 84 q 199 54 199 56 l 218 38 l 229 46 q 237 41 237 43 l 264 46 l 264 49 l 259 57 q 267 65 259 61 l 270 65 q 278 49 274 65 q 289 35 286 49 l 283 33 l 267 33 l 267 27 q 275 24 270 27 l 292 27 l 292 22 q 243 3 258 3 l 240 3 q 235 8 235 3 q 237 19 237 13 q 235 22 235 19 q 259 27 248 27 l 259 30 q 221 33 234 30 l 199 19 l 197 19 q 183 41 197 30 q 151 27 183 27 l 156 16 l 151 16 q 140 24 140 20 q 148 27 145 27 l 148 30 q 137 33 142 30 l 132 30 q 121 38 121 34 l 126 46 l 126 49 q 104 57 104 52 l 104 62 q 123 65 113 62 l 134 62 q 156 65 145 65 q 161 60 157 60 l 186 60 q 191 65 191 60 q 164 73 191 71 q 156 79 156 77 q 159 87 159 84 l 153 90 l 148 87 q 145 90 148 90 l 148 95 l 148 98 q 140 100 145 98 q 102 84 140 90 l 102 81 q 110 76 110 81 l 102 71 q 77 111 92 71 l 80 111 l 85 109 l 88 114 q 72 122 72 117 l 80 133 q 64 152 67 133 q 80 155 68 155 l 80 157 q 61 168 61 164 q 64 171 61 171 q 58 206 58 183 q 64 212 59 212 q 80 201 77 212 q 72 193 76 201 q 107 168 75 193 l 110 168 l 110 171 q 85 190 98 189 l 85 195 l 91 193 l 99 193 q 102 206 99 201 l 88 206 l 88 212 l 161 212 l 161 203 l 170 203 q 186 222 170 208 l 186 228 q 167 236 170 236 l 167 231 l 172 222 l 167 220 l 126 220 l 113 217 l 113 220 l 107 217 l 102 217 q 77 225 87 217 q 72 217 77 217 l 64 217 q 58 222 58 217 l 58 228 l 64 228 l 64 263 l 58 263 l 58 266 q 61 269 58 269 q 56 285 56 277 q 53 342 56 307 l 56 347 q 53 358 53 352 q 56 369 53 364 l 53 385 q 56 388 53 388 l 53 401 l 53 442 q 56 467 53 452 l 53 472 q 56 480 53 475 q 50 526 52 523 q 53 537 53 531 q 23 581 50 557 q 20 591 20 585 q 50 610 32 602 l 47 616 l 47 621 q 56 627 47 627 l 53 640 l 53 700 l 50 716 q 56 754 53 730 q 53 765 53 759 l 56 776 l 61 776 q 66 762 61 762 q 69 768 66 768 q 53 787 69 774 l 53 830 q 56 873 53 846 l 53 879 l 56 884 q 53 906 53 899 q 58 928 54 928 l 56 941 l 56 966 q 58 996 56 977 l 56 1001 q 96 1120 63 1072 q 164 1175 127 1162 l 167 1175 m 262 1137 l 262 1134 q 281 1142 281 1137 l 281 1145 l 278 1145 q 262 1137 262 1142 m 245 1134 q 229 1126 243 1126 l 221 1126 l 221 1115 q 251 1131 251 1123 l 245 1134 m 202 1112 l 202 1109 l 205 1109 q 216 1118 216 1114 q 213 1120 213 1118 q 202 1112 202 1116 m 259 1120 l 259 1118 l 264 1118 l 264 1120 l 259 1120 m 186 1107 l 186 1104 l 191 1104 l 191 1107 l 186 1107 m 313 1099 l 313 1093 l 319 1093 l 319 1099 l 313 1099 m 142 1088 l 148 1088 q 153 1093 153 1088 l 148 1093 q 142 1088 142 1093 m 126 1088 l 123 1074 l 129 1074 q 132 1085 129 1080 l 126 1088 m 278 1072 l 275 1066 l 281 1063 l 283 1069 l 278 1072 m 297 1072 l 297 1066 l 302 1066 l 302 1072 l 297 1072 m 104 1058 l 104 1055 l 110 1055 l 110 1058 l 104 1058 m 343 1055 l 343 1047 l 349 1047 q 354 1053 354 1047 l 349 1055 l 343 1055 m 77 1050 l 77 1047 l 83 1047 l 83 1050 l 77 1050 m 85 1042 l 85 1039 q 94 1047 90 1039 l 91 1047 q 85 1042 85 1046 m 351 1036 l 349 1031 l 349 1023 l 354 1023 q 359 1028 359 1023 q 351 1036 359 1032 m 294 1028 l 294 1025 l 305 1023 q 300 1034 300 1029 q 294 1028 294 1033 m 283 1031 l 283 1028 q 289 1023 284 1023 l 289 1025 q 283 1031 289 1031 m 142 1015 l 142 1009 l 145 1009 l 145 1015 l 142 1015 m 349 1004 l 349 998 q 354 985 354 991 q 365 996 358 985 l 365 1001 q 349 1004 363 1001 m 88 846 q 94 841 89 841 l 96 841 l 96 846 l 88 846 m 349 781 l 349 779 l 354 779 l 354 781 l 349 781 m 83 773 l 83 768 l 88 768 q 83 773 88 773 m 107 770 l 107 765 l 113 765 l 113 770 l 107 770 m 121 760 l 121 757 q 126 751 121 751 l 129 757 l 129 760 l 121 760 m 83 741 l 83 735 l 85 735 l 85 741 l 83 741 m 56 713 l 56 711 q 61 705 56 705 l 61 708 q 56 713 61 713 m 77 711 l 77 705 l 80 705 l 80 711 l 77 711 m 66 697 l 66 694 l 72 694 l 72 697 l 66 697 m 91 681 l 83 681 l 83 686 l 77 686 l 77 681 q 91 662 88 662 l 96 665 l 94 670 q 99 686 99 679 l 99 692 q 91 681 92 692 m 102 684 l 102 681 l 107 681 l 107 684 l 102 684 m 121 678 q 126 673 121 673 l 129 673 l 129 678 l 121 678 m 96 648 l 96 646 q 102 651 102 646 l 102 654 q 96 648 96 653 m 104 651 l 104 648 l 113 648 l 113 651 l 104 651 m 156 594 l 156 589 l 164 589 q 159 594 164 594 l 156 594 m 148 591 l 148 586 l 153 586 l 153 591 l 148 591 m 83 551 l 83 545 l 85 545 l 85 551 l 83 551 m 110 537 l 110 532 l 118 532 q 113 537 118 537 l 110 537 m 77 532 l 77 526 l 80 526 l 80 532 l 77 532 m 88 505 l 88 496 l 94 496 l 94 505 l 88 505 m 61 491 l 61 488 l 75 486 l 77 491 q 69 494 72 494 q 61 491 64 491 m 94 475 q 96 467 96 469 q 102 472 102 467 l 102 480 l 99 480 q 94 475 94 479 m 362 453 l 357 445 l 357 442 l 370 439 q 362 453 367 453 m 351 445 q 349 434 351 439 l 354 434 l 354 445 l 351 445 m 85 415 l 85 412 q 88 404 88 407 l 94 404 q 85 415 90 415 m 107 407 l 113 407 l 113 412 q 107 407 107 412 m 365 399 l 365 391 l 368 391 l 368 399 l 365 399 m 354 396 q 340 382 348 382 q 349 374 340 378 l 351 374 q 359 393 351 382 l 354 396 m 91 377 l 94 372 q 91 363 91 366 l 102 363 l 102 374 l 91 377 m 308 372 l 308 369 l 319 366 l 332 369 l 332 374 q 308 372 330 372 m 346 366 l 357 366 l 357 372 l 351 372 q 346 366 346 371 m 359 369 l 359 366 l 365 366 l 365 369 l 359 369 m 107 358 l 107 355 l 113 355 l 113 358 l 107 358 m 305 347 l 311 345 l 313 350 l 313 353 l 311 353 q 305 347 305 352 m 351 353 l 351 339 q 357 345 357 339 l 357 353 l 351 353 m 118 334 l 118 331 q 123 326 119 326 l 126 331 l 126 334 l 118 334 m 335 334 q 340 328 336 328 l 343 328 q 338 334 343 334 l 335 334 m 96 296 l 96 285 l 102 285 q 104 293 102 288 l 99 296 l 96 296 m 316 274 l 316 271 l 327 271 l 327 274 l 316 274 m 85 247 l 80 250 l 80 239 l 85 241 l 88 236 l 88 233 l 83 233 q 96 222 84 228 l 107 228 l 102 239 l 113 239 l 113 244 l 96 247 l 96 258 l 110 255 q 107 266 107 260 l 102 266 q 85 247 87 247 m 145 258 l 145 252 l 153 252 l 153 258 l 145 258 m 243 250 l 243 244 q 259 231 249 244 q 264 236 264 231 q 262 247 262 241 l 267 247 l 267 250 q 256 255 263 250 l 248 255 q 243 250 243 254 m 319 250 q 316 241 319 247 l 321 239 q 324 247 321 241 l 319 250 m 278 247 l 278 244 l 286 244 l 286 247 l 278 247 m 297 231 l 305 231 q 313 244 305 235 l 308 247 l 305 247 q 297 231 297 244 m 134 236 q 140 231 135 231 l 142 231 q 148 236 148 231 l 142 239 q 134 236 137 236 m 126 236 l 126 233 l 132 233 l 132 236 l 126 236 m 343 225 l 351 225 l 351 231 l 349 231 q 343 225 343 230 m 191 222 l 191 217 l 210 217 q 213 214 213 217 q 224 217 218 217 l 224 222 l 202 222 q 199 225 199 222 q 191 222 194 222 m 286 220 l 286 214 l 292 214 q 286 220 292 220 m 235 209 l 240 206 l 243 212 l 243 214 l 240 214 q 235 209 235 214 m 137 209 l 137 203 l 145 203 l 145 206 q 137 209 142 206 m 283 203 l 283 201 q 294 195 294 201 l 300 195 l 300 209 l 289 209 q 283 203 283 208 m 199 203 q 197 198 199 198 q 199 187 199 193 l 202 187 l 205 201 l 199 203 m 216 203 l 216 201 q 218 193 218 195 q 216 190 216 193 l 218 190 l 224 193 q 216 203 220 203 m 278 195 l 275 190 l 275 187 q 292 176 288 187 l 281 165 l 278 165 l 273 168 l 273 155 q 275 157 275 155 l 289 155 l 294 155 l 300 174 l 300 176 q 278 195 289 195 m 153 168 l 153 165 l 159 165 l 161 184 q 153 168 153 182 m 343 176 q 349 171 344 171 l 351 176 l 343 176 m 121 171 l 121 165 l 123 165 l 123 171 l 121 171 m 183 171 l 183 157 q 189 152 184 152 l 194 152 q 183 171 191 171 m 151 157 l 151 149 l 153 149 l 159 152 q 156 163 156 157 q 151 157 151 162 m 305 157 q 319 149 305 153 q 346 155 328 155 q 330 163 346 160 q 305 157 320 157 m 99 160 l 99 155 l 102 155 l 102 160 l 99 160 m 104 157 l 104 155 l 118 152 l 126 152 q 115 160 126 155 q 104 157 111 157 m 137 157 l 137 152 l 145 152 l 145 157 l 137 157 m 357 152 l 357 149 l 362 149 l 362 152 l 357 152 m 308 149 l 308 144 l 311 144 l 311 149 l 308 149 m 218 146 l 218 144 l 224 144 l 224 146 l 218 146 m 205 141 l 210 141 l 210 136 l 205 136 l 205 141 m 132 122 l 129 117 q 132 114 132 117 q 113 100 113 107 l 121 95 l 145 109 l 151 106 l 151 114 q 132 122 148 114 m 305 119 q 297 111 305 115 q 273 114 282 114 l 267 106 l 286 103 q 332 109 307 109 l 332 111 l 305 119 m 227 109 l 227 106 l 240 103 l 240 100 q 224 92 240 92 l 224 90 q 229 84 224 84 l 243 87 l 259 84 l 259 90 l 256 95 q 264 98 262 98 q 254 117 264 113 l 235 117 q 227 109 231 117 m 278 92 l 278 87 l 289 84 l 289 87 q 283 92 289 92 l 278 92 m 170 90 l 170 84 l 172 84 l 172 90 l 170 90 m 283 65 l 286 65 q 316 54 300 58 q 330 57 319 57 q 305 33 330 50 l 302 33 q 283 65 283 52 m 251 62 l 254 57 l 229 52 l 227 57 q 251 62 231 60 m 137 57 l 137 52 l 142 52 l 142 57 l 137 57 m 167 46 l 167 43 l 183 43 l 183 49 l 180 49 l 167 46 m 148 41 q 153 35 149 35 l 161 35 q 156 46 156 42 l 153 46 q 148 41 148 45 m 180 22 l 183 22 q 194 16 190 16 l 194 11 q 189 5 189 11 q 159 16 159 9 q 180 22 161 16 m 243 19 l 243 16 q 251 8 243 12 l 254 8 q 259 14 259 8 l 259 16 l 243 19 m 216 8 l 218 8 q 224 3 224 7 l 224 0 l 221 0 q 218 3 218 0 l 213 0 l 210 0 l 210 3 q 216 8 211 8 z "}}}
